<svg version="1.1" xmlns="http://www.w3.org/2000/svg" viewBox="0 0 499.0209273434398 287.02362834051723" width="499.0209273434398" height="287.02362834051723">
  <!-- svg-source:excalidraw -->
  
  <defs>
    <style class="style-fonts">
      @font-face {
        font-family: "Virgil";
        src: url("https://excalidraw.com/Virgil.woff2");
      }
      @font-face {
        font-family: "Cascadia";
        src: url("https://excalidraw.com/Cascadia.woff2");
      }
      @font-face {
        font-family: "Assistant";
        src: url("https://excalidraw.com/Assistant-Regular.woff2");
      }
    </style>
    
  </defs>
  <rect x="0" y="0" width="499.0209273434398" height="287.02362834051723" fill="#ffffff"></rect><g stroke-linecap="round" transform="translate(204.73569440273312 114.59551504168087) rotate(0 43.92912551591964 59.866575996830704)"><path d="M-1.99 -1.3 L87.99 1.19 L89.07 117.96 L0.48 117.84" stroke="none" stroke-width="0" fill="#edf2f9"></path><path d="M0 0 C17.94 0.87, 37.61 -0.24, 87.86 0 M0 0 C30.6 0.78, 59.59 -0.53, 87.86 0 M87.86 0 C89.09 30.17, 87.57 65.2, 87.86 119.73 M87.86 0 C88.76 42.03, 89 83.65, 87.86 119.73 M87.86 119.73 C56.62 120.47, 28.51 118.11, 0 119.73 M87.86 119.73 C68.46 121.25, 48.65 119.83, 0 119.73 M0 119.73 C0.15 74.64, 1.22 28.96, 0 0 M0 119.73 C-0.75 73.53, 0.18 28.81, 0 0" stroke="#000000" stroke-width="4" fill="none"></path></g><g stroke-linecap="round" transform="translate(205.03969581604 116.15885256200113) rotate(0 44.086251417389114 10.116351583729681)"><path d="M0 0 L88.17 0 L88.17 20.23 L0 20.23" stroke="none" stroke-width="0" fill="#f48284"></path><path d="M0 0 C26.69 0, 53.39 0, 88.17 0 M0 0 C25.73 0, 51.45 0, 88.17 0 M88.17 0 C88.17 5.8, 88.17 11.6, 88.17 20.23 M88.17 0 C88.17 7.67, 88.17 15.33, 88.17 20.23 M88.17 20.23 C64.14 20.23, 40.1 20.23, 0 20.23 M88.17 20.23 C55.59 20.23, 23 20.23, 0 20.23 M0 20.23 C0 12.91, 0 5.58, 0 0 M0 20.23 C0 13.41, 0 6.59, 0 0" stroke="#000" stroke-width="4" fill="none"></path></g><g stroke-linecap="round"><g transform="translate(205.93826324564841 151.67907839454597) rotate(0 42.393604917875564 -0.16218111332466378)"><path d="M0 0 C29.99 0.93, 58.26 1.48, 84.79 -0.32 M0 0 C31.05 0.52, 62.69 0.81, 84.79 -0.32" stroke="#000" stroke-width="4" fill="none"></path></g></g><mask></mask><g stroke-linecap="round"><g transform="translate(206.16502818267557 166.52181529861411) rotate(0 42.67453180473365 0.1370344893163633)"><path d="M0 0 C24.52 1.28, 50.77 -0.27, 85.35 0.27 M0 0 C20.3 0.5, 40.14 -0.2, 85.35 0.27" stroke="#000" stroke-width="4" fill="none"></path></g></g><mask></mask><g stroke-linecap="round"><g transform="translate(205.3394917913611 182.7357237746021) rotate(0 43.43106438131895 -0.0706571691176805)"><path d="M0 0 C31.59 -0.77, 59.15 -1.51, 86.86 -0.14 M0 0 C26.43 -0.73, 55.28 -0.08, 86.86 -0.14" stroke="#000" stroke-width="4" fill="none"></path></g></g><mask></mask><g stroke-linecap="round"><g transform="translate(207.2912165730709 198.01913334204244) rotate(0 43.43106438131895 -0.0706571691176805)"><path d="M0 0 C31.83 -0.76, 66.34 -0.37, 86.86 -0.14 M0 0 C31.73 0.62, 62.09 0.88, 86.86 -0.14" stroke="#000" stroke-width="4" fill="none"></path></g></g><mask></mask><g stroke-linecap="round"><g transform="translate(206.27264752435738 215.99025294222622) rotate(0 43.43106438131895 -0.0706571691176805)"><path d="M0 0 C26.22 0, 53.03 -1.22, 86.86 -0.14 M0 0 C24.72 0.33, 48.48 -0.15, 86.86 -0.14" stroke="#000" stroke-width="4" fill="none"></path></g></g><mask></mask><g stroke-linecap="round"><g transform="translate(222.8097910072395 137.61983775955161) rotate(0 -0.2477488798252807 48.441776948816596)"><path d="M0 0 C1.07 24.14, -0.58 53.13, -0.5 96.88 M0 0 C0.6 34.08, 0.67 67.75, -0.5 96.88" stroke="#000" stroke-width="4" fill="none"></path></g></g><mask></mask><g stroke-linecap="round"><g transform="translate(222.0448768872948 107.67666777305112) rotate(0 0.1054292566635695 6.5910877900965374)"><path d="M0 0 C-0.05 4.43, 0.47 7.94, 0.21 13.18 M0 0 C0.24 5.09, 0.31 9.74, 0.21 13.18" stroke="#000" stroke-width="4" fill="none"></path></g></g><mask></mask><g stroke-linecap="round"><g transform="translate(235.40581366923428 107.4179415408588) rotate(0 0.1054292566635695 6.5910877900965374)"><path d="M0 0 C0.35 3.39, 0.6 6.14, 0.21 13.18 M0 0 C0.24 4.16, 0.08 8.61, 0.21 13.18" stroke="#000" stroke-width="4" fill="none"></path></g></g><mask></mask><g stroke-linecap="round"><g transform="translate(248.294571711514 107.82126723881379) rotate(0 0.1054292566635695 6.5910877900965374)"><path d="M0 0 C0.64 5.38, 0.43 10.78, 0.21 13.18 M0 0 C0.01 4.12, 0.33 8.76, 0.21 13.18" stroke="#000" stroke-width="4" fill="none"></path></g></g><mask></mask><g stroke-linecap="round"><g transform="translate(261.30629764211994 107.74401288736613) rotate(0 0.1054292566635695 6.5910877900965374)"><path d="M0 0 C0.35 5.02, 0.39 9.73, 0.21 13.18 M0 0 C0.19 3.07, -0.15 5.67, 0.21 13.18" stroke="#000" stroke-width="4" fill="none"></path></g></g><mask></mask><g stroke-linecap="round"><g transform="translate(273.63414259846263 107.1461959712932) rotate(0 0.1054292566635695 6.5910877900965374)"><path d="M0 0 C0.28 4.5, -0.34 8.27, 0.21 13.18 M0 0 C-0.15 2.88, -0.1 6.51, 0.21 13.18" stroke="#000" stroke-width="4" fill="none"></path></g></g><mask></mask><g transform="translate(156.2105292845129 252.02362834051723) rotate(0 93.29993438720703 12.5)"><text x="0" y="17.52" font-family="Virgil, Segoe UI Emoji" font-size="20px" fill="#000" text-anchor="start" style="white-space: pre;" direction="ltr" dominant-baseline="alphabetic">Financial Education</text></g><g stroke-linecap="round"><g transform="translate(11.471572617667192 11.719240338886152) rotate(0 0 115.21131089869937)"><path d="M-0.39 -0.44 C-0.61 37.84, -1.26 190.92, -1.09 229.38 M1.6 -1.72 C1.73 36.7, 1.28 191.49, 1.05 230.36" stroke="#000000" stroke-width="1" fill="none"></path></g></g><mask></mask><g stroke-linecap="round"><g transform="translate(11.090067481994623 243.1824182558497) rotate(0 238.65200114730584 0)"><path d="M-1.09 -1.05 C78.63 -1, 398.08 -0.53, 477.93 -0.16 M0.54 1.02 C80.19 1.29, 397.8 1.55, 477.31 1.3" stroke="#000000" stroke-width="1" fill="none"></path></g></g><mask></mask><g stroke-linecap="round" transform="translate(27.031357075583543 127.12146717845746) rotate(0 5.486252899938123 5.486252899938108)"><path d="M-0.52 4.85 C-0.52 4.85, -0.52 4.85, -0.52 4.85 M-0.52 4.85 C-0.52 4.85, -0.52 4.85, -0.52 4.85 M1.84 8.23 C3.61 5.74, 5.49 4.01, 7.75 1.43 M1.84 8.23 C4.06 5.95, 5.77 3.76, 7.75 1.43 M4.86 10.85 C6.62 8.29, 8.16 6.27, 10.77 4.06 M4.86 10.85 C6.87 8.44, 9.16 5.71, 10.77 4.06 M3.21 10.03 C3.21 10.03, 3.21 10.03, 3.21 10.03 M3.21 10.03 C3.21 10.03, 3.21 10.03, 3.21 10.03 M8.85 9.63 C7.38 7.79, 5.12 6.36, 1.31 3.07 M8.85 9.63 C6.81 7.69, 4.94 6.09, 1.31 3.07 M10.72 5.96 C8.44 4.07, 6.48 2.41, 4.69 0.71 M10.72 5.96 C8.5 4.2, 6.47 2.59, 4.69 0.71" stroke="#15aabf" stroke-width="0.5" fill="none"></path><path d="M6.21 0.05 C7.45 0.18, 8.83 1.09, 9.67 1.96 C10.52 2.83, 11.3 4.23, 11.29 5.26 C11.29 6.3, 10.32 7.21, 9.65 8.18 C8.98 9.14, 8.31 10.72, 7.27 11.06 C6.23 11.39, 4.56 10.82, 3.41 10.2 C2.27 9.58, 1.01 8.28, 0.4 7.33 C-0.2 6.37, -0.6 5.46, -0.2 4.48 C0.2 3.5, 1.67 2.2, 2.82 1.46 C3.97 0.73, 6.09 0.35, 6.69 0.07 C7.29 -0.2, 6.52 -0.27, 6.44 -0.19 M4.99 0.23 C6.01 0.2, 7.65 0.74, 8.76 1.36 C9.87 1.99, 11.46 2.92, 11.65 4 C11.85 5.07, 10.63 6.74, 9.91 7.82 C9.19 8.89, 8.46 9.88, 7.33 10.46 C6.2 11.04, 4.29 11.8, 3.11 11.3 C1.92 10.81, 0.72 8.64, 0.2 7.48 C-0.31 6.33, -0.24 5.37, 0.03 4.39 C0.29 3.42, 0.9 2.41, 1.8 1.62 C2.71 0.83, 4.84 0.01, 5.46 -0.35 C6.08 -0.72, 5.5 -0.85, 5.53 -0.6" stroke="#000000" stroke-width="1" fill="none"></path></g><g stroke-linecap="round" transform="translate(59.948874475211966 143.58022587827156) rotate(0 5.486252899938123 5.486252899938108)"><path d="M1.87 1.63 C1.87 1.63, 1.87 1.63, 1.87 1.63 M1.87 1.63 C1.87 1.63, 1.87 1.63, 1.87 1.63 M0.96 8.78 C3.04 6.45, 5.92 3.52, 7.52 1.23 M0.96 8.78 C2.99 6.48, 5.25 3.84, 7.52 1.23 M4.63 10.65 C6.24 8.06, 8.94 6.39, 10.54 3.86 M4.63 10.65 C6.74 8.09, 8.76 5.82, 10.54 3.86 M1.02 9.49 C1.02 9.49, 1.02 9.49, 1.02 9.49 M1.02 9.49 C1.02 9.49, 1.02 9.49, 1.02 9.49 M7.42 9.75 C5.12 7.7, 2.81 5.96, 1.38 4.5 M7.42 9.75 C6.15 8.53, 4.67 7.09, 1.38 4.5 M10.8 7.39 C8.62 5.68, 6.77 3.26, 3.25 0.83 M10.8 7.39 C7.79 5.16, 5.42 2.36, 3.25 0.83" stroke="#15aabf" stroke-width="0.5" fill="none"></path><path d="M5.08 0.39 C6.19 0.21, 7.89 0.61, 8.78 1.11 C9.67 1.61, 10.04 2.25, 10.39 3.38 C10.75 4.5, 11.28 6.74, 10.92 7.86 C10.57 8.98, 9.39 9.68, 8.27 10.1 C7.15 10.52, 5.44 10.52, 4.19 10.37 C2.93 10.23, 1.36 10.02, 0.74 9.24 C0.12 8.47, 0.31 6.96, 0.48 5.72 C0.65 4.47, 1.07 2.8, 1.75 1.77 C2.43 0.75, 4.03 -0.14, 4.56 -0.43 C5.09 -0.71, 4.84 -0.15, 4.91 0.04 M4.98 0.01 C6.32 -0.24, 8.69 -0.11, 9.63 0.53 C10.56 1.17, 10.46 2.64, 10.59 3.86 C10.71 5.08, 10.97 6.62, 10.39 7.86 C9.81 9.1, 8.3 10.91, 7.12 11.28 C5.94 11.64, 4.36 10.54, 3.29 10.05 C2.23 9.56, 1.33 9.17, 0.75 8.34 C0.17 7.52, -0.34 6.33, -0.18 5.11 C-0.03 3.89, 0.79 2.01, 1.69 1.04 C2.6 0.07, 4.64 -0.65, 5.26 -0.71 C5.87 -0.77, 5.26 0.5, 5.39 0.69" stroke="#000000" stroke-width="1" fill="none"></path></g><g stroke-linecap="round" transform="translate(92.86639187484033 160.03898457808577) rotate(0 5.486252899938123 5.486252899938108)"><path d="M2 0.41 C2 0.41, 2 0.41, 2 0.41 M2 0.41 C2 0.41, 2 0.41, 2 0.41 M1.08 7.57 C2.8 5.98, 4.25 4.51, 6.99 0.77 M1.08 7.57 C2.99 5.41, 4.91 3.21, 6.99 0.77 M3.45 10.95 C5.18 9.75, 6.48 7.52, 10.01 3.4 M3.45 10.95 C5.58 8.4, 7.91 5.44, 10.01 3.4 M3.44 11.29 C3.44 11.29, 3.44 11.29, 3.44 11.29 M3.44 11.29 C3.44 11.29, 3.44 11.29, 3.44 11.29 M7.57 9.58 C5.78 8.25, 3.96 6.71, 0.78 3.68 M7.57 9.58 C5.98 7.94, 4.15 6.56, 0.78 3.68 M10.95 7.22 C8.98 4.91, 6.98 2.98, 3.4 0.66 M10.95 7.22 C8.93 5.14, 6.57 3.14, 3.4 0.66" stroke="#15aabf" stroke-width="0.5" fill="none"></path><path d="M5.9 0.24 C6.91 0.05, 7.85 0.09, 8.74 0.87 C9.64 1.64, 10.99 3.68, 11.27 4.87 C11.56 6.07, 11.14 7.15, 10.46 8.04 C9.77 8.93, 8.4 9.7, 7.19 10.2 C5.97 10.7, 4.15 11.3, 3.15 11.04 C2.15 10.78, 1.63 9.74, 1.17 8.64 C0.71 7.55, 0.31 5.77, 0.4 4.46 C0.48 3.15, 0.81 1.53, 1.68 0.78 C2.56 0.02, 4.94 0, 5.67 -0.08 C6.39 -0.16, 6.02 0.26, 6.02 0.3 M6.65 -0.63 C7.78 -0.7, 8.33 0.17, 9.05 1.06 C9.78 1.95, 10.92 3.36, 11.01 4.73 C11.11 6.1, 10.37 8.38, 9.61 9.28 C8.86 10.18, 7.56 9.92, 6.48 10.12 C5.41 10.31, 4.18 10.76, 3.14 10.45 C2.11 10.14, 0.82 9.38, 0.3 8.26 C-0.22 7.15, -0.29 5.09, 0.04 3.77 C0.36 2.44, 1.24 0.85, 2.23 0.32 C3.22 -0.21, 5.25 0.65, 5.98 0.59 C6.71 0.53, 6.69 -0.12, 6.62 -0.02" stroke="#000000" stroke-width="1" fill="none"></path></g><g stroke-linecap="round" transform="translate(125.78390927446875 160.03898457808577) rotate(0 5.48625289993813 5.486252899938108)"><path d="M0.25 2.87 C0.25 2.87, 0.25 2.87, 0.25 2.87 M0.25 2.87 C0.25 2.87, 0.25 2.87, 0.25 2.87 M1.3 7.76 C3.64 5.62, 5.83 2.47, 7.21 0.96 M1.3 7.76 C3.57 5.2, 5.46 2.53, 7.21 0.96 M3.66 11.14 C5.44 9.04, 6.89 7.58, 10.23 3.59 M3.66 11.14 C5.21 8.97, 7.09 7.12, 10.23 3.59 M2.87 10.41 C2.87 10.41, 2.87 10.41, 2.87 10.41 M2.87 10.41 C2.87 10.41, 2.87 10.41, 2.87 10.41 M7.76 9.36 C5.36 7.59, 3.32 6.12, 0.21 2.8 M7.76 9.36 C5.3 7.11, 2.91 5.12, 0.21 2.8 M10.39 6.34 C8.27 3.68, 5.44 1.57, 2.84 -0.22 M10.39 6.34 C7.57 3.63, 4.66 1.18, 2.84 -0.22" stroke="#15aabf" stroke-width="0.5" fill="none"></path><path d="M6.1 -0.39 C7.22 -0.26, 9.2 1.28, 10.05 2.22 C10.91 3.15, 11.3 4.17, 11.23 5.22 C11.15 6.27, 10.45 7.52, 9.59 8.53 C8.73 9.55, 7.13 10.95, 6.06 11.31 C5 11.68, 4.13 11.38, 3.23 10.72 C2.32 10.07, 1.18 8.64, 0.64 7.38 C0.1 6.12, -0.34 4.29, -0.01 3.17 C0.32 2.05, 1.49 1.13, 2.62 0.65 C3.75 0.18, 6.04 0.42, 6.75 0.3 C7.47 0.18, 6.9 -0.11, 6.9 -0.08 M5.24 -0.51 C6.24 -0.5, 8.22 0.12, 9.1 1.08 C9.97 2.04, 10.38 4.16, 10.49 5.25 C10.6 6.34, 10.29 6.7, 9.75 7.6 C9.21 8.49, 8.33 10.04, 7.27 10.61 C6.2 11.19, 4.46 11.5, 3.35 11.04 C2.24 10.58, 1.14 9.06, 0.59 7.86 C0.04 6.65, -0.21 4.81, 0.03 3.8 C0.27 2.8, 1.02 2.5, 2.05 1.84 C3.09 1.19, 5.7 0.04, 6.23 -0.15 C6.76 -0.34, 5.38 0.61, 5.22 0.71" stroke="#000000" stroke-width="1" fill="none"></path></g><g stroke-linecap="round" transform="translate(142.2426679742829 127.12146717845746) rotate(0 5.48625289993813 5.486252899938108)"><path d="M-0.02 3.96 C-0.02 3.96, -0.02 3.96, -0.02 3.96 M-0.02 3.96 C-0.02 3.96, -0.02 3.96, -0.02 3.96 M1.69 8.09 C3.76 5.63, 6 3.52, 7.6 1.3 M1.69 8.09 C3.26 5.85, 5.1 4.13, 7.6 1.3 M4.71 10.72 C7.08 8.17, 8.81 5.45, 10.61 3.93 M4.71 10.72 C6.76 8.32, 8.77 6.25, 10.61 3.93 M3.08 10.18 C3.08 10.18, 3.08 10.18, 3.08 10.18 M3.08 10.18 C3.08 10.18, 3.08 10.18, 3.08 10.18 M8.72 9.79 C6 8.03, 3.89 5.73, 1.17 3.23 M8.72 9.79 C7.08 8.33, 5.56 7.06, 1.17 3.23 M10.59 6.11 C9.13 4.43, 8.08 4, 3.8 0.21 M10.59 6.11 C9.06 4.6, 7.29 3.01, 3.8 0.21" stroke="#15aabf" stroke-width="0.5" fill="none"></path><path d="M6.53 0.31 C7.74 0.41, 9.03 0.75, 9.75 1.49 C10.48 2.23, 10.91 3.44, 10.86 4.73 C10.81 6.02, 10.09 8.11, 9.48 9.21 C8.87 10.31, 8.22 11.12, 7.19 11.31 C6.16 11.5, 4.48 11.06, 3.3 10.37 C2.12 9.68, 0.63 8.27, 0.1 7.17 C-0.42 6.08, -0.28 4.82, 0.13 3.79 C0.53 2.77, 1.48 1.73, 2.54 1.05 C3.59 0.37, 5.72 -0.14, 6.47 -0.3 C7.21 -0.46, 7.03 -0.17, 7.02 0.07 M4.39 -0.09 C5.44 -0.2, 6.68 0.85, 7.63 1.33 C8.58 1.8, 9.58 1.79, 10.08 2.75 C10.58 3.72, 10.95 5.82, 10.64 7.12 C10.32 8.42, 9.18 9.95, 8.18 10.53 C7.18 11.1, 5.75 10.91, 4.62 10.57 C3.48 10.22, 2.13 9.18, 1.37 8.47 C0.62 7.76, 0 7.36, 0.08 6.28 C0.16 5.2, 1.21 2.91, 1.87 1.98 C2.53 1.06, 3.66 1.03, 4.03 0.73 C4.4 0.42, 4.13 0.08, 4.1 0.16" stroke="#000000" stroke-width="1" fill="none"></path></g><g stroke-linecap="round" transform="translate(175.16018537391133 94.20394977882904) rotate(0 5.48625289993813 5.486252899938108)"><path d="M0.82 2.04 C0.82 2.04, 0.82 2.04, 0.82 2.04 M0.82 2.04 C0.82 2.04, 0.82 2.04, 0.82 2.04 M1.22 7.68 C4.18 4.74, 6.47 1.86, 7.78 0.14 M1.22 7.68 C2.91 5.77, 5.1 3.63, 7.78 0.14 M4.24 10.31 C5.38 8.44, 7.11 6.91, 10.14 3.51 M4.24 10.31 C5.53 8.98, 6.89 7.63, 10.14 3.51 M1.34 9.13 C1.34 9.13, 1.34 9.13, 1.34 9.13 M1.34 9.13 C1.34 9.13, 1.34 9.13, 1.34 9.13 M7.74 9.39 C5.75 7.82, 3.2 5.7, 0.95 3.48 M7.74 9.39 C6.12 8, 4.17 6.61, 0.95 3.48 M11.12 7.02 C10.03 6.14, 7.79 4.67, 3.57 0.46 M11.12 7.02 C9.38 5.28, 7.23 3.86, 3.57 0.46" stroke="#15aabf" stroke-width="0.5" fill="none"></path><path d="M4.47 -0.1 C5.47 -0.55, 6.9 -0.53, 7.84 0.11 C8.78 0.75, 9.57 2.5, 10.13 3.73 C10.7 4.97, 11.44 6.48, 11.22 7.54 C10.99 8.59, 9.92 9.58, 8.8 10.07 C7.69 10.56, 5.76 10.63, 4.52 10.48 C3.28 10.33, 2.13 9.92, 1.39 9.17 C0.64 8.41, 0.11 7.2, 0.05 5.97 C-0.01 4.74, 0.28 2.82, 1.02 1.81 C1.77 0.8, 3.93 0.08, 4.52 -0.11 C5.1 -0.29, 4.62 0.6, 4.54 0.69 M4.16 0.78 C5.16 0.45, 6.71 -0.37, 7.78 0.1 C8.85 0.57, 10.14 2.32, 10.58 3.61 C11.01 4.89, 10.81 6.75, 10.39 7.8 C9.97 8.85, 9.06 9.5, 8.07 9.9 C7.08 10.29, 5.57 10.23, 4.45 10.17 C3.32 10.12, 1.96 10.37, 1.34 9.56 C0.72 8.75, 0.78 6.48, 0.72 5.31 C0.67 4.13, 0.42 3.42, 1.02 2.54 C1.62 1.65, 3.83 0.3, 4.33 0.01 C4.83 -0.29, 3.85 0.59, 4.02 0.75" stroke="#000000" stroke-width="1" fill="none"></path></g><g stroke-linecap="round" transform="translate(208.0777027735397 77.74519107901483) rotate(0 5.48625289993813 5.486252899938108)"><path d="M0.49 3.08 C0.49 3.08, 0.49 3.08, 0.49 3.08 M0.49 3.08 C0.49 3.08, 0.49 3.08, 0.49 3.08 M0.89 8.72 C2.65 6.87, 4.31 4.17, 7.45 1.18 M0.89 8.72 C2.49 7.23, 3.55 5.59, 7.45 1.18 M4.56 10.59 C6.41 8.43, 7.5 6.87, 10.47 3.8 M4.56 10.59 C6.15 9.11, 7.24 7.44, 10.47 3.8 M2.93 10.35 C2.93 10.35, 2.93 10.35, 2.93 10.35 M2.93 10.35 C2.93 10.35, 2.93 10.35, 2.93 10.35 M7.82 9.3 C4.54 6.75, 1.87 4.31, 0.27 2.73 M7.82 9.3 C5.44 7.62, 3.26 5.57, 0.27 2.73 M11.2 6.93 C9.14 5.84, 7.36 4.43, 2.9 -0.28 M11.2 6.93 C8.62 4.9, 6.21 2.68, 2.9 -0.28" stroke="#15aabf" stroke-width="0.5" fill="none"></path><path d="M6.11 -0.42 C7.12 -0.23, 8.26 1.19, 9.15 2.21 C10.04 3.24, 11.28 4.63, 11.44 5.74 C11.6 6.84, 10.98 8.06, 10.13 8.84 C9.28 9.61, 7.54 10.15, 6.33 10.39 C5.11 10.62, 3.81 10.7, 2.83 10.26 C1.85 9.82, 0.89 8.88, 0.45 7.74 C0.01 6.6, -0.18 4.61, 0.19 3.42 C0.57 2.24, 1.67 1.1, 2.7 0.63 C3.74 0.15, 5.84 0.67, 6.41 0.57 C6.98 0.48, 6.21 0.02, 6.13 0.04 M4.61 -0.64 C5.77 -0.91, 7.63 0.14, 8.62 1 C9.61 1.87, 10.29 3.46, 10.57 4.55 C10.84 5.63, 10.77 6.65, 10.29 7.52 C9.81 8.39, 8.71 9.14, 7.68 9.78 C6.64 10.42, 5.07 11.57, 4.07 11.34 C3.07 11.11, 2.39 9.39, 1.67 8.42 C0.95 7.45, -0.21 6.69, -0.26 5.53 C-0.3 4.37, 0.63 2.31, 1.42 1.48 C2.22 0.66, 3.8 0.75, 4.53 0.58 C5.26 0.42, 5.72 0.53, 5.8 0.49" stroke="#000000" stroke-width="1" fill="none"></path></g><g stroke-linecap="round" transform="translate(224.5364614733539 28.368914979572196) rotate(0 5.486252899938128 5.486252899938108)"><path d="M1.3 2.45 C1.3 2.45, 1.3 2.45, 1.3 2.45 M1.3 2.45 C1.3 2.45, 1.3 2.45, 1.3 2.45 M1.04 8.85 C2.99 6.01, 4.71 3.76, 7.6 1.3 M1.04 8.85 C3.26 6.17, 5.82 3.14, 7.6 1.3 M4.71 10.72 C5.77 9.09, 7.43 7.39, 11.27 3.17 M4.71 10.72 C6.74 8.27, 9.13 5.44, 11.27 3.17 M0.82 8.2 C0.82 8.2, 0.82 8.2, 0.82 8.2 M0.82 8.2 C0.82 8.2, 0.82 8.2, 0.82 8.2 M8.73 9.77 C5.87 7.42, 3.43 5.34, 1.18 3.21 M8.73 9.77 C5.95 7.58, 3.41 5.57, 1.18 3.21 M10.6 6.1 C8.01 4.42, 5.8 2.26, 4.56 0.85 M10.6 6.1 C9.04 4.81, 7.48 3.39, 4.56 0.85" stroke="#15aabf" stroke-width="0.5" fill="none"></path><path d="M4.41 0.47 C5.6 0.42, 7.83 0.79, 8.93 1.35 C10.03 1.92, 10.81 2.89, 11.03 3.86 C11.24 4.83, 10.74 6.08, 10.21 7.15 C9.69 8.22, 8.87 9.64, 7.89 10.28 C6.9 10.92, 5.45 11.31, 4.31 11 C3.17 10.69, 1.75 9.4, 1.05 8.4 C0.36 7.4, 0.09 6.02, 0.16 5 C0.23 3.97, 0.71 3.12, 1.47 2.26 C2.22 1.4, 4.09 0.18, 4.7 -0.17 C5.31 -0.52, 5.07 0.08, 5.13 0.16 M6.67 0.11 C7.82 0.48, 8.95 1.72, 9.65 2.61 C10.34 3.5, 10.87 4.46, 10.83 5.45 C10.79 6.44, 10.19 7.53, 9.42 8.54 C8.65 9.55, 7.24 11.28, 6.2 11.51 C5.16 11.74, 4.24 10.56, 3.2 9.92 C2.15 9.28, 0.45 8.77, -0.05 7.66 C-0.55 6.55, -0.21 4.33, 0.21 3.24 C0.63 2.16, 1.25 1.6, 2.46 1.15 C3.67 0.7, 6.77 0.7, 7.46 0.52 C8.15 0.34, 6.81 -0.04, 6.63 0.07" stroke="#000000" stroke-width="1" fill="none"></path></g><g stroke-linecap="round" transform="translate(257.4539788729823 44.82767367938641) rotate(0 5.486252899938128 5.486252899938108)"><path d="M0.72 1.95 C0.72 1.95, 0.72 1.95, 0.72 1.95 M0.72 1.95 C0.72 1.95, 0.72 1.95, 0.72 1.95 M1.12 7.6 C2.55 5.3, 4.94 3.81, 6.37 1.56 M1.12 7.6 C2.99 5.32, 4.79 3.3, 6.37 1.56 M4.14 10.22 C5.44 8.54, 7.51 6.99, 10.7 2.67 M4.14 10.22 C6.61 7.26, 8.9 4.75, 10.7 2.67 M1.52 8.92 C1.52 8.92, 1.52 8.92, 1.52 8.92 M1.52 8.92 C1.52 8.92, 1.52 8.92, 1.52 8.92 M8.68 9.84 C6.28 7.96, 4.24 5.29, 0.37 2.62 M8.68 9.84 C5.36 7.39, 2.76 4.3, 0.37 2.62 M11.3 6.82 C8.79 5.02, 6.09 2.39, 4.51 0.91 M11.3 6.82 C8.97 4.79, 6.36 2.35, 4.51 0.91" stroke="#15aabf" stroke-width="0.5" fill="none"></path><path d="M4.69 0.63 C5.87 0.23, 7.33 0.21, 8.24 0.58 C9.16 0.95, 9.79 1.79, 10.19 2.85 C10.59 3.91, 10.91 5.73, 10.63 6.96 C10.36 8.19, 9.52 9.63, 8.55 10.23 C7.57 10.82, 5.94 10.73, 4.79 10.53 C3.64 10.34, 2.45 9.74, 1.65 9.03 C0.86 8.33, 0.18 7.48, 0.02 6.31 C-0.15 5.14, -0.02 3.06, 0.65 2.04 C1.32 1.01, 3.41 0.51, 4.03 0.16 C4.66 -0.19, 4.25 -0.11, 4.4 -0.08 M4.07 0.53 C5.13 0.17, 6.82 -0.09, 7.89 0.27 C8.96 0.63, 10.02 1.44, 10.5 2.68 C10.98 3.93, 11.02 6.5, 10.79 7.72 C10.57 8.93, 10.2 9.33, 9.15 9.97 C8.1 10.6, 5.81 11.67, 4.48 11.52 C3.15 11.38, 2.04 9.99, 1.2 9.12 C0.36 8.24, -0.66 7.39, -0.56 6.29 C-0.45 5.18, 1.05 3.57, 1.85 2.51 C2.64 1.45, 3.84 0.24, 4.21 -0.06 C4.58 -0.35, 3.97 0.51, 4.05 0.75" stroke="#000000" stroke-width="1" fill="none"></path></g><g stroke-linecap="round" transform="translate(290.37149627261067 94.20394977882904) rotate(0 5.48625289993813 5.486252899938108)"><path d="M0.28 2.89 C0.28 2.89, 0.28 2.89, 0.28 2.89 M0.28 2.89 C0.28 2.89, 0.28 2.89, 0.28 2.89 M0.67 8.53 C2.4 7.34, 3.71 5.1, 7.23 0.99 M0.67 8.53 C2.81 5.99, 5.13 3.02, 7.23 0.99 M4.35 10.4 C6.42 8.59, 8.45 5.77, 10.25 3.61 M4.35 10.4 C6.3 8.17, 8.68 5.79, 10.25 3.61 M3.06 10.2 C3.06 10.2, 3.06 10.2, 3.06 10.2 M3.06 10.2 C3.06 10.2, 3.06 10.2, 3.06 10.2 M8.7 9.81 C6.54 7.27, 4.34 5.14, 0.4 2.59 M8.7 9.81 C6.48 7.52, 3.88 5.32, 0.4 2.59 M10.57 6.13 C7.72 3.76, 5.44 1.58, 3.78 0.23 M10.57 6.13 C8.17 3.88, 5.79 2.15, 3.78 0.23" stroke="#15aabf" stroke-width="0.5" fill="none"></path><path d="M6.94 0.12 C7.91 0.13, 8.83 0.75, 9.48 1.66 C10.14 2.58, 10.84 4.33, 10.86 5.6 C10.88 6.88, 10.37 8.51, 9.59 9.33 C8.81 10.15, 7.32 10.42, 6.17 10.52 C5.03 10.62, 3.7 10.38, 2.72 9.91 C1.74 9.43, 0.73 8.78, 0.27 7.67 C-0.19 6.55, -0.41 4.4, -0.03 3.24 C0.36 2.07, 1.48 1.24, 2.59 0.68 C3.69 0.12, 5.82 0, 6.6 -0.12 C7.38 -0.24, 7.36 -0.17, 7.29 -0.04 M5.29 -0.36 C6.44 -0.62, 7.96 -0.37, 8.91 0.53 C9.85 1.44, 10.61 3.8, 10.96 5.05 C11.3 6.3, 11.63 7, 10.99 8.03 C10.36 9.06, 8.4 10.79, 7.14 11.22 C5.88 11.65, 4.58 10.99, 3.43 10.59 C2.27 10.2, 0.65 9.79, 0.21 8.85 C-0.24 7.91, 0.51 6.25, 0.78 4.96 C1.05 3.68, 1.09 1.88, 1.81 1.14 C2.54 0.4, 4.5 0.57, 5.15 0.51 C5.8 0.46, 5.56 0.85, 5.69 0.8" stroke="#000000" stroke-width="1" fill="none"></path></g><g stroke-linecap="round" transform="translate(323.2890136722391 77.74519107901483) rotate(0 5.48625289993813 5.486252899938108)"><path d="M0.41 3 C0.41 3, 0.41 3, 0.41 3 M0.41 3 C0.41 3, 0.41 3, 0.41 3 M0.8 8.65 C2.75 6.34, 4.35 4.73, 8.02 0.34 M0.8 8.65 C2.51 6.27, 4.56 4.23, 8.02 0.34 M3.82 11.27 C6.32 8.44, 8.37 6.3, 10.38 3.72 M3.82 11.27 C5.64 9.58, 6.94 7.5, 10.38 3.72 M2.62 10.7 C2.62 10.7, 2.62 10.7, 2.62 10.7 M2.62 10.7 C2.62 10.7, 2.62 10.7, 2.62 10.7 M7.51 9.65 C5.39 6.99, 2.56 4.87, -0.03 3.09 M7.51 9.65 C4.7 6.94, 1.79 4.48, -0.03 3.09 M10.14 6.63 C7.56 4.26, 4.61 1.9, 2.59 0.07 M10.14 6.63 C7.53 4.49, 5.12 2.23, 2.59 0.07" stroke="#15aabf" stroke-width="0.5" fill="none"></path><path d="M6.45 -0.3 C7.49 -0.12, 9.04 1.1, 9.8 2.15 C10.55 3.2, 11.07 4.88, 11 6 C10.93 7.12, 10.18 8.09, 9.39 8.88 C8.6 9.66, 7.4 10.44, 6.24 10.71 C5.08 10.99, 3.52 11.19, 2.45 10.55 C1.37 9.9, 0.18 8.05, -0.21 6.85 C-0.6 5.64, -0.39 4.42, 0.13 3.33 C0.64 2.24, 1.65 0.86, 2.91 0.3 C4.17 -0.26, 6.97 -0.07, 7.68 -0.04 C8.39 -0.01, 7.27 0.37, 7.16 0.49 M6.17 -0.66 C7.32 -0.42, 8.7 1.41, 9.62 2.37 C10.54 3.33, 11.71 3.94, 11.69 5.12 C11.68 6.3, 10.42 8.5, 9.54 9.44 C8.66 10.39, 7.61 10.53, 6.41 10.78 C5.22 11.02, 3.26 11.38, 2.37 10.91 C1.49 10.44, 1.49 9.15, 1.12 7.93 C0.75 6.72, -0.03 4.73, 0.16 3.63 C0.36 2.54, 1.23 1.84, 2.28 1.36 C3.34 0.88, 5.75 0.99, 6.48 0.74 C7.22 0.49, 6.78 -0.03, 6.67 -0.13" stroke="#000000" stroke-width="1" fill="none"></path></g><g stroke-linecap="round" transform="translate(339.7477723720533 44.82767367938641) rotate(0 5.48625289993813 5.486252899938108)"><path d="M2.51 0.86 C2.51 0.86, 2.51 0.86, 2.51 0.86 M2.51 0.86 C2.51 0.86, 2.51 0.86, 2.51 0.86 M0.94 8.77 C3.58 5.94, 5.5 2.92, 7.5 1.22 M0.94 8.77 C3.22 6.1, 5.45 3.81, 7.5 1.22 M4.62 10.64 C7.07 8.09, 8.82 5.26, 10.52 3.85 M4.62 10.64 C6.63 8.1, 8.86 5.58, 10.52 3.85 M0.6 8.45 C0.6 8.45, 0.6 8.45, 0.6 8.45 M0.6 8.45 C0.6 8.45, 0.6 8.45, 0.6 8.45 M8.51 10.03 C6.89 8.16, 5.72 7.68, 0.96 3.47 M8.51 10.03 C6.81 8.35, 4.85 6.59, 0.96 3.47 M10.38 6.35 C8.62 4.93, 6.62 2.93, 3.59 0.45 M10.38 6.35 C9.12 5.27, 7.72 3.94, 3.59 0.45" stroke="#15aabf" stroke-width="0.5" fill="none"></path><path d="M5.37 -0.09 C6.55 -0.06, 8.14 0.74, 9.05 1.44 C9.96 2.15, 10.6 3.04, 10.83 4.13 C11.05 5.22, 10.97 6.84, 10.39 8 C9.82 9.17, 8.57 10.73, 7.37 11.14 C6.17 11.55, 4.34 10.94, 3.18 10.46 C2.02 9.98, 0.94 9.31, 0.4 8.28 C-0.14 7.24, -0.4 5.48, -0.06 4.27 C0.27 3.05, 1.51 1.68, 2.42 0.97 C3.34 0.25, 4.81 0.12, 5.45 -0.04 C6.08 -0.2, 6.13 -0.08, 6.24 0.01 M4.91 0.61 C6.14 0.5, 8.29 0.1, 9.21 0.75 C10.14 1.39, 10.28 3.36, 10.45 4.5 C10.63 5.64, 10.8 6.5, 10.29 7.58 C9.78 8.65, 8.29 10.35, 7.4 10.95 C6.51 11.55, 6.01 11.59, 4.94 11.2 C3.87 10.8, 1.86 9.51, 1 8.59 C0.13 7.67, -0.39 6.72, -0.27 5.69 C-0.14 4.67, 0.82 3.42, 1.75 2.42 C2.68 1.43, 4.84 0.2, 5.3 -0.25 C5.76 -0.71, 4.49 -0.5, 4.52 -0.31" stroke="#000000" stroke-width="1" fill="none"></path></g><g stroke-linecap="round" transform="translate(372.6652897716816 77.74519107901483) rotate(0 5.486252899938123 5.486252899938108)"><path d="M0.78 2.01 C0.78 2.01, 0.78 2.01, 0.78 2.01 M0.78 2.01 C0.78 2.01, 0.78 2.01, 0.78 2.01 M1.18 7.65 C2.32 5.78, 4.05 4.25, 7.08 0.86 M1.18 7.65 C2.48 6.32, 3.84 4.97, 7.08 0.86 M4.2 10.27 C5.44 8.23, 7.56 7.11, 10.76 2.73 M4.2 10.27 C6.62 7.37, 9.21 4.45, 10.76 2.73 M1.42 9.04 C1.42 9.04, 1.42 9.04, 1.42 9.04 M1.42 9.04 C1.42 9.04, 1.42 9.04, 1.42 9.04 M8.57 9.96 C7.49 9.07, 5.24 7.6, 1.02 3.4 M8.57 9.96 C6.83 8.21, 4.69 6.79, 1.02 3.4 M11.19 6.94 C8.92 4.79, 5.77 2.64, 3.65 0.38 M11.19 6.94 C8.66 4.65, 5.58 2.25, 3.65 0.38" stroke="#15aabf" stroke-width="0.5" fill="none"></path><path d="M4.28 0.31 C5.36 -0.07, 6.84 -0.28, 7.9 0.19 C8.97 0.66, 10.21 1.88, 10.69 3.11 C11.16 4.34, 11.18 6.45, 10.74 7.58 C10.3 8.71, 9.1 9.33, 8.05 9.9 C7.01 10.47, 5.61 11.13, 4.49 10.98 C3.37 10.82, 2 9.89, 1.33 8.97 C0.67 8.05, 0.58 6.6, 0.47 5.46 C0.36 4.33, 0.02 3.06, 0.66 2.14 C1.31 1.22, 3.66 0.29, 4.35 -0.05 C5.04 -0.39, 4.81 0, 4.8 0.11 M4.92 0 C5.93 -0.32, 6.75 0.64, 7.65 1.17 C8.54 1.71, 9.85 2.15, 10.28 3.22 C10.7 4.29, 10.36 6.41, 10.19 7.61 C10.01 8.81, 10.13 9.9, 9.23 10.43 C8.33 10.95, 6.1 10.86, 4.77 10.75 C3.44 10.65, 1.99 10.49, 1.24 9.78 C0.49 9.08, 0.22 7.83, 0.27 6.52 C0.32 5.21, 0.94 3.07, 1.54 1.94 C2.14 0.8, 3.33 -0.08, 3.87 -0.31 C4.42 -0.54, 4.69 0.36, 4.81 0.56" stroke="#000000" stroke-width="1" fill="none"></path></g><g stroke-linecap="round" transform="translate(405.58280717131004 61.28643237920062) rotate(0 5.486252899938123 5.486252899938108)"><path d="M1.64 1.42 C1.64 1.42, 1.64 1.42, 1.64 1.42 M1.64 1.42 C1.64 1.42, 1.64 1.42, 1.64 1.42 M1.37 7.82 C3.43 5.41, 4.64 3.68, 7.93 0.27 M1.37 7.82 C3.13 6.18, 4.34 4.32, 7.93 0.27 M4.39 10.44 C6.48 8.74, 8.3 6.13, 10.3 3.65 M4.39 10.44 C6.17 8.34, 7.83 6.4, 10.3 3.65 M3.96 10.68 C3.96 10.68, 3.96 10.68, 3.96 10.68 M3.96 10.68 C3.96 10.68, 3.96 10.68, 3.96 10.68 M8.1 8.98 C6.23 7.99, 4.61 6.71, 0.55 2.42 M8.1 8.98 C5.75 7.13, 3.56 5.11, 0.55 2.42 M10.72 5.96 C7.85 3.83, 6.08 2.04, 3.93 0.05 M10.72 5.96 C8.12 3.87, 5.8 1.79, 3.93 0.05" stroke="#15aabf" stroke-width="0.5" fill="none"></path><path d="M5.18 -0.4 C6.31 -0.58, 8.03 0.04, 8.98 0.91 C9.92 1.77, 10.69 3.64, 10.85 4.79 C11.01 5.95, 10.52 6.87, 9.92 7.84 C9.32 8.8, 8.29 10.16, 7.25 10.6 C6.21 11.04, 4.68 10.86, 3.69 10.45 C2.71 10.04, 2.01 9.07, 1.33 8.12 C0.65 7.16, -0.46 5.86, -0.39 4.72 C-0.32 3.58, 0.75 2.09, 1.76 1.28 C2.76 0.48, 5.06 0.11, 5.65 -0.09 C6.24 -0.29, 5.4 -0.04, 5.28 0.07 M6.25 0.7 C7.2 0.86, 8.81 1.05, 9.51 1.96 C10.2 2.87, 10.27 4.9, 10.41 6.14 C10.55 7.39, 11.03 8.69, 10.34 9.45 C9.64 10.21, 7.57 10.51, 6.25 10.72 C4.93 10.93, 3.34 11.16, 2.39 10.71 C1.44 10.25, 0.82 9.21, 0.56 7.97 C0.3 6.72, 0.51 4.52, 0.83 3.23 C1.15 1.94, 1.45 0.7, 2.49 0.23 C3.54 -0.24, 6.4 0.37, 7.12 0.4 C7.83 0.43, 6.79 0.35, 6.8 0.41" stroke="#000000" stroke-width="1" fill="none"></path></g><g stroke-linecap="round" transform="translate(438.50032457093846 28.368914979572196) rotate(0 5.486252899938123 5.486252899938108)"><path d="M2.58 0.92 C2.58 0.92, 2.58 0.92, 2.58 0.92 M2.58 0.92 C2.58 0.92, 2.58 0.92, 2.58 0.92 M1.01 8.83 C2.07 7.19, 3.73 5.49, 7.57 1.28 M1.01 8.83 C3.04 6.38, 5.43 3.55, 7.57 1.28 M4.68 10.7 C6.43 8.78, 7.48 7.28, 10.59 3.9 M4.68 10.7 C6.29 8.75, 8.05 7.07, 10.59 3.9 M-0.04 7.67 C-0.04 7.67, -0.04 7.67, -0.04 7.67 M-0.04 7.67 C-0.04 7.67, -0.04 7.67, -0.04 7.67 M7.87 9.24 C4.96 7.35, 2.47 4.92, 1.07 3.34 M7.87 9.24 C6.11 7.79, 4.36 6.19, 1.07 3.34 M10.49 6.22 C8.78 4.81, 6.76 3.12, 3.7 0.32 M10.49 6.22 C8.33 4.41, 5.85 2.55, 3.7 0.32" stroke="#15aabf" stroke-width="0.5" fill="none"></path><path d="M6.08 -0.21 C7.21 -0.04, 8.61 1.25, 9.35 2.08 C10.09 2.91, 10.47 3.7, 10.52 4.79 C10.57 5.89, 10.28 7.7, 9.66 8.65 C9.04 9.6, 7.79 10.26, 6.79 10.51 C5.79 10.76, 4.78 10.61, 3.66 10.15 C2.55 9.7, 0.68 8.82, 0.09 7.78 C-0.49 6.75, -0.26 5.08, 0.16 3.94 C0.57 2.79, 1.62 1.58, 2.58 0.92 C3.54 0.26, 5.36 0.12, 5.9 0 C6.45 -0.11, 5.77 0.05, 5.86 0.23 M4.97 -0.06 C6.04 -0.2, 7.14 0.9, 8.24 1.68 C9.33 2.46, 11.21 3.61, 11.54 4.63 C11.88 5.66, 10.97 6.74, 10.27 7.81 C9.57 8.88, 8.37 10.45, 7.34 11.06 C6.32 11.66, 5.13 11.9, 4.13 11.42 C3.13 10.94, 2.08 9.35, 1.34 8.17 C0.61 6.99, -0.45 5.41, -0.29 4.35 C-0.12 3.28, 1.38 2.45, 2.34 1.76 C3.31 1.07, 4.9 0.47, 5.5 0.21 C6.11 -0.04, 6.04 0.09, 5.96 0.24" stroke="#000000" stroke-width="1" fill="none"></path></g><g stroke-linecap="round"><g transform="translate(36.26654945714594 136.17378446335522) rotate(0 203.67713891020068 -36.8036132037513)"><path d="M0.39 -0.15 C5.29 2.26, 18.93 9.48, 29.21 14.54 C39.5 19.6, 50.84 27.83, 62.1 30.19 C73.35 32.55, 88.5 34.54, 96.75 28.69 C104.99 22.83, 103.45 6.16, 111.58 -4.92 C119.7 -16.01, 134.48 -30.08, 145.5 -37.84 C156.51 -45.6, 169.73 -40.3, 177.66 -51.46 C185.59 -62.62, 185.07 -99.07, 193.08 -104.82 C201.09 -110.58, 214.77 -97.72, 225.73 -86 C236.69 -74.29, 247.66 -39.96, 258.84 -34.56 C270.03 -29.16, 284.49 -44.85, 292.84 -53.6 C301.2 -62.36, 300.68 -87.49, 308.97 -87.09 C317.25 -86.69, 331.22 -54.32, 342.56 -51.2 C353.89 -48.08, 366.24 -60.29, 376.97 -68.36 C387.69 -76.43, 401.9 -94.23, 406.9 -99.62 M-0.86 -1.28 C4.43 0.75, 21.1 7.14, 31.42 12.61 C41.74 18.08, 50.62 28.75, 61.05 31.52 C71.47 34.29, 85.21 35.33, 93.96 29.25 C102.71 23.17, 104.7 6.43, 113.54 -4.96 C122.37 -16.34, 136.23 -31.19, 146.97 -39.06 C157.7 -46.94, 169.9 -41.72, 177.96 -52.22 C186.02 -62.72, 187.03 -96.18, 195.31 -102.05 C203.6 -107.92, 216.97 -98.65, 227.65 -87.42 C238.33 -76.19, 248.51 -40.42, 259.41 -34.67 C270.31 -28.92, 285.03 -44.62, 293.05 -52.92 C301.06 -61.21, 299.21 -84.68, 307.51 -84.45 C315.81 -84.22, 331.29 -54.17, 342.85 -51.54 C354.41 -48.92, 366.18 -60.66, 376.87 -68.68 C387.56 -76.7, 401.84 -94.54, 406.99 -99.67" stroke="#0b7285" stroke-width="1" fill="none"></path></g></g><mask></mask></svg>