<svg version="1.1" xmlns="http://www.w3.org/2000/svg" viewBox="0 0 364.5 299.57335237929834" width="364.5" height="299.57335237929834">
  <!-- svg-source:excalidraw -->
  
  <defs>
    <style class="style-fonts">
      @font-face {
        font-family: "Virgil";
        src: url("https://excalidraw.com/Virgil.woff2");
      }
      @font-face {
        font-family: "Cascadia";
        src: url("https://excalidraw.com/Cascadia.woff2");
      }
      @font-face {
        font-family: "Assistant";
        src: url("https://excalidraw.com/Assistant-Regular.woff2");
      }
    </style>
    
  </defs>
  <rect x="0" y="0" width="364.5" height="299.57335237929834" fill="#ffffff"></rect><g stroke-linecap="round" transform="translate(137.9778490313107 10) rotate(0 41.506623041877916 41.46687653712888)"><path d="M0 0 C0 0, 0 0, 0 0 M0 0 C0 0, 0 0, 0 0 M0.13 12.04 C4.04 7.55, 7.94 3.06, 10.63 -0.03 M0.13 12.04 C3.66 7.98, 7.19 3.92, 10.63 -0.03 M0.27 24.08 C5.62 17.92, 10.97 11.77, 21.26 -0.07 M0.27 24.08 C7.68 15.55, 15.09 7.02, 21.26 -0.07 M-0.26 36.88 C6.8 28.76, 13.86 20.64, 31.89 -0.1 M-0.26 36.88 C10 25.08, 20.26 13.28, 31.89 -0.1 M-0.12 48.92 C13.41 33.35, 26.94 17.78, 42.52 -0.14 M-0.12 48.92 C15.11 31.4, 30.33 13.88, 42.52 -0.14 M0.01 60.96 C13.29 45.68, 26.58 30.4, 53.15 -0.17 M0.01 60.96 C18.12 40.12, 36.24 19.29, 53.15 -0.17 M0.14 73 C23.63 45.99, 47.11 18.97, 63.78 -0.21 M0.14 73 C18.83 51.5, 37.52 30, 63.78 -0.21 M1.59 83.53 C21.68 60.41, 41.78 37.3, 74.41 -0.24 M1.59 83.53 C29.92 50.94, 58.25 18.35, 74.41 -0.24 M12.22 83.5 C27.98 65.37, 43.74 47.24, 83.07 1.99 M12.22 83.5 C37.04 54.94, 61.87 26.38, 83.07 1.99 M22.85 83.46 C41.56 61.94, 60.26 40.42, 83.21 14.03 M22.85 83.46 C38 66.03, 53.16 48.59, 83.21 14.03 M33.48 83.43 C47.94 66.79, 62.41 50.15, 83.34 26.07 M33.48 83.43 C49.17 65.38, 64.86 47.33, 83.34 26.07 M44.11 83.39 C58.45 66.89, 72.8 50.39, 83.47 38.11 M44.11 83.39 C56.49 69.15, 68.87 54.91, 83.47 38.11 M54.74 83.36 C65.59 70.88, 76.43 58.4, 82.95 50.91 M54.74 83.36 C65.29 71.22, 75.85 59.08, 82.95 50.91 M65.37 83.32 C69.83 78.19, 74.29 73.06, 83.08 62.95 M65.37 83.32 C71.87 75.85, 78.36 68.37, 83.08 62.95 M76 83.29 C78.3 80.65, 80.59 78.01, 83.22 74.99 M76 83.29 C78.28 80.67, 80.56 78.04, 83.22 74.99 M-0.31 82.67 C-0.31 82.67, -0.31 82.67, -0.31 82.67 M-0.31 82.67 C-0.31 82.67, -0.31 82.67, -0.31 82.67 M12.49 83.19 C8.59 79.8, 4.69 76.41, -0.34 72.04 M12.49 83.19 C8.27 79.53, 4.06 75.87, -0.34 72.04 M24.53 83.05 C15.45 75.16, 6.37 67.27, 0.38 62.06 M24.53 83.05 C15.16 74.91, 5.79 66.76, 0.38 62.06 M36.57 82.92 C23.77 71.79, 10.96 60.66, 0.34 51.43 M36.57 82.92 C22.15 70.39, 7.73 57.85, 0.34 51.43 M48.61 82.79 C37.14 72.82, 25.67 62.84, 0.31 40.8 M48.61 82.79 C32.58 68.85, 16.55 54.92, 0.31 40.8 M60.65 82.66 C43.75 67.97, 26.86 53.28, 0.27 30.17 M60.65 82.66 C41.76 66.23, 22.86 49.81, 0.27 30.17 M73.45 83.18 C45.48 58.87, 17.51 34.55, 0.24 19.54 M73.45 83.18 C57.73 69.52, 42.02 55.86, 0.24 19.54 M83.22 81.08 C58.68 59.75, 34.14 38.41, 0.2 8.91 M83.22 81.08 C61.6 62.28, 39.98 43.48, 0.2 8.91 M83.19 70.45 C65.09 54.71, 46.98 38.98, 1.68 -0.41 M83.19 70.45 C64.95 54.59, 46.71 38.73, 1.68 -0.41 M83.15 59.82 C68.36 46.96, 53.56 34.1, 13.72 -0.54 M83.15 59.82 C67.32 46.05, 51.48 32.28, 13.72 -0.54 M83.12 49.19 C62.17 30.97, 41.22 12.76, 26.52 -0.02 M83.12 49.19 C63.49 32.12, 43.86 15.06, 26.52 -0.02 M83.08 38.56 C72.18 29.08, 61.28 19.6, 38.56 -0.15 M83.08 38.56 C74.03 30.69, 64.98 22.82, 38.56 -0.15 M83.05 27.93 C75.3 21.19, 67.56 14.46, 50.6 -0.28 M83.05 27.93 C71.01 17.46, 58.96 6.99, 50.6 -0.28 M83.02 17.3 C78.87 13.7, 74.73 10.09, 62.64 -0.42 M83.02 17.3 C75.4 10.68, 67.79 4.06, 62.64 -0.42 M83.74 7.32 C81.56 5.43, 79.38 3.54, 74.68 -0.55 M83.74 7.32 C81.16 5.08, 78.58 2.84, 74.68 -0.55" stroke="#ced4da" stroke-width="1" fill="none"></path><path d="M0 0 C23.1 0, 46.2 0, 83.01 0 M0 0 C21.75 0, 43.5 0, 83.01 0 M83.01 0 C83.01 31.19, 83.01 62.39, 83.01 82.93 M83.01 0 C83.01 27.93, 83.01 55.86, 83.01 82.93 M83.01 82.93 C62.43 82.93, 41.86 82.93, 0 82.93 M83.01 82.93 C50.38 82.93, 17.75 82.93, 0 82.93 M0 82.93 C0 58.46, 0 33.99, 0 0 M0 82.93 C0 65.97, 0 49.02, 0 0" stroke="#000000" stroke-width="2" fill="none"></path></g><g stroke-linecap="round" transform="translate(146.07725849001127 18.20617289355971) rotate(0 33.40721358317721 33.407213583177196)"><path d="M66.81 33.41 C66.81 35.15, 66.68 36.91, 66.4 38.63 C66.13 40.35, 65.72 42.07, 65.18 43.73 C64.64 45.39, 63.96 47.02, 63.17 48.57 C62.38 50.13, 61.46 51.63, 60.43 53.04 C59.41 54.45, 58.26 55.8, 57.03 57.03 C55.8 58.26, 54.45 59.41, 53.04 60.43 C51.63 61.46, 50.13 62.38, 48.57 63.17 C47.02 63.96, 45.39 64.64, 43.73 65.18 C42.07 65.72, 40.35 66.13, 38.63 66.4 C36.91 66.68, 35.15 66.81, 33.41 66.81 C31.67 66.81, 29.9 66.68, 28.18 66.4 C26.46 66.13, 24.74 65.72, 23.08 65.18 C21.43 64.64, 19.79 63.96, 18.24 63.17 C16.69 62.38, 15.18 61.46, 13.77 60.43 C12.36 59.41, 11.02 58.26, 9.78 57.03 C8.55 55.8, 7.4 54.45, 6.38 53.04 C5.36 51.63, 4.43 50.13, 3.64 48.57 C2.85 47.02, 2.17 45.39, 1.64 43.73 C1.1 42.07, 0.68 40.35, 0.41 38.63 C0.14 36.91, 0 35.15, 0 33.41 C0 31.67, 0.14 29.9, 0.41 28.18 C0.68 26.46, 1.1 24.74, 1.64 23.08 C2.17 21.43, 2.85 19.79, 3.64 18.24 C4.43 16.69, 5.36 15.18, 6.38 13.77 C7.4 12.36, 8.55 11.02, 9.78 9.78 C11.02 8.55, 12.36 7.4, 13.77 6.38 C15.18 5.36, 16.69 4.43, 18.24 3.64 C19.79 2.85, 21.43 2.17, 23.08 1.64 C24.74 1.1, 26.46 0.68, 28.18 0.41 C29.9 0.14, 31.67 0, 33.41 0 C35.15 0, 36.91 0.14, 38.63 0.41 C40.35 0.68, 42.07 1.1, 43.73 1.64 C45.39 2.17, 47.02 2.85, 48.57 3.64 C50.13 4.43, 51.63 5.36, 53.04 6.38 C54.45 7.4, 55.8 8.55, 57.03 9.78 C58.26 11.02, 59.41 12.36, 60.43 13.77 C61.46 15.18, 62.38 16.69, 63.17 18.24 C63.96 19.79, 64.64 21.43, 65.18 23.08 C65.72 24.74, 66.13 26.46, 66.4 28.18 C66.68 29.9, 66.75 32.54, 66.81 33.41 C66.88 34.28, 66.88 32.54, 66.81 33.41" stroke="none" stroke-width="0" fill="#868e96"></path><path d="M66.81 33.41 C66.81 35.15, 66.68 36.91, 66.4 38.63 C66.13 40.35, 65.72 42.07, 65.18 43.73 C64.64 45.39, 63.96 47.02, 63.17 48.57 C62.38 50.13, 61.46 51.63, 60.43 53.04 C59.41 54.45, 58.26 55.8, 57.03 57.03 C55.8 58.26, 54.45 59.41, 53.04 60.43 C51.63 61.46, 50.13 62.38, 48.57 63.17 C47.02 63.96, 45.39 64.64, 43.73 65.18 C42.07 65.72, 40.35 66.13, 38.63 66.4 C36.91 66.68, 35.15 66.81, 33.41 66.81 C31.67 66.81, 29.9 66.68, 28.18 66.4 C26.46 66.13, 24.74 65.72, 23.08 65.18 C21.43 64.64, 19.79 63.96, 18.24 63.17 C16.69 62.38, 15.18 61.46, 13.77 60.43 C12.36 59.41, 11.02 58.26, 9.78 57.03 C8.55 55.8, 7.4 54.45, 6.38 53.04 C5.36 51.63, 4.43 50.13, 3.64 48.57 C2.85 47.02, 2.17 45.39, 1.64 43.73 C1.1 42.07, 0.68 40.35, 0.41 38.63 C0.14 36.91, 0 35.15, 0 33.41 C0 31.67, 0.14 29.9, 0.41 28.18 C0.68 26.46, 1.1 24.74, 1.64 23.08 C2.17 21.43, 2.85 19.79, 3.64 18.24 C4.43 16.69, 5.36 15.18, 6.38 13.77 C7.4 12.36, 8.55 11.02, 9.78 9.78 C11.02 8.55, 12.36 7.4, 13.77 6.38 C15.18 5.36, 16.69 4.43, 18.24 3.64 C19.79 2.85, 21.43 2.17, 23.08 1.64 C24.74 1.1, 26.46 0.68, 28.18 0.41 C29.9 0.14, 31.67 0, 33.41 0 C35.15 0, 36.91 0.14, 38.63 0.41 C40.35 0.68, 42.07 1.1, 43.73 1.64 C45.39 2.17, 47.02 2.85, 48.57 3.64 C50.13 4.43, 51.63 5.36, 53.04 6.38 C54.45 7.4, 55.8 8.55, 57.03 9.78 C58.26 11.02, 59.41 12.36, 60.43 13.77 C61.46 15.18, 62.38 16.69, 63.17 18.24 C63.96 19.79, 64.64 21.43, 65.18 23.08 C65.72 24.74, 66.13 26.46, 66.4 28.18 C66.68 29.9, 66.75 32.54, 66.81 33.41 C66.88 34.28, 66.88 32.54, 66.81 33.41" stroke="#000000" stroke-width="1" fill="none"></path></g><g stroke-linecap="round"><g transform="translate(166.3572714045434 31.609688574007805) rotate(0 10.433501793724375 20.243579093835564)" fill-rule="evenodd"><path d="M0 0 C0.54 0.19, 2.34 0.56, 3.25 1.14 C4.15 1.72, 4.58 3.26, 5.44 3.49 C6.3 3.72, 6.54 2.66, 8.42 2.51 C10.31 2.37, 14.92 2.56, 16.74 2.62 C18.57 2.69, 18.57 3.1, 19.34 2.88 C20.11 2.66, 20.55 1.87, 21.35 1.28 C22.15 0.69, 23.55 -0.78, 24.14 -0.66 C24.73 -0.53, 24.79 1.13, 24.9 2.01 C25.02 2.88, 24.42 3.75, 24.83 4.59 C25.25 5.43, 26.77 5.47, 27.39 7.04 C28 8.62, 28.49 11.66, 28.53 14.05 C28.57 16.44, 28.22 19.69, 27.63 21.39 C27.05 23.09, 26.06 23.51, 25.03 24.24 C24.01 24.97, 22.72 25.37, 21.49 25.77 C20.26 26.16, 18.13 26.31, 17.67 26.61 C17.2 26.91, 18.32 27.05, 18.68 27.56 C19.04 28.07, 19.59 28.22, 19.82 29.67 C20.05 31.13, 20.02 34.52, 20.05 36.29 C20.09 38.06, 20.22 39.51, 20.01 40.29 C19.79 41.07, 20.54 40.84, 18.76 40.98 C16.98 41.13, 11.09 41.31, 9.32 41.14 C7.55 40.98, 8.4 40.97, 8.14 39.99 C7.89 39.01, 8.23 35.96, 7.81 35.28 C7.4 34.59, 6.6 35.74, 5.64 35.88 C4.67 36.02, 3.2 36.4, 2.04 36.11 C0.87 35.83, -0.42 35.07, -1.33 34.18 C-2.24 33.3, -2.74 31.72, -3.42 30.81 C-4.11 29.9, -4.75 29.32, -5.46 28.73 C-6.17 28.15, -7.79 27.47, -7.66 27.27 C-7.53 27.08, -5.52 27.24, -4.67 27.56 C-3.82 27.88, -3.31 28.54, -2.55 29.2 C-1.8 29.85, -1.04 30.86, -0.15 31.47 C0.73 32.09, 1.74 32.72, 2.77 32.89 C3.79 33.06, 5.2 32.77, 6 32.49 C6.81 32.21, 7.31 31.77, 7.6 31.23 C7.9 30.69, 7.59 29.87, 7.76 29.25 C7.92 28.64, 8.29 27.95, 8.62 27.53 C8.94 27.12, 10.25 27.07, 9.73 26.76 C9.22 26.45, 6.89 26.07, 5.51 25.67 C4.13 25.27, 2.49 25.06, 1.47 24.34 C0.46 23.62, 0.01 23.04, -0.59 21.34 C-1.19 19.64, -2.08 16.45, -2.13 14.12 C-2.18 11.78, -1.4 8.77, -0.91 7.32 C-0.41 5.88, 0.73 6.19, 0.86 5.46 C0.98 4.73, -0.01 3.84, -0.15 2.93 C-0.3 2.02, -0.03 0.49, 0 0" stroke="none" stroke-width="0" fill="#fff" fill-rule="evenodd"></path><path d="M0 0 C0.54 0.19, 2.34 0.56, 3.25 1.14 C4.15 1.72, 4.58 3.26, 5.44 3.49 C6.3 3.72, 6.54 2.66, 8.42 2.51 C10.31 2.37, 14.92 2.56, 16.74 2.62 C18.57 2.69, 18.57 3.1, 19.34 2.88 C20.11 2.66, 20.55 1.87, 21.35 1.28 C22.15 0.69, 23.55 -0.78, 24.14 -0.66 C24.73 -0.53, 24.79 1.13, 24.9 2.01 C25.02 2.88, 24.42 3.75, 24.83 4.59 C25.25 5.43, 26.77 5.47, 27.39 7.04 C28 8.62, 28.49 11.66, 28.53 14.05 C28.57 16.44, 28.22 19.69, 27.63 21.39 C27.05 23.09, 26.06 23.51, 25.03 24.24 C24.01 24.97, 22.72 25.37, 21.49 25.77 C20.26 26.16, 18.13 26.31, 17.67 26.61 C17.2 26.91, 18.32 27.05, 18.68 27.56 C19.04 28.07, 19.59 28.22, 19.82 29.67 C20.05 31.13, 20.02 34.52, 20.05 36.29 C20.09 38.06, 20.22 39.51, 20.01 40.29 C19.79 41.07, 20.54 40.84, 18.76 40.98 C16.98 41.13, 11.09 41.31, 9.32 41.14 C7.55 40.98, 8.4 40.97, 8.14 39.99 C7.89 39.01, 8.23 35.96, 7.81 35.28 C7.4 34.59, 6.6 35.74, 5.64 35.88 C4.67 36.02, 3.2 36.4, 2.04 36.11 C0.87 35.83, -0.42 35.07, -1.33 34.18 C-2.24 33.3, -2.74 31.72, -3.42 30.81 C-4.11 29.9, -4.75 29.32, -5.46 28.73 C-6.17 28.15, -7.79 27.47, -7.66 27.27 C-7.53 27.08, -5.52 27.24, -4.67 27.56 C-3.82 27.88, -3.31 28.54, -2.55 29.2 C-1.8 29.85, -1.04 30.86, -0.15 31.47 C0.73 32.09, 1.74 32.72, 2.77 32.89 C3.79 33.06, 5.2 32.77, 6 32.49 C6.81 32.21, 7.31 31.77, 7.6 31.23 C7.9 30.69, 7.59 29.87, 7.76 29.25 C7.92 28.64, 8.29 27.95, 8.62 27.53 C8.94 27.12, 10.25 27.07, 9.73 26.76 C9.22 26.45, 6.89 26.07, 5.51 25.67 C4.13 25.27, 2.49 25.06, 1.47 24.34 C0.46 23.62, 0.01 23.04, -0.59 21.34 C-1.19 19.64, -2.08 16.45, -2.13 14.12 C-2.18 11.78, -1.4 8.77, -0.91 7.32 C-0.41 5.88, 0.73 6.19, 0.86 5.46 C0.98 4.73, -0.01 3.84, -0.15 2.93 C-0.3 2.02, -0.03 0.49, 0 0 M0 0 C0.54 0.19, 2.34 0.56, 3.25 1.14 C4.15 1.72, 4.58 3.26, 5.44 3.49 C6.3 3.72, 6.54 2.66, 8.42 2.51 C10.31 2.37, 14.92 2.56, 16.74 2.62 C18.57 2.69, 18.57 3.1, 19.34 2.88 C20.11 2.66, 20.55 1.87, 21.35 1.28 C22.15 0.69, 23.55 -0.78, 24.14 -0.66 C24.73 -0.53, 24.79 1.13, 24.9 2.01 C25.02 2.88, 24.42 3.75, 24.83 4.59 C25.25 5.43, 26.77 5.47, 27.39 7.04 C28 8.62, 28.49 11.66, 28.53 14.05 C28.57 16.44, 28.22 19.69, 27.63 21.39 C27.05 23.09, 26.06 23.51, 25.03 24.24 C24.01 24.97, 22.72 25.37, 21.49 25.77 C20.26 26.16, 18.13 26.31, 17.67 26.61 C17.2 26.91, 18.32 27.05, 18.68 27.56 C19.04 28.07, 19.59 28.22, 19.82 29.67 C20.05 31.13, 20.02 34.52, 20.05 36.29 C20.09 38.06, 20.22 39.51, 20.01 40.29 C19.79 41.07, 20.54 40.84, 18.76 40.98 C16.98 41.13, 11.09 41.31, 9.32 41.14 C7.55 40.98, 8.4 40.97, 8.14 39.99 C7.89 39.01, 8.23 35.96, 7.81 35.28 C7.4 34.59, 6.6 35.74, 5.64 35.88 C4.67 36.02, 3.2 36.4, 2.04 36.11 C0.87 35.83, -0.42 35.07, -1.33 34.18 C-2.24 33.3, -2.74 31.72, -3.42 30.81 C-4.11 29.9, -4.75 29.32, -5.46 28.73 C-6.17 28.15, -7.79 27.47, -7.66 27.27 C-7.53 27.08, -5.52 27.24, -4.67 27.56 C-3.82 27.88, -3.31 28.54, -2.55 29.2 C-1.8 29.85, -1.04 30.86, -0.15 31.47 C0.73 32.09, 1.74 32.72, 2.77 32.89 C3.79 33.06, 5.2 32.77, 6 32.49 C6.81 32.21, 7.31 31.77, 7.6 31.23 C7.9 30.69, 7.59 29.87, 7.76 29.25 C7.92 28.64, 8.29 27.95, 8.62 27.53 C8.94 27.12, 10.25 27.07, 9.73 26.76 C9.22 26.45, 6.89 26.07, 5.51 25.67 C4.13 25.27, 2.49 25.06, 1.47 24.34 C0.46 23.62, 0.01 23.04, -0.59 21.34 C-1.19 19.64, -2.08 16.45, -2.13 14.12 C-2.18 11.78, -1.4 8.77, -0.91 7.32 C-0.41 5.88, 0.73 6.19, 0.86 5.46 C0.98 4.73, -0.01 3.84, -0.15 2.93 C-0.3 2.02, -0.03 0.49, 0 0" stroke="#000000" stroke-width="1" fill="none"></path></g></g><mask></mask><g transform="translate(137.63088431156666 100.14522174549813) rotate(0 41.2070848515865 16.097533754470305)"><text x="0" y="22.562303310265566" font-family="Virgil, Segoe UI Emoji" font-size="25.75605400715247px" fill="#000000" text-anchor="start" style="white-space: pre;" direction="ltr" dominant-baseline="alphabetic">GitHub</text></g><g stroke-linecap="round" transform="translate(10 158.99962444575732) rotate(0 172.25 65.28686396677051)"><path d="M7.86 8.16 C7.86 8.16, 7.86 8.16, 7.86 8.16 M7.86 8.16 C7.86 8.16, 7.86 8.16, 7.86 8.16 M3.66 19.09 C6.34 14.89, 9.44 11.84, 18.1 2.48 M3.66 19.09 C8.27 13.51, 13.46 7.23, 18.1 2.48 M2.75 26.24 C11.58 17.91, 18.56 6.4, 24.4 1.33 M2.75 26.24 C9.06 18.6, 15.61 9.73, 24.4 1.33 M2.48 32.64 C8.78 24.6, 12.72 20.06, 30.7 0.18 M2.48 32.64 C9.18 24.48, 15.44 17.22, 30.7 0.18 M2.88 38.28 C15.46 25.05, 25.77 12.55, 34.37 2.05 M2.88 38.28 C14.95 25.89, 24.46 12.26, 34.37 2.05 M2.62 44.68 C13.66 31.74, 22.79 23.13, 39.36 2.41 M2.62 44.68 C17.04 29.36, 31.17 12.54, 39.36 2.41 M2.36 51.07 C16.76 36.05, 28.41 22.68, 45 2.02 M2.36 51.07 C13.28 38.64, 23.94 25.87, 45 2.02 M2.75 56.72 C12.94 46.41, 22.21 33.39, 49.99 2.38 M2.75 56.72 C20.04 37.32, 37.73 16.82, 49.99 2.38 M2.49 63.11 C15.25 51.35, 24.57 35.16, 55.63 1.98 M2.49 63.11 C23.73 38.35, 43.86 15.5, 55.63 1.98 M2.88 68.76 C14.06 54.3, 29.1 40.79, 60.62 2.34 M2.88 68.76 C14.52 55.43, 26.85 40.47, 60.62 2.34 M2.62 75.16 C23.22 53.34, 41.95 31.27, 66.26 1.95 M2.62 75.16 C27.82 46.18, 51.26 17.27, 66.26 1.95 M2.36 81.55 C23.53 57.38, 43.53 37.57, 71.25 2.31 M2.36 81.55 C24.91 54.92, 46.83 29.2, 71.25 2.31 M2.76 87.2 C27.43 55.16, 52.72 28.31, 76.89 1.91 M2.76 87.2 C22.24 63.97, 41.47 40.89, 76.89 1.91 M2.49 93.59 C18.21 75.63, 35.01 57.34, 81.88 2.27 M2.49 93.59 C28.71 64.56, 54.76 35.6, 81.88 2.27 M2.89 99.24 C28.42 67.93, 58.82 36.39, 87.52 1.88 M2.89 99.24 C23.17 75.48, 42.77 51.87, 87.52 1.88 M1.32 107.14 C30.62 70.21, 62.6 34.12, 92.51 2.24 M1.32 107.14 C19.53 85.84, 40.13 61.62, 92.51 2.24 M3.02 111.28 C27.7 83.63, 46.66 59.08, 98.15 1.85 M3.02 111.28 C32.75 77.89, 61.32 42.81, 98.15 1.85 M4.73 115.41 C36.79 79.15, 66.28 43.42, 103.14 2.21 M4.73 115.41 C26.21 90.56, 48.52 65.78, 103.14 2.21 M6.44 119.55 C32.95 90.57, 56.56 57.52, 108.78 1.81 M6.44 119.55 C36.86 83.92, 67.43 48.64, 108.78 1.81 M9.45 122.17 C39.9 89.53, 69.68 53.38, 113.77 2.17 M9.45 122.17 C46.13 80.99, 82 38.92, 113.77 2.17 M11.82 125.55 C51.18 80.79, 92.98 34.12, 119.41 1.78 M11.82 125.55 C35.71 99.03, 57.17 72.93, 119.41 1.78 M14.84 128.17 C44.76 96.96, 72.69 64.69, 124.4 2.14 M14.84 128.17 C58.07 77.25, 102.87 28.49, 124.4 2.14 M19.17 129.29 C60.61 79.99, 103.44 28.65, 130.04 1.74 M19.17 129.29 C48.02 97.02, 76.23 63.12, 130.04 1.74 M23.5 130.4 C45.63 106.59, 67.58 80.79, 135.03 2.1 M23.5 130.4 C69.86 81.37, 112.15 29.37, 135.03 2.1 M28.49 130.76 C58.25 95.31, 90.41 59.2, 140.67 1.71 M28.49 130.76 C56.41 96.65, 85.24 62.93, 140.67 1.71 M32.82 131.88 C68.4 89.96, 106.15 48, 145.66 2.07 M32.82 131.88 C72.28 85.56, 112.65 39.52, 145.66 2.07 M38.46 131.48 C63.04 101.53, 90.06 76.11, 150.65 2.43 M38.46 131.48 C65 101.84, 89.67 72.74, 150.65 2.43 M43.45 131.84 C87.28 79.99, 134.66 26.81, 156.29 2.03 M43.45 131.84 C74.37 96.47, 106.52 58.24, 156.29 2.03 M49.09 131.45 C74.15 103.55, 96.68 73.32, 161.28 2.39 M49.09 131.45 C91.42 83, 133.31 35.13, 161.28 2.39 M54.08 131.81 C79.93 101.37, 103.06 73.18, 166.92 2 M54.08 131.81 C98.76 80.89, 142.91 30.16, 166.92 2 M59.72 131.41 C90.78 99.65, 120.05 62.71, 171.91 2.36 M59.72 131.41 C93.57 90.87, 126.61 52.88, 171.91 2.36 M64.71 131.77 C104.75 83.48, 148.02 32.21, 177.55 1.96 M64.71 131.77 C99.16 91.12, 131.8 51.86, 177.55 1.96 M70.35 131.38 C106.46 91.31, 144.29 47.39, 182.54 2.32 M70.35 131.38 C97.92 102.02, 123.86 71.12, 182.54 2.32 M75.34 131.74 C104.69 99.96, 131.4 69.09, 188.18 1.93 M75.34 131.74 C98.2 104.06, 123.79 74.69, 188.18 1.93 M80.98 131.35 C106.58 103.61, 130.98 75.86, 193.17 2.29 M80.98 131.35 C123.17 80.76, 167.62 30.74, 193.17 2.29 M85.97 131.71 C111.58 99.9, 136.75 70.57, 198.81 1.9 M85.97 131.71 C125.88 85.61, 164.87 38.92, 198.81 1.9 M91.61 131.31 C125.56 94.92, 157.99 56.47, 203.8 2.26 M91.61 131.31 C131.05 85.34, 172.13 37.98, 203.8 2.26 M96.6 131.67 C132.08 89.32, 165.33 48.32, 209.44 1.86 M96.6 131.67 C131.92 88.3, 167.03 47.42, 209.44 1.86 M102.24 131.28 C142.23 84.07, 184.31 39.49, 214.43 2.22 M102.24 131.28 C144.85 82.31, 186.54 33.98, 214.43 2.22 M107.23 131.64 C138.32 95.7, 169.26 61.38, 220.07 1.83 M107.23 131.64 C144.94 88.79, 182.85 45.25, 220.07 1.83 M112.87 131.24 C139.41 104.61, 160.93 77.88, 225.06 2.19 M112.87 131.24 C139.59 99.85, 166.8 67.13, 225.06 2.19 M117.86 131.6 C151.53 90.07, 186.96 52.46, 230.7 1.79 M117.86 131.6 C141.81 104.9, 166.08 78.55, 230.7 1.79 M123.5 131.21 C147.49 104.18, 173.72 73.28, 235.69 2.15 M123.5 131.21 C165.57 82.71, 207.52 34.94, 235.69 2.15 M128.49 131.57 C170.4 80.21, 215.68 26.96, 241.33 1.76 M128.49 131.57 C168.52 85.3, 209.23 40.49, 241.33 1.76 M134.13 131.17 C178.34 82.53, 221.13 31.05, 246.32 2.12 M134.13 131.17 C177.35 80.89, 221.78 31.41, 246.32 2.12 M139.12 131.53 C177.62 87.85, 214.17 46.19, 251.96 1.72 M139.12 131.53 C181.38 82.3, 224.89 33.64, 251.96 1.72 M144.1 131.89 C174.71 95.08, 207.82 55.62, 256.95 2.08 M144.1 131.89 C175.32 95.56, 207.54 59.87, 256.95 2.08 M149.75 131.5 C183.84 92.03, 214.21 52.84, 262.59 1.69 M149.75 131.5 C181.84 92.51, 215.92 55, 262.59 1.69 M154.73 131.86 C191.71 88.86, 228.03 48.44, 267.58 2.05 M154.73 131.86 C187.47 95.67, 218.29 58.31, 267.58 2.05 M160.38 131.46 C191.58 94.98, 220.72 58.99, 272.56 2.41 M160.38 131.46 C196.3 90.3, 234.49 47.61, 272.56 2.41 M165.36 131.82 C191.85 97.56, 220.53 62.49, 278.21 2.01 M165.36 131.82 C209.66 80.58, 255.53 30.14, 278.21 2.01 M171.01 131.43 C202.44 97.28, 234.28 62.41, 283.19 2.37 M171.01 131.43 C203.5 95.5, 234.63 61.09, 283.19 2.37 M175.99 131.79 C212.17 94.98, 243.52 55.22, 288.84 1.98 M175.99 131.79 C202.21 102.3, 227.86 71.69, 288.84 1.98 M181.64 131.39 C212.36 98.91, 241.23 64.92, 293.82 2.34 M181.64 131.39 C223.12 84.87, 263.69 39.03, 293.82 2.34 M186.62 131.75 C215.58 100.09, 239.94 69.19, 299.47 1.94 M186.62 131.75 C210.89 105.53, 235.59 78.11, 299.47 1.94 M192.27 131.36 C218.6 99.13, 245.41 71.38, 304.45 2.3 M192.27 131.36 C236.17 80.85, 279.62 30.03, 304.45 2.3 M197.25 131.72 C223.33 100.95, 252.2 68.13, 310.1 1.91 M197.25 131.72 C235.36 88.37, 273.8 43.89, 310.1 1.91 M202.9 131.33 C243.69 83.87, 286.42 35.54, 315.08 2.27 M202.9 131.33 C246.09 83.8, 287.27 34.88, 315.08 2.27 M207.88 131.69 C240.49 89.07, 275.73 49.39, 320.07 2.63 M207.88 131.69 C232.97 99.3, 259.95 69.97, 320.07 2.63 M213.53 131.29 C246.24 94.68, 276.2 60.58, 324.4 3.75 M213.53 131.29 C251.86 90.35, 288.6 47.06, 324.4 3.75 M218.51 131.65 C243.31 99.73, 270.98 71.68, 329.39 4.11 M218.51 131.65 C252.14 93.4, 286.89 54.05, 329.39 4.11 M224.16 131.26 C257.97 91.41, 293.78 52.56, 332.41 6.73 M224.16 131.26 C252.65 96.65, 282.4 62.84, 332.41 6.73 M229.14 131.62 C274.27 80.06, 314.83 33.33, 336.74 7.84 M229.14 131.62 C268.59 85, 308.56 39.48, 336.74 7.84 M234.79 131.22 C267.09 95.15, 295.89 59.58, 339.1 11.22 M234.79 131.22 C257.18 107.08, 279.07 82.7, 339.1 11.22 M239.77 131.58 C277.49 86.29, 317.87 38.94, 342.12 13.85 M239.77 131.58 C262.94 103.05, 288.16 77.56, 342.12 13.85 M245.42 131.19 C286.03 85.83, 321.89 43.78, 343.17 18.74 M245.42 131.19 C279.43 91.3, 313.5 52.23, 343.17 18.74 M250.4 131.55 C286.22 90.8, 325.74 45.45, 344.88 22.87 M250.4 131.55 C278.29 99.75, 307.76 65.09, 344.88 22.87 M255.39 131.91 C291.16 88.27, 327.25 46.03, 346.58 27 M255.39 131.91 C284.44 98.7, 312 67.37, 346.58 27 M261.04 131.51 C295.4 92.36, 328.75 52.35, 346.98 32.65 M261.04 131.51 C278.95 110.75, 297.88 89.16, 346.98 32.65 M266.02 131.87 C291.81 103.11, 312.89 75.44, 346.72 39.04 M266.02 131.87 C289.75 104.35, 314.41 75.84, 346.72 39.04 M271.67 131.48 C299.78 100.03, 332.14 66.44, 347.11 44.69 M271.67 131.48 C298.67 100.84, 324.08 69.38, 347.11 44.69 M276.65 131.84 C297.57 108.35, 314.42 85.29, 346.85 51.09 M276.65 131.84 C299.95 102.18, 324.54 74.18, 346.85 51.09 M282.3 131.44 C303.91 106.17, 328.54 79.97, 346.59 57.48 M282.3 131.44 C304.85 105.22, 327.44 80.12, 346.59 57.48 M287.28 131.8 C308.78 107.78, 328.82 87.22, 346.98 63.13 M287.28 131.8 C302.04 113.75, 316.75 96.47, 346.98 63.13 M292.93 131.41 C307.85 114.36, 322.56 95.89, 346.72 69.52 M292.93 131.41 C304.12 117.15, 314.49 105.85, 346.72 69.52 M297.91 131.77 C311.2 119.87, 321.18 102.27, 347.12 75.17 M297.91 131.77 C309.38 118.34, 319.33 106.83, 347.12 75.17 M303.56 131.38 C319.16 111.29, 334.8 94.52, 346.86 81.56 M303.56 131.38 C319 114.38, 333.65 97.13, 346.86 81.56 M308.54 131.74 C316.89 122.95, 323.33 115.26, 347.25 87.21 M308.54 131.74 C318.46 120.07, 329.03 107.36, 347.25 87.21 M313.53 132.1 C326.08 118.42, 342.01 102.52, 346.99 93.61 M313.53 132.1 C325.26 118.25, 337.52 103.67, 346.99 93.61 M319.83 130.95 C330.93 120.2, 339.68 105.51, 346.73 100 M319.83 130.95 C326.55 123.8, 332.93 116.37, 346.73 100 M326.78 129.04 C332.97 122.77, 340.03 115.49, 345.15 107.91 M326.78 129.04 C331.69 123.79, 338.74 116.35, 345.15 107.91" stroke="#f08c00" stroke-width="0.5" fill="none"></path><path d="M32 0 C129.01 1.11, 226.34 2.93, 312.5 0 M32 0 C138.1 -2.07, 243.26 -1.53, 312.5 0 M312.5 0 C332.1 -0.8, 345.36 9.67, 344.5 32 M312.5 0 C333.09 -0.67, 343.3 9.2, 344.5 32 M344.5 32 C342.08 57.99, 345.77 84.57, 344.5 98.57 M344.5 32 C343.15 51.17, 343.93 69.47, 344.5 98.57 M344.5 98.57 C344.83 121.19, 335.68 130.91, 312.5 130.57 M344.5 98.57 C344.12 117.71, 331.55 132.69, 312.5 130.57 M312.5 130.57 C254.52 129.65, 196.52 128.6, 32 130.57 M312.5 130.57 C237.79 129.76, 162.62 130.36, 32 130.57 M32 130.57 C10.58 129.82, 1.82 119.48, 0 98.57 M32 130.57 C12.32 130.23, 2.29 119.81, 0 98.57 M0 98.57 C0.89 80.04, 1.05 61.55, 0 32 M0 98.57 C-0.91 78.16, -0.31 57.72, 0 32 M0 32 C0.16 11.1, 9.6 1.06, 32 0 M0 32 C2.1 12.5, 9.58 -0.8, 32 0" stroke="#1e1e1e" stroke-width="1" fill="none"></path></g><g transform="translate(137.4270477294922 215.41851386321713) rotate(0 44.82295227050781 8.867974549310702)"><text x="44.82295227050781" y="12.429353128313904" font-family="Virgil, Segoe UI Emoji" font-size="14.188759278897152px" fill="#1e1e1e" text-anchor="middle" style="white-space: pre;" direction="ltr" dominant-baseline="alphabetic">Employee App</text></g></svg>