<svg version="1.1" xmlns="http://www.w3.org/2000/svg" viewBox="0 0 364.5 340.39733458254443" width="364.5" height="340.39733458254443">
  <!-- svg-source:excalidraw -->
  
  <defs>
    <style class="style-fonts">
      @font-face {
        font-family: "Virgil";
        src: url("https://excalidraw.com/Virgil.woff2");
      }
      @font-face {
        font-family: "Cascadia";
        src: url("https://excalidraw.com/Cascadia.woff2");
      }
      @font-face {
        font-family: "Assistant";
        src: url("https://excalidraw.com/Assistant-Regular.woff2");
      }
    </style>
    
  </defs>
  <rect x="0" y="0" width="364.5" height="340.39733458254443" fill="#ffffff"></rect><g stroke-linecap="round" transform="translate(137.9778490313107 10) rotate(0 41.506623041877916 41.46687653712888)"><path d="M0 0 C0 0, 0 0, 0 0 M0 0 C0 0, 0 0, 0 0 M0.13 12.04 C3.8 7.82, 7.47 3.6, 10.63 -0.03 M0.13 12.04 C4.28 7.27, 8.43 2.49, 10.63 -0.03 M0.27 24.08 C6.7 16.68, 13.13 9.28, 21.26 -0.07 M0.27 24.08 C8.4 14.73, 16.53 5.37, 21.26 -0.07 M-0.26 36.88 C8.08 27.28, 16.42 17.69, 31.89 -0.1 M-0.26 36.88 C12.25 22.49, 24.76 8.1, 31.89 -0.1 M-0.12 48.92 C13.08 33.73, 26.28 18.54, 42.52 -0.14 M-0.12 48.92 C11.56 35.48, 23.25 22.04, 42.52 -0.14 M0.01 60.96 C11.1 48.2, 22.19 35.44, 53.15 -0.17 M0.01 60.96 C14.12 44.73, 28.23 28.5, 53.15 -0.17 M0.14 73 C22.94 46.77, 45.74 20.55, 63.78 -0.21 M0.14 73 C21.59 48.33, 43.04 23.65, 63.78 -0.21 M1.59 83.53 C16.87 65.96, 32.14 48.38, 74.41 -0.24 M1.59 83.53 C17.03 65.77, 32.47 48.01, 74.41 -0.24 M12.22 83.5 C30.99 61.91, 49.76 40.31, 83.07 1.99 M12.22 83.5 C38 53.83, 63.79 24.17, 83.07 1.99 M22.85 83.46 C39.45 64.36, 56.06 45.26, 83.21 14.03 M22.85 83.46 C35.9 68.45, 48.94 53.44, 83.21 14.03 M33.48 83.43 C45.55 69.54, 57.62 55.66, 83.34 26.07 M33.48 83.43 C50.54 63.8, 67.6 44.17, 83.34 26.07 M44.11 83.39 C52.66 73.56, 61.21 63.72, 83.47 38.11 M44.11 83.39 C54.56 71.37, 65.01 59.35, 83.47 38.11 M54.74 83.36 C63.26 73.55, 71.79 63.74, 82.95 50.91 M54.74 83.36 C62.05 74.94, 69.37 66.53, 82.95 50.91 M65.37 83.32 C69.77 78.26, 74.17 73.19, 83.08 62.95 M65.37 83.32 C71.52 76.25, 77.67 69.17, 83.08 62.95 M76 83.29 C77.86 81.15, 79.72 79.01, 83.22 74.99 M76 83.29 C78.18 80.78, 80.37 78.26, 83.22 74.99 M-0.31 82.67 C-0.31 82.67, -0.31 82.67, -0.31 82.67 M-0.31 82.67 C-0.31 82.67, -0.31 82.67, -0.31 82.67 M12.49 83.19 C8.36 79.6, 4.24 76.02, -0.34 72.04 M12.49 83.19 C9.15 80.29, 5.81 77.38, -0.34 72.04 M24.53 83.05 C19 78.25, 13.46 73.44, 0.38 62.06 M24.53 83.05 C15.86 75.52, 7.19 67.98, 0.38 62.06 M36.57 82.92 C25.49 73.29, 14.42 63.67, 0.34 51.43 M36.57 82.92 C25.01 72.88, 13.46 62.83, 0.34 51.43 M48.61 82.79 C38.8 74.26, 28.98 65.73, 0.31 40.8 M48.61 82.79 C35.87 71.72, 23.14 60.65, 0.31 40.8 M60.65 82.66 C47.19 70.96, 33.73 59.26, 0.27 30.17 M60.65 82.66 C44.56 68.67, 28.46 54.68, 0.27 30.17 M73.45 83.18 C50.27 63.03, 27.1 42.89, 0.24 19.54 M73.45 83.18 C47.75 60.84, 22.05 38.5, 0.24 19.54 M83.22 81.08 C59.51 60.46, 35.8 39.85, 0.2 8.91 M83.22 81.08 C59.1 60.11, 34.99 39.15, 0.2 8.91 M83.19 70.45 C52.08 43.4, 20.97 16.36, 1.68 -0.41 M83.19 70.45 C66.19 55.67, 49.2 40.9, 1.68 -0.41 M83.15 59.82 C61.88 41.33, 40.62 22.84, 13.72 -0.54 M83.15 59.82 C56.88 36.98, 30.61 14.14, 13.72 -0.54 M83.12 49.19 C71.17 38.8, 59.22 28.41, 26.52 -0.02 M83.12 49.19 C70.46 38.19, 57.81 27.19, 26.52 -0.02 M83.08 38.56 C69.84 27.04, 56.59 15.52, 38.56 -0.15 M83.08 38.56 C68.94 26.26, 54.8 13.97, 38.56 -0.15 M83.05 27.93 C76 21.8, 68.95 15.67, 50.6 -0.28 M83.05 27.93 C70.6 17.1, 58.14 6.27, 50.6 -0.28 M83.02 17.3 C77.48 12.48, 71.94 7.67, 62.64 -0.42 M83.02 17.3 C76.99 12.06, 70.97 6.82, 62.64 -0.42 M83.74 7.32 C81.81 5.65, 79.88 3.97, 74.68 -0.55 M83.74 7.32 C81.23 5.14, 78.73 2.97, 74.68 -0.55" stroke="#ced4da" stroke-width="1" fill="none"></path><path d="M0 0 C20.35 0, 40.7 0, 83.01 0 M0 0 C25.78 0, 51.56 0, 83.01 0 M83.01 0 C83.01 32.92, 83.01 65.85, 83.01 82.93 M83.01 0 C83.01 25.34, 83.01 50.68, 83.01 82.93 M83.01 82.93 C50.91 82.93, 18.8 82.93, 0 82.93 M83.01 82.93 C50.38 82.93, 17.75 82.93, 0 82.93 M0 82.93 C0 60.87, 0 38.81, 0 0 M0 82.93 C0 58.33, 0 33.74, 0 0" stroke="#000000" stroke-width="2" fill="none"></path></g><g stroke-linecap="round" transform="translate(146.07725849001127 18.206172893559824) rotate(0 33.40721358317721 33.40721358317721)"><path d="M66.81 33.41 C66.81 35.15, 66.68 36.91, 66.4 38.63 C66.13 40.35, 65.72 42.07, 65.18 43.73 C64.64 45.39, 63.96 47.02, 63.17 48.57 C62.38 50.13, 61.46 51.63, 60.43 53.04 C59.41 54.45, 58.26 55.8, 57.03 57.03 C55.8 58.26, 54.45 59.41, 53.04 60.43 C51.63 61.46, 50.13 62.38, 48.57 63.17 C47.02 63.96, 45.39 64.64, 43.73 65.18 C42.07 65.72, 40.35 66.13, 38.63 66.4 C36.91 66.68, 35.15 66.81, 33.41 66.81 C31.67 66.81, 29.9 66.68, 28.18 66.4 C26.46 66.13, 24.74 65.72, 23.08 65.18 C21.43 64.64, 19.79 63.96, 18.24 63.17 C16.69 62.38, 15.18 61.46, 13.77 60.43 C12.36 59.41, 11.02 58.26, 9.78 57.03 C8.55 55.8, 7.4 54.45, 6.38 53.04 C5.36 51.63, 4.43 50.13, 3.64 48.57 C2.85 47.02, 2.17 45.39, 1.64 43.73 C1.1 42.07, 0.68 40.35, 0.41 38.63 C0.14 36.91, 0 35.15, 0 33.41 C0 31.67, 0.14 29.9, 0.41 28.18 C0.68 26.46, 1.1 24.74, 1.64 23.08 C2.17 21.43, 2.85 19.79, 3.64 18.24 C4.43 16.69, 5.36 15.18, 6.38 13.77 C7.4 12.36, 8.55 11.02, 9.78 9.78 C11.02 8.55, 12.36 7.4, 13.77 6.38 C15.18 5.36, 16.69 4.43, 18.24 3.64 C19.79 2.85, 21.43 2.17, 23.08 1.64 C24.74 1.1, 26.46 0.68, 28.18 0.41 C29.9 0.14, 31.67 0, 33.41 0 C35.15 0, 36.91 0.14, 38.63 0.41 C40.35 0.68, 42.07 1.1, 43.73 1.64 C45.39 2.17, 47.02 2.85, 48.57 3.64 C50.13 4.43, 51.63 5.36, 53.04 6.38 C54.45 7.4, 55.8 8.55, 57.03 9.78 C58.26 11.02, 59.41 12.36, 60.43 13.77 C61.46 15.18, 62.38 16.69, 63.17 18.24 C63.96 19.79, 64.64 21.43, 65.18 23.08 C65.72 24.74, 66.13 26.46, 66.4 28.18 C66.68 29.9, 66.75 32.54, 66.81 33.41 C66.88 34.28, 66.88 32.54, 66.81 33.41" stroke="none" stroke-width="0" fill="#868e96"></path><path d="M66.81 33.41 C66.81 35.15, 66.68 36.91, 66.4 38.63 C66.13 40.35, 65.72 42.07, 65.18 43.73 C64.64 45.39, 63.96 47.02, 63.17 48.57 C62.38 50.13, 61.46 51.63, 60.43 53.04 C59.41 54.45, 58.26 55.8, 57.03 57.03 C55.8 58.26, 54.45 59.41, 53.04 60.43 C51.63 61.46, 50.13 62.38, 48.57 63.17 C47.02 63.96, 45.39 64.64, 43.73 65.18 C42.07 65.72, 40.35 66.13, 38.63 66.4 C36.91 66.68, 35.15 66.81, 33.41 66.81 C31.67 66.81, 29.9 66.68, 28.18 66.4 C26.46 66.13, 24.74 65.72, 23.08 65.18 C21.43 64.64, 19.79 63.96, 18.24 63.17 C16.69 62.38, 15.18 61.46, 13.77 60.43 C12.36 59.41, 11.02 58.26, 9.78 57.03 C8.55 55.8, 7.4 54.45, 6.38 53.04 C5.36 51.63, 4.43 50.13, 3.64 48.57 C2.85 47.02, 2.17 45.39, 1.64 43.73 C1.1 42.07, 0.68 40.35, 0.41 38.63 C0.14 36.91, 0 35.15, 0 33.41 C0 31.67, 0.14 29.9, 0.41 28.18 C0.68 26.46, 1.1 24.74, 1.64 23.08 C2.17 21.43, 2.85 19.79, 3.64 18.24 C4.43 16.69, 5.36 15.18, 6.38 13.77 C7.4 12.36, 8.55 11.02, 9.78 9.78 C11.02 8.55, 12.36 7.4, 13.77 6.38 C15.18 5.36, 16.69 4.43, 18.24 3.64 C19.79 2.85, 21.43 2.17, 23.08 1.64 C24.74 1.1, 26.46 0.68, 28.18 0.41 C29.9 0.14, 31.67 0, 33.41 0 C35.15 0, 36.91 0.14, 38.63 0.41 C40.35 0.68, 42.07 1.1, 43.73 1.64 C45.39 2.17, 47.02 2.85, 48.57 3.64 C50.13 4.43, 51.63 5.36, 53.04 6.38 C54.45 7.4, 55.8 8.55, 57.03 9.78 C58.26 11.02, 59.41 12.36, 60.43 13.77 C61.46 15.18, 62.38 16.69, 63.17 18.24 C63.96 19.79, 64.64 21.43, 65.18 23.08 C65.72 24.74, 66.13 26.46, 66.4 28.18 C66.68 29.9, 66.75 32.54, 66.81 33.41 C66.88 34.28, 66.88 32.54, 66.81 33.41" stroke="#000000" stroke-width="1" fill="none"></path></g><g stroke-linecap="round"><g transform="translate(166.3572714045434 31.609688574007805) rotate(0 10.433501793724375 20.243579093835564)" fill-rule="evenodd"><path d="M0 0 C0.54 0.19, 2.34 0.56, 3.25 1.14 C4.15 1.72, 4.58 3.26, 5.44 3.49 C6.3 3.72, 6.54 2.66, 8.42 2.51 C10.31 2.37, 14.92 2.56, 16.74 2.62 C18.57 2.69, 18.57 3.1, 19.34 2.88 C20.11 2.66, 20.55 1.87, 21.35 1.28 C22.15 0.69, 23.55 -0.78, 24.14 -0.66 C24.73 -0.53, 24.79 1.13, 24.9 2.01 C25.02 2.88, 24.42 3.75, 24.83 4.59 C25.25 5.43, 26.77 5.47, 27.39 7.04 C28 8.62, 28.49 11.66, 28.53 14.05 C28.57 16.44, 28.22 19.69, 27.63 21.39 C27.05 23.09, 26.06 23.51, 25.03 24.24 C24.01 24.97, 22.72 25.37, 21.49 25.77 C20.26 26.16, 18.13 26.31, 17.67 26.61 C17.2 26.91, 18.32 27.05, 18.68 27.56 C19.04 28.07, 19.59 28.22, 19.82 29.67 C20.05 31.13, 20.02 34.52, 20.05 36.29 C20.09 38.06, 20.22 39.51, 20.01 40.29 C19.79 41.07, 20.54 40.84, 18.76 40.98 C16.98 41.13, 11.09 41.31, 9.32 41.14 C7.55 40.98, 8.4 40.97, 8.14 39.99 C7.89 39.01, 8.23 35.96, 7.81 35.28 C7.4 34.59, 6.6 35.74, 5.64 35.88 C4.67 36.02, 3.2 36.4, 2.04 36.11 C0.87 35.83, -0.42 35.07, -1.33 34.18 C-2.24 33.3, -2.74 31.72, -3.42 30.81 C-4.11 29.9, -4.75 29.32, -5.46 28.73 C-6.17 28.15, -7.79 27.47, -7.66 27.27 C-7.53 27.08, -5.52 27.24, -4.67 27.56 C-3.82 27.88, -3.31 28.54, -2.55 29.2 C-1.8 29.85, -1.04 30.86, -0.15 31.47 C0.73 32.09, 1.74 32.72, 2.77 32.89 C3.79 33.06, 5.2 32.77, 6 32.49 C6.81 32.21, 7.31 31.77, 7.6 31.23 C7.9 30.69, 7.59 29.87, 7.76 29.25 C7.92 28.64, 8.29 27.95, 8.62 27.53 C8.94 27.12, 10.25 27.07, 9.73 26.76 C9.22 26.45, 6.89 26.07, 5.51 25.67 C4.13 25.27, 2.49 25.06, 1.47 24.34 C0.46 23.62, 0.01 23.04, -0.59 21.34 C-1.19 19.64, -2.08 16.45, -2.13 14.12 C-2.18 11.78, -1.4 8.77, -0.91 7.32 C-0.41 5.88, 0.73 6.19, 0.86 5.46 C0.98 4.73, -0.01 3.84, -0.15 2.93 C-0.3 2.02, -0.03 0.49, 0 0" stroke="none" stroke-width="0" fill="#fff" fill-rule="evenodd"></path><path d="M0 0 C0.54 0.19, 2.34 0.56, 3.25 1.14 C4.15 1.72, 4.58 3.26, 5.44 3.49 C6.3 3.72, 6.54 2.66, 8.42 2.51 C10.31 2.37, 14.92 2.56, 16.74 2.62 C18.57 2.69, 18.57 3.1, 19.34 2.88 C20.11 2.66, 20.55 1.87, 21.35 1.28 C22.15 0.69, 23.55 -0.78, 24.14 -0.66 C24.73 -0.53, 24.79 1.13, 24.9 2.01 C25.02 2.88, 24.42 3.75, 24.83 4.59 C25.25 5.43, 26.77 5.47, 27.39 7.04 C28 8.62, 28.49 11.66, 28.53 14.05 C28.57 16.44, 28.22 19.69, 27.63 21.39 C27.05 23.09, 26.06 23.51, 25.03 24.24 C24.01 24.97, 22.72 25.37, 21.49 25.77 C20.26 26.16, 18.13 26.31, 17.67 26.61 C17.2 26.91, 18.32 27.05, 18.68 27.56 C19.04 28.07, 19.59 28.22, 19.82 29.67 C20.05 31.13, 20.02 34.52, 20.05 36.29 C20.09 38.06, 20.22 39.51, 20.01 40.29 C19.79 41.07, 20.54 40.84, 18.76 40.98 C16.98 41.13, 11.09 41.31, 9.32 41.14 C7.55 40.98, 8.4 40.97, 8.14 39.99 C7.89 39.01, 8.23 35.96, 7.81 35.28 C7.4 34.59, 6.6 35.74, 5.64 35.88 C4.67 36.02, 3.2 36.4, 2.04 36.11 C0.87 35.83, -0.42 35.07, -1.33 34.18 C-2.24 33.3, -2.74 31.72, -3.42 30.81 C-4.11 29.9, -4.75 29.32, -5.46 28.73 C-6.17 28.15, -7.79 27.47, -7.66 27.27 C-7.53 27.08, -5.52 27.24, -4.67 27.56 C-3.82 27.88, -3.31 28.54, -2.55 29.2 C-1.8 29.85, -1.04 30.86, -0.15 31.47 C0.73 32.09, 1.74 32.72, 2.77 32.89 C3.79 33.06, 5.2 32.77, 6 32.49 C6.81 32.21, 7.31 31.77, 7.6 31.23 C7.9 30.69, 7.59 29.87, 7.76 29.25 C7.92 28.64, 8.29 27.95, 8.62 27.53 C8.94 27.12, 10.25 27.07, 9.73 26.76 C9.22 26.45, 6.89 26.07, 5.51 25.67 C4.13 25.27, 2.49 25.06, 1.47 24.34 C0.46 23.62, 0.01 23.04, -0.59 21.34 C-1.19 19.64, -2.08 16.45, -2.13 14.12 C-2.18 11.78, -1.4 8.77, -0.91 7.32 C-0.41 5.88, 0.73 6.19, 0.86 5.46 C0.98 4.73, -0.01 3.84, -0.15 2.93 C-0.3 2.02, -0.03 0.49, 0 0 M0 0 C0.54 0.19, 2.34 0.56, 3.25 1.14 C4.15 1.72, 4.58 3.26, 5.44 3.49 C6.3 3.72, 6.54 2.66, 8.42 2.51 C10.31 2.37, 14.92 2.56, 16.74 2.62 C18.57 2.69, 18.57 3.1, 19.34 2.88 C20.11 2.66, 20.55 1.87, 21.35 1.28 C22.15 0.69, 23.55 -0.78, 24.14 -0.66 C24.73 -0.53, 24.79 1.13, 24.9 2.01 C25.02 2.88, 24.42 3.75, 24.83 4.59 C25.25 5.43, 26.77 5.47, 27.39 7.04 C28 8.62, 28.49 11.66, 28.53 14.05 C28.57 16.44, 28.22 19.69, 27.63 21.39 C27.05 23.09, 26.06 23.51, 25.03 24.24 C24.01 24.97, 22.72 25.37, 21.49 25.77 C20.26 26.16, 18.13 26.31, 17.67 26.61 C17.2 26.91, 18.32 27.05, 18.68 27.56 C19.04 28.07, 19.59 28.22, 19.82 29.67 C20.05 31.13, 20.02 34.52, 20.05 36.29 C20.09 38.06, 20.22 39.51, 20.01 40.29 C19.79 41.07, 20.54 40.84, 18.76 40.98 C16.98 41.13, 11.09 41.31, 9.32 41.14 C7.55 40.98, 8.4 40.97, 8.14 39.99 C7.89 39.01, 8.23 35.96, 7.81 35.28 C7.4 34.59, 6.6 35.74, 5.64 35.88 C4.67 36.02, 3.2 36.4, 2.04 36.11 C0.87 35.83, -0.42 35.07, -1.33 34.18 C-2.24 33.3, -2.74 31.72, -3.42 30.81 C-4.11 29.9, -4.75 29.32, -5.46 28.73 C-6.17 28.15, -7.79 27.47, -7.66 27.27 C-7.53 27.08, -5.52 27.24, -4.67 27.56 C-3.82 27.88, -3.31 28.54, -2.55 29.2 C-1.8 29.85, -1.04 30.86, -0.15 31.47 C0.73 32.09, 1.74 32.72, 2.77 32.89 C3.79 33.06, 5.2 32.77, 6 32.49 C6.81 32.21, 7.31 31.77, 7.6 31.23 C7.9 30.69, 7.59 29.87, 7.76 29.25 C7.92 28.64, 8.29 27.95, 8.62 27.53 C8.94 27.12, 10.25 27.07, 9.73 26.76 C9.22 26.45, 6.89 26.07, 5.51 25.67 C4.13 25.27, 2.49 25.06, 1.47 24.34 C0.46 23.62, 0.01 23.04, -0.59 21.34 C-1.19 19.64, -2.08 16.45, -2.13 14.12 C-2.18 11.78, -1.4 8.77, -0.91 7.32 C-0.41 5.88, 0.73 6.19, 0.86 5.46 C0.98 4.73, -0.01 3.84, -0.15 2.93 C-0.3 2.02, -0.03 0.49, 0 0" stroke="#000000" stroke-width="1" fill="none"></path></g></g><mask></mask><g transform="translate(137.63088431156666 100.14522174549825) rotate(0 41.2070848515865 16.097533754470298)"><text x="0" y="22.562303310265566" font-family="Virgil, Segoe UI Emoji" font-size="25.75605400715247px" fill="#000000" text-anchor="start" style="white-space: pre;" direction="ltr" dominant-baseline="alphabetic">GitHub</text></g><g stroke-linecap="round" transform="translate(10 159.9996244457575) rotate(0 172.25 65.28686396677051)"><path d="M32 0 C122.89 0.24, 213.33 2.11, 312.5 0 M32 0 C114.09 -0.14, 195.81 0.43, 312.5 0 M312.5 0 C332.61 -1.63, 342.84 9.34, 344.5 32 M312.5 0 C334.51 1.51, 346.5 12.48, 344.5 32 M344.5 32 C344.14 48.4, 346.94 63.98, 344.5 98.57 M344.5 32 C344.58 56.04, 344.37 80.39, 344.5 98.57 M344.5 98.57 C344.04 121.49, 335.46 129.62, 312.5 130.57 M344.5 98.57 C344.26 119.83, 335.3 131.19, 312.5 130.57 M312.5 130.57 C253.3 131.15, 192.9 130.3, 32 130.57 M312.5 130.57 C247.89 129.45, 182.1 128.85, 32 130.57 M32 130.57 C11.02 129.21, 1.42 120.19, 0 98.57 M32 130.57 C11.8 132.25, 1.45 119.25, 0 98.57 M0 98.57 C2.41 73.26, 0.48 49.7, 0 32 M0 98.57 C-0.26 72.97, -0.57 46.16, 0 32 M0 32 C1.36 10.55, 11.56 1.75, 32 0 M0 32 C-1.93 8.62, 9.36 -0.46, 32 0" stroke="#1e1e1e" stroke-width="1" fill="none"></path></g><g transform="translate(138.21404266357422 216.4185138632173) rotate(0 44.03595733642578 8.867974549310723)"><text x="44.03595733642578" y="12.429353128313904" font-family="Virgil, Segoe UI Emoji" font-size="14.188759278897152px" fill="#1e1e1e" text-anchor="middle" style="white-space: pre;" direction="ltr" dominant-baseline="alphabetic">Mrs-Wellbeing</text></g><g stroke-linecap="round"><g transform="translate(56.202093897451334 120.24559604143441) rotate(353.23161292112655 1.6770573613529578 -8.536471851343563)"><path d="M0.01 0.17 C0.6 -1.1, 3.05 -4.34, 3.13 -7.26 C3.22 -10.18, 0.94 -15.7, 0.5 -17.36 M-0.65 -0.21 C-0.11 -1.66, 2.45 -5.24, 2.59 -8.02 C2.72 -10.81, 0.5 -15.45, 0.17 -16.91" stroke="#1e1e1e" stroke-width="1" fill="none"></path></g></g><mask></mask><g stroke-linecap="round" transform="translate(50.27876490548476 96.89949106604742) rotate(353.23161292112655 3.649131459630297 4.210536299573492)"><path d="M1.13 0.99 C1.13 0.99, 1.13 0.99, 1.13 0.99 M1.13 0.99 C1.13 0.99, 1.13 0.99, 1.13 0.99 M1.53 6.63 C2.56 5.42, 3.76 4.16, 6.12 1.35 M1.53 6.63 C2.39 5.59, 3.55 4.34, 6.12 1.35" stroke="#a5d8ff" stroke-width="0.5" fill="none"></path><path d="M3.61 0.2 C4.39 0.12, 5.43 0.23, 6.09 0.81 C6.75 1.39, 7.46 2.73, 7.55 3.69 C7.65 4.64, 7.13 5.75, 6.65 6.53 C6.16 7.32, 5.3 8.1, 4.63 8.39 C3.96 8.68, 3.3 8.63, 2.61 8.27 C1.92 7.91, 0.86 7.05, 0.49 6.23 C0.11 5.41, 0.19 4.27, 0.34 3.34 C0.5 2.41, 0.8 1.23, 1.43 0.65 C2.05 0.07, 3.74 -0.02, 4.09 -0.16 C4.44 -0.3, 3.58 -0.32, 3.54 -0.19 M3.4 -0.44 C4.01 -0.46, 4.9 0.65, 5.56 1.31 C6.21 1.97, 7.14 2.67, 7.31 3.51 C7.48 4.35, 6.91 5.68, 6.58 6.36 C6.24 7.04, 6 7.3, 5.31 7.6 C4.61 7.89, 3.23 8.31, 2.4 8.11 C1.58 7.91, 0.81 7.15, 0.34 6.39 C-0.13 5.64, -0.55 4.48, -0.4 3.59 C-0.24 2.7, 0.56 1.69, 1.26 1.07 C1.97 0.45, 3.52 -0.01, 3.84 -0.13 C4.17 -0.26, 3.31 0.17, 3.19 0.32" stroke="#1e1e1e" stroke-width="1" fill="none"></path></g><g stroke-linecap="round" transform="translate(39.48086776799909 120.32432606403579) rotate(0 16.79443735347445 19.795121164738386)"><path d="M6.54 4.36 C6.54 4.36, 6.54 4.36, 6.54 4.36 M6.54 4.36 C6.54 4.36, 6.54 4.36, 6.54 4.36 M1.03 16.79 C7.07 10.32, 10.69 5.47, 15.46 0.19 M1.03 16.79 C5.36 12.06, 8.96 7.66, 15.46 0.19 M1.42 22.44 C7.63 14.03, 15.98 7, 19.79 1.3 M1.42 22.44 C7.49 15.61, 13.5 8.48, 19.79 1.3 M2.47 27.32 C8.33 20.14, 14.68 12.31, 23.47 3.17 M2.47 27.32 C9.91 18.72, 17.49 9.68, 23.47 3.17 M4.18 31.46 C10.54 22.87, 18.83 16.31, 27.14 5.04 M4.18 31.46 C11.62 22.6, 19.9 13.64, 27.14 5.04 M7.2 34.08 C13.4 27.08, 18.54 21.45, 29.5 8.42 M7.2 34.08 C15.2 24.38, 23.01 15.48, 29.5 8.42 M10.22 36.71 C16.09 30.9, 20.38 23.98, 31.21 12.56 M10.22 36.71 C17.6 29.17, 24.42 20.98, 31.21 12.56 M13.89 38.58 C19.55 33.44, 22.71 27.81, 32.92 16.69 M13.89 38.58 C18.34 33.42, 23.19 27.94, 32.92 16.69 M18.88 38.94 C22.74 35.53, 26.35 31.96, 32.66 23.09 M18.88 38.94 C22.79 34.27, 26.93 29.87, 32.66 23.09" stroke="#a5d8ff" stroke-width="0.5" fill="none"></path><path d="M17 -0.31 C20.52 -0.54, 25.44 2.12, 28.13 4.96 C30.82 7.8, 32.67 12.56, 33.14 16.75 C33.61 20.95, 32.66 26.47, 30.93 30.12 C29.21 33.76, 26.13 37.26, 22.81 38.62 C19.48 39.98, 14.33 39.81, 10.97 38.28 C7.6 36.75, 4.37 33.19, 2.62 29.44 C0.86 25.69, -0.25 19.96, 0.41 15.77 C1.07 11.58, 3.82 7, 6.58 4.31 C9.33 1.61, 15.04 0.19, 16.94 -0.4 C18.84 -1, 17.95 0.26, 17.98 0.75 M15.94 0.7 C19.39 0.52, 24.62 2.11, 27.42 4.7 C30.22 7.28, 32.02 12.27, 32.77 16.24 C33.51 20.21, 33.57 24.89, 31.89 28.52 C30.2 32.15, 26.13 36.38, 22.66 38.02 C19.19 39.66, 14.55 39.73, 11.07 38.39 C7.6 37.04, 3.62 33.56, 1.83 29.95 C0.04 26.34, -0.39 20.96, 0.35 16.76 C1.08 12.56, 3.66 7.48, 6.27 4.75 C8.87 2.02, 14.37 0.99, 15.98 0.35 C17.59 -0.28, 15.84 0.59, 15.93 0.94" stroke="#1e1e1e" stroke-width="1" fill="none"></path></g><g stroke-linecap="round"><g transform="translate(60.048093563473145 162.89002656409673) rotate(353.7028438574339 -0.5458093485101756 21.952717231734148)" fill-rule="evenodd"><path d="M-13.82 5.21 C-13.82 5.21, -13.82 5.21, -13.82 5.21 M-13.82 5.21 C-13.82 5.21, -13.82 5.21, -13.82 5.21 M-16.05 13.87 C-13.6 12.16, -12.83 9.76, -6.21 2.55 M-16.05 13.87 C-12.74 9.62, -9.32 5.45, -6.21 2.55 M-15 18.76 C-9.11 13.21, -7.37 9.67, 0.74 0.65 M-15 18.76 C-10.7 14.26, -7.68 9.19, 0.74 0.65 M-13.3 22.89 C-9.74 18.1, -3.78 10.4, 5.07 1.76 M-13.3 22.89 C-9.02 18.36, -4.05 12.28, 5.07 1.76 M-12.25 27.78 C-2.6 18.19, 2.08 10.9, 8.75 3.63 M-12.25 27.78 C-4.55 19.29, 3.33 9.11, 8.75 3.63 M-10.54 31.91 C-3.95 26.91, -0.02 19.94, 13.08 4.74 M-10.54 31.91 C-3.49 24.22, 3.45 16.73, 13.08 4.74 M-8.83 36.05 C-3.61 29.84, 6.01 19.52, 15.44 8.12 M-8.83 36.05 C-2.49 28.97, 3.79 22.03, 15.44 8.12 M-7.13 40.18 C0.31 34.24, 5.66 26.45, 15.84 13.77 M-7.13 40.18 C-1.29 32.73, 4.26 26.65, 15.84 13.77 M-4.76 43.56 C2.51 37.46, 9.08 29.94, 13.61 22.43 M-4.76 43.56 C0.95 37.27, 5.8 32.32, 13.61 22.43 M-1.74 46.18 C1.88 41.33, 5.87 33.75, 11.38 31.09 M-1.74 46.18 C3.14 39.79, 8.77 34.66, 11.38 31.09" stroke="#a5d8ff" stroke-width="0.5" fill="none"></path><path d="M0.03 -0.29 C2.74 1.23, 15.23 1.47, 16.32 8.47 C17.41 15.47, 10.01 35.89, 6.57 41.71 C3.13 47.53, -0.55 48.82, -4.33 43.39 C-8.1 37.96, -16.91 16.23, -16.07 9.15 C-15.22 2.06, -2.01 2.41, 0.74 0.9 M-1.41 -1.49 C1.2 -0.3, 14 -0.44, 15.75 6.47 C17.5 13.37, 12.33 33.65, 9.07 39.94 C5.82 46.24, 0.61 49.37, -3.77 44.23 C-8.15 39.08, -17.64 16.41, -17.2 9.1 C-16.76 1.78, -4.2 2.05, -1.12 0.33" stroke="#1e1e1e" stroke-width="1" fill="none"></path></g></g><mask></mask><g stroke-linecap="round"><g transform="translate(60.13723758366663 150.0951541218146) rotate(0 -5.986722141711255 1.8674966881637243)" fill-rule="evenodd"><path d="M-1.5 1.61 C-2.82 1.38, -5.68 -0.77, -8.33 -0.96 C-10.98 -1.15, -18.2 -0.61, -17.41 0.46 C-16.62 1.54, -7.43 5.99, -3.58 5.51 C0.28 5.02, 5.14 -1.3, 5.71 -2.47 C6.27 -3.63, 0.93 -2.14, -0.18 -1.47" stroke="none" stroke-width="0" fill="#a5d8ff" fill-rule="evenodd"></path><path d="M0.33 0.11 C-0.99 0.29, -5.21 1.07, -7.9 1.01 C-10.58 0.95, -16.38 -1.03, -15.78 -0.25 C-15.19 0.52, -7.67 5.93, -4.31 5.65 C-0.94 5.38, 3.67 -0.95, 4.42 -1.89 C5.17 -2.83, 0.94 -0.37, 0.2 0.03 M-0.17 -0.32 C-1.31 -0.26, -4.2 0.21, -6.84 0.3 C-9.48 0.39, -16.46 -0.72, -15.99 0.23 C-15.53 1.17, -7.36 6.25, -4.04 5.96 C-0.72 5.67, 3.37 -0.44, 3.92 -1.5 C4.48 -2.57, -0.1 -0.7, -0.73 -0.43" stroke="#1e1e1e" stroke-width="1" fill="none"></path></g></g><mask></mask><g stroke-linecap="round" transform="translate(57.100390375466475 132.69453203483064) rotate(0 3.226261519896596 3.5825884741900413)"><path d="M3.23 -0.26 C3.91 -0.25, 4.63 0.5, 5.16 1.03 C5.69 1.55, 6.21 2.19, 6.4 2.88 C6.59 3.58, 6.69 4.47, 6.3 5.19 C5.91 5.92, 4.78 6.95, 4.07 7.2 C3.37 7.45, 2.62 6.95, 2.05 6.7 C1.48 6.45, 1.01 6.29, 0.65 5.69 C0.28 5.1, -0.18 3.88, -0.13 3.12 C-0.08 2.37, 0.44 1.68, 0.96 1.15 C1.48 0.63, 2.68 0.17, 3.02 -0.02 C3.35 -0.22, 2.92 -0.13, 2.98 -0.02 M3.35 0.26 C3.94 0.32, 4.7 0.66, 5.21 1.2 C5.72 1.74, 6.27 2.79, 6.41 3.49 C6.55 4.19, 6.42 4.84, 6.04 5.42 C5.66 6, 4.88 6.65, 4.14 6.95 C3.4 7.25, 2.16 7.56, 1.59 7.21 C1.03 6.86, 1.03 5.56, 0.74 4.85 C0.46 4.14, -0.15 3.65, -0.11 2.97 C-0.08 2.29, 0.37 1.26, 0.96 0.78 C1.55 0.3, 2.99 0.22, 3.43 0.06 C3.87 -0.1, 3.64 -0.31, 3.59 -0.19" stroke="none" stroke-width="0" fill="#a5d8ff"></path><path d="M3.26 0.22 C3.98 0.22, 5.21 0.66, 5.74 1.15 C6.28 1.65, 6.38 2.47, 6.45 3.2 C6.52 3.93, 6.54 4.94, 6.16 5.53 C5.78 6.12, 4.83 6.54, 4.17 6.73 C3.51 6.92, 2.9 7, 2.21 6.68 C1.52 6.37, 0.35 5.47, 0.01 4.84 C-0.32 4.21, 0 3.53, 0.2 2.88 C0.41 2.24, 0.7 1.48, 1.25 0.99 C1.8 0.51, 3.17 0.16, 3.52 -0.02 C3.86 -0.2, 3.25 -0.17, 3.31 -0.09 M3.73 -0.48 C4.41 -0.52, 4.91 0.31, 5.32 0.91 C5.73 1.51, 6.17 2.38, 6.19 3.15 C6.21 3.91, 5.79 4.88, 5.45 5.51 C5.11 6.15, 4.71 6.78, 4.18 6.98 C3.64 7.17, 2.95 6.97, 2.26 6.7 C1.57 6.42, 0.45 5.95, 0.04 5.34 C-0.36 4.72, -0.43 3.75, -0.19 3.03 C0.04 2.3, 0.85 1.49, 1.45 0.98 C2.06 0.47, 3.17 0.14, 3.44 -0.04 C3.71 -0.22, 3.14 -0.22, 3.07 -0.13" stroke="#1e1e1e" stroke-width="1" fill="none"></path></g><g stroke-linecap="round" transform="translate(57.63770702647744 135.8155490218163) rotate(0 0.9852654941002115 1.3136873254669705)"><path d="M1.97 1.31 C1.97 1.39, 1.97 1.47, 1.96 1.54 C1.95 1.62, 1.93 1.69, 1.91 1.76 C1.89 1.83, 1.87 1.9, 1.84 1.97 C1.81 2.04, 1.78 2.1, 1.74 2.16 C1.7 2.22, 1.66 2.27, 1.62 2.32 C1.57 2.37, 1.53 2.41, 1.48 2.45 C1.43 2.49, 1.38 2.52, 1.32 2.55 C1.27 2.57, 1.21 2.59, 1.16 2.61 C1.1 2.62, 1.04 2.63, 0.99 2.63 C0.93 2.63, 0.87 2.62, 0.81 2.61 C0.76 2.59, 0.7 2.57, 0.65 2.55 C0.59 2.52, 0.54 2.49, 0.49 2.45 C0.44 2.41, 0.4 2.37, 0.35 2.32 C0.31 2.27, 0.27 2.22, 0.23 2.16 C0.19 2.1, 0.16 2.04, 0.13 1.97 C0.1 1.9, 0.08 1.83, 0.06 1.76 C0.04 1.69, 0.02 1.62, 0.01 1.54 C0.01 1.47, 0 1.39, 0 1.31 C0 1.24, 0.01 1.16, 0.01 1.09 C0.02 1.01, 0.04 0.94, 0.06 0.86 C0.08 0.79, 0.1 0.72, 0.13 0.66 C0.16 0.59, 0.19 0.53, 0.23 0.47 C0.27 0.41, 0.31 0.36, 0.35 0.31 C0.4 0.26, 0.44 0.21, 0.49 0.18 C0.54 0.14, 0.59 0.11, 0.65 0.08 C0.7 0.05, 0.76 0.03, 0.81 0.02 C0.87 0.01, 0.93 0, 0.99 0 C1.04 0, 1.1 0.01, 1.16 0.02 C1.21 0.03, 1.27 0.05, 1.32 0.08 C1.38 0.11, 1.43 0.14, 1.48 0.18 C1.53 0.21, 1.57 0.26, 1.62 0.31 C1.66 0.36, 1.7 0.41, 1.74 0.47 C1.78 0.53, 1.81 0.59, 1.84 0.66 C1.87 0.72, 1.89 0.79, 1.91 0.86 C1.93 0.94, 1.95 1.01, 1.96 1.09 C1.97 1.16, 1.97 1.28, 1.97 1.31 C1.97 1.35, 1.97 1.28, 1.97 1.31" stroke="none" stroke-width="0" fill="#a5d8ff"></path><path d="M1.97 1.31 C1.97 1.39, 1.97 1.47, 1.96 1.54 C1.95 1.62, 1.93 1.69, 1.91 1.76 C1.89 1.83, 1.87 1.9, 1.84 1.97 C1.81 2.04, 1.78 2.1, 1.74 2.16 C1.7 2.22, 1.66 2.27, 1.62 2.32 C1.57 2.37, 1.53 2.41, 1.48 2.45 C1.43 2.49, 1.38 2.52, 1.32 2.55 C1.27 2.57, 1.21 2.59, 1.16 2.61 C1.1 2.62, 1.04 2.63, 0.99 2.63 C0.93 2.63, 0.87 2.62, 0.81 2.61 C0.76 2.59, 0.7 2.57, 0.65 2.55 C0.59 2.52, 0.54 2.49, 0.49 2.45 C0.44 2.41, 0.4 2.37, 0.35 2.32 C0.31 2.27, 0.27 2.22, 0.23 2.16 C0.19 2.1, 0.16 2.04, 0.13 1.97 C0.1 1.9, 0.08 1.83, 0.06 1.76 C0.04 1.69, 0.02 1.62, 0.01 1.54 C0.01 1.47, 0 1.39, 0 1.31 C0 1.24, 0.01 1.16, 0.01 1.09 C0.02 1.01, 0.04 0.94, 0.06 0.86 C0.08 0.79, 0.1 0.72, 0.13 0.66 C0.16 0.59, 0.19 0.53, 0.23 0.47 C0.27 0.41, 0.31 0.36, 0.35 0.31 C0.4 0.26, 0.44 0.21, 0.49 0.18 C0.54 0.14, 0.59 0.11, 0.65 0.08 C0.7 0.05, 0.76 0.03, 0.81 0.02 C0.87 0.01, 0.93 0, 0.99 0 C1.04 0, 1.1 0.01, 1.16 0.02 C1.21 0.03, 1.27 0.05, 1.32 0.08 C1.38 0.11, 1.43 0.14, 1.48 0.18 C1.53 0.21, 1.57 0.26, 1.62 0.31 C1.66 0.36, 1.7 0.41, 1.74 0.47 C1.78 0.53, 1.81 0.59, 1.84 0.66 C1.87 0.72, 1.89 0.79, 1.91 0.86 C1.93 0.94, 1.95 1.01, 1.96 1.09 C1.97 1.16, 1.97 1.28, 1.97 1.31 C1.97 1.35, 1.97 1.28, 1.97 1.31" stroke="#1e1e1e" stroke-width="1" fill="none"></path></g><g stroke-linecap="round" transform="translate(44.81432095157635 133.30714729600598) rotate(0 3.5890281179423624 3.73284682841018)"><path d="M3.13 0 C3.91 -0.2, 5.19 -0.03, 5.78 0.45 C6.38 0.94, 6.55 2.15, 6.72 2.89 C6.89 3.63, 7 4.16, 6.79 4.9 C6.57 5.64, 6.12 6.9, 5.43 7.33 C4.74 7.76, 3.44 7.67, 2.63 7.49 C1.82 7.32, 1.05 6.94, 0.58 6.28 C0.1 5.62, -0.23 4.4, -0.22 3.54 C-0.21 2.67, 0.05 1.65, 0.64 1.11 C1.23 0.57, 2.86 0.44, 3.31 0.29 C3.77 0.14, 3.41 0.19, 3.38 0.2 M3.87 0.33 C4.66 0.29, 5.69 0.45, 6.24 0.95 C6.78 1.45, 7.16 2.45, 7.15 3.33 C7.15 4.2, 6.56 5.59, 6.19 6.21 C5.82 6.82, 5.65 6.81, 4.93 7 C4.21 7.19, 2.71 7.61, 1.88 7.34 C1.06 7.07, 0.28 6.15, -0.01 5.4 C-0.3 4.65, -0.16 3.67, 0.13 2.83 C0.41 2, 1.12 0.81, 1.69 0.41 C2.27 0.01, 3.16 0.45, 3.6 0.43 C4.03 0.4, 4.19 0.3, 4.29 0.27" stroke="none" stroke-width="0" fill="#a5d8ff"></path><path d="M3.97 -0.03 C4.71 -0.03, 5.9 0.51, 6.45 1.04 C6.99 1.58, 7.2 2.37, 7.26 3.16 C7.32 3.95, 7.34 5.11, 6.82 5.76 C6.31 6.42, 4.95 6.82, 4.17 7.08 C3.38 7.33, 2.78 7.55, 2.12 7.3 C1.46 7.05, 0.54 6.36, 0.21 5.59 C-0.13 4.82, -0.08 3.53, 0.1 2.68 C0.28 1.82, 0.57 0.88, 1.28 0.45 C1.98 0.02, 3.83 0.19, 4.32 0.1 C4.81 0, 4.25 -0.18, 4.22 -0.11 M2.76 -0.07 C3.43 -0.23, 4.28 -0.01, 5 0.41 C5.72 0.82, 6.69 1.68, 7.08 2.43 C7.47 3.18, 7.67 4.12, 7.34 4.91 C7.01 5.71, 5.87 6.74, 5.09 7.22 C4.3 7.69, 3.32 7.89, 2.62 7.76 C1.93 7.63, 1.34 7.11, 0.9 6.43 C0.45 5.74, 0.02 4.53, -0.06 3.64 C-0.14 2.75, 0.01 1.66, 0.44 1.09 C0.88 0.52, 2.18 0.36, 2.55 0.23 C2.93 0.1, 2.6 0.34, 2.67 0.31" stroke="#1e1e1e" stroke-width="1" fill="none"></path></g><g stroke-linecap="round" transform="translate(45.87021286893989 136.46479059630153) rotate(0 0.8393002357149584 1.3136873254669297)"><path d="M1.68 1.31 C1.68 1.39, 1.67 1.47, 1.67 1.54 C1.66 1.62, 1.64 1.69, 1.63 1.76 C1.61 1.83, 1.59 1.9, 1.57 1.97 C1.54 2.04, 1.51 2.1, 1.48 2.16 C1.45 2.22, 1.42 2.27, 1.38 2.32 C1.34 2.37, 1.3 2.41, 1.26 2.45 C1.22 2.49, 1.17 2.52, 1.13 2.55 C1.08 2.57, 1.03 2.59, 0.99 2.61 C0.94 2.62, 0.89 2.63, 0.84 2.63 C0.79 2.63, 0.74 2.62, 0.69 2.61 C0.65 2.59, 0.6 2.57, 0.55 2.55 C0.51 2.52, 0.46 2.49, 0.42 2.45 C0.38 2.41, 0.34 2.37, 0.3 2.32 C0.26 2.27, 0.23 2.22, 0.2 2.16 C0.17 2.1, 0.14 2.04, 0.11 1.97 C0.09 1.9, 0.07 1.83, 0.05 1.76 C0.03 1.69, 0.02 1.62, 0.01 1.54 C0 1.47, 0 1.39, 0 1.31 C0 1.24, 0 1.16, 0.01 1.09 C0.02 1.01, 0.03 0.94, 0.05 0.86 C0.07 0.79, 0.09 0.72, 0.11 0.66 C0.14 0.59, 0.17 0.53, 0.2 0.47 C0.23 0.41, 0.26 0.36, 0.3 0.31 C0.34 0.26, 0.38 0.21, 0.42 0.18 C0.46 0.14, 0.51 0.11, 0.55 0.08 C0.6 0.05, 0.65 0.03, 0.69 0.02 C0.74 0.01, 0.79 0, 0.84 0 C0.89 0, 0.94 0.01, 0.99 0.02 C1.03 0.03, 1.08 0.05, 1.13 0.08 C1.17 0.11, 1.22 0.14, 1.26 0.18 C1.3 0.21, 1.34 0.26, 1.38 0.31 C1.42 0.36, 1.45 0.41, 1.48 0.47 C1.51 0.53, 1.54 0.59, 1.57 0.66 C1.59 0.72, 1.61 0.79, 1.63 0.86 C1.64 0.94, 1.66 1.01, 1.67 1.09 C1.67 1.16, 1.68 1.28, 1.68 1.31 C1.68 1.35, 1.68 1.28, 1.68 1.31" stroke="none" stroke-width="0" fill="#a5d8ff"></path><path d="M1.68 1.31 C1.68 1.39, 1.67 1.47, 1.67 1.54 C1.66 1.62, 1.64 1.69, 1.63 1.76 C1.61 1.83, 1.59 1.9, 1.57 1.97 C1.54 2.04, 1.51 2.1, 1.48 2.16 C1.45 2.22, 1.42 2.27, 1.38 2.32 C1.34 2.37, 1.3 2.41, 1.26 2.45 C1.22 2.49, 1.17 2.52, 1.13 2.55 C1.08 2.57, 1.03 2.59, 0.99 2.61 C0.94 2.62, 0.89 2.63, 0.84 2.63 C0.79 2.63, 0.74 2.62, 0.69 2.61 C0.65 2.59, 0.6 2.57, 0.55 2.55 C0.51 2.52, 0.46 2.49, 0.42 2.45 C0.38 2.41, 0.34 2.37, 0.3 2.32 C0.26 2.27, 0.23 2.22, 0.2 2.16 C0.17 2.1, 0.14 2.04, 0.11 1.97 C0.09 1.9, 0.07 1.83, 0.05 1.76 C0.03 1.69, 0.02 1.62, 0.01 1.54 C0 1.47, 0 1.39, 0 1.31 C0 1.24, 0 1.16, 0.01 1.09 C0.02 1.01, 0.03 0.94, 0.05 0.86 C0.07 0.79, 0.09 0.72, 0.11 0.66 C0.14 0.59, 0.17 0.53, 0.2 0.47 C0.23 0.41, 0.26 0.36, 0.3 0.31 C0.34 0.26, 0.38 0.21, 0.42 0.18 C0.46 0.14, 0.51 0.11, 0.55 0.08 C0.6 0.05, 0.65 0.03, 0.69 0.02 C0.74 0.01, 0.79 0, 0.84 0 C0.89 0, 0.94 0.01, 0.99 0.02 C1.03 0.03, 1.08 0.05, 1.13 0.08 C1.17 0.11, 1.22 0.14, 1.26 0.18 C1.3 0.21, 1.34 0.26, 1.38 0.31 C1.42 0.36, 1.45 0.41, 1.48 0.47 C1.51 0.53, 1.54 0.59, 1.57 0.66 C1.59 0.72, 1.61 0.79, 1.63 0.86 C1.64 0.94, 1.66 1.01, 1.67 1.09 C1.67 1.16, 1.68 1.28, 1.68 1.31 C1.68 1.35, 1.68 1.28, 1.68 1.31" stroke="#1e1e1e" stroke-width="1" fill="none"></path></g><g stroke-linecap="round"><g transform="translate(43.43563467173385 260.9909375543712) rotate(0 19.93893319740691 11.547386995016723)" fill-rule="evenodd"><path d="M0 0 C0 0, 0 0, 0 0 M0 0 C0 0, 0 0, 0 0 M1.05 4.89 C2.76 2.88, 4.24 1.52, 4.99 0.36 M1.05 4.89 C2.28 3.36, 3.62 2.04, 4.99 0.36 M2.76 9.02 C4.86 6.1, 8.6 3.13, 10.63 -0.03 M2.76 9.02 C4.21 7.02, 6.1 4.79, 10.63 -0.03 M3.81 13.91 C7.17 9.67, 9.7 7.11, 15.62 0.33 M3.81 13.91 C7.67 9.62, 11.05 5.84, 15.62 0.33 M4.86 18.8 C10.01 13.92, 14.63 7.36, 20.6 0.69 M4.86 18.8 C9 13.92, 13.36 8.47, 20.6 0.69 M6.57 22.93 C12.52 15.69, 19.6 6.44, 25.59 1.05 M6.57 22.93 C11.76 16.83, 17.5 10.34, 25.59 1.05 M11.55 23.29 C16.18 18.12, 19.12 13.22, 31.23 0.65 M11.55 23.29 C18.87 14.98, 25.37 7.2, 31.23 0.65 M17.2 22.9 C21.41 18.45, 26.84 12.53, 36.22 1.01 M17.2 22.9 C23.06 16.54, 29.3 8.96, 36.22 1.01 M22.18 23.26 C28.47 17.05, 33.89 10.24, 37.27 5.9 M22.18 23.26 C26.55 18.75, 30.37 13.79, 37.27 5.9" stroke="#b2f2bb" stroke-width="0.5" fill="none"></path><path d="M0 0 C14.79 0.5, 29.4 0.21, 39.88 1.19 M0 0 C14.39 0.59, 28.87 0.43, 39.88 1.19 M39.88 1.19 C36.35 9.5, 31.23 17.28, 27.5 22.96 M39.88 1.19 C36.9 6.97, 33.42 12.62, 27.5 22.96 M27.5 22.96 C21.04 22.64, 13.01 23.1, 6.27 23.09 M27.5 22.96 C19.66 23.05, 12.02 23.18, 6.27 23.09 M6.27 23.09 C4.66 15.28, 1.2 8.06, 0 0 M6.27 23.09 C3.97 15.87, 2 8.37, 0 0 M0 0 C0 0, 0 0, 0 0 M0 0 C0 0, 0 0, 0 0" stroke="#1e1e1e" stroke-width="1" fill="none"></path></g></g><mask></mask><g stroke-linecap="round"><g transform="translate(62.42000295562852 259.9491480997184) rotate(353.23161292112655 -1.1302826098063363 -6.483982829051726)"><path d="M0.04 -0.13 C0.3 -1.47, 2.35 -5.93, 1.64 -8.01 C0.93 -10.08, -3.24 -11.8, -4.25 -12.57 M-0.61 -0.68 C-0.17 -2.16, 3.35 -6.67, 2.69 -8.79 C2.02 -10.92, -3.42 -12.63, -4.59 -13.44" stroke="#1e1e1e" stroke-width="1" fill="none"></path></g></g><mask></mask><g stroke-linecap="round" transform="translate(51.23133551949621 242.58806597623712) rotate(353.23161292112655 3.0704034784437084 3.5427732443581874)"><path d="M1.27 1.11 C1.27 1.11, 1.27 1.11, 1.27 1.11 M1.27 1.11 C1.27 1.11, 1.27 1.11, 1.27 1.11 M1.67 6.75 C3.14 5.14, 4.51 3.7, 5.61 2.22 M1.67 6.75 C2.77 5.59, 3.7 4.34, 5.61 2.22" stroke="#b2f2bb" stroke-width="0.5" fill="none"></path><path d="M3.29 -0.09 C3.84 -0.09, 4.35 0.49, 4.86 1.01 C5.37 1.53, 6.16 2.28, 6.35 3.03 C6.53 3.79, 6.34 4.86, 5.96 5.55 C5.59 6.23, 4.78 6.96, 4.09 7.15 C3.4 7.33, 2.51 6.93, 1.85 6.65 C1.18 6.37, 0.35 6.09, 0.09 5.45 C-0.17 4.81, 0.05 3.57, 0.28 2.82 C0.5 2.06, 1.01 1.34, 1.44 0.92 C1.86 0.5, 2.51 0.46, 2.83 0.29 C3.16 0.13, 3.36 -0.09, 3.38 -0.08 M3.47 0.16 C4.21 0.32, 5.12 0.79, 5.6 1.33 C6.07 1.87, 6.28 2.65, 6.32 3.41 C6.36 4.18, 6.27 5.4, 5.84 5.92 C5.41 6.45, 4.4 6.43, 3.75 6.58 C3.11 6.73, 2.54 7.07, 1.95 6.81 C1.37 6.56, 0.59 5.75, 0.24 5.07 C-0.12 4.39, -0.31 3.45, -0.16 2.72 C0 2, 0.52 1.16, 1.15 0.71 C1.79 0.26, 3.29 0.1, 3.65 0 C4.01 -0.09, 3.29 0.09, 3.3 0.13" stroke="#1e1e1e" stroke-width="1" fill="none"></path></g><g stroke-linecap="round" transform="translate(65.4719003364367 265.6316093410285) rotate(353.23161292112655 4.589458547304979 2.5013765098961755)"><path d="M4.97 -0.08 C5.82 -0.02, 6.96 0.39, 7.62 0.79 C8.27 1.19, 8.77 1.75, 8.93 2.31 C9.08 2.87, 9.04 3.68, 8.53 4.14 C8.02 4.59, 6.85 4.95, 5.88 5.04 C4.92 5.12, 3.63 4.87, 2.76 4.63 C1.89 4.38, 1.09 3.97, 0.65 3.54 C0.2 3.12, -0.17 2.58, 0.09 2.09 C0.35 1.6, 1.33 0.99, 2.21 0.6 C3.1 0.22, 4.88 -0.17, 5.41 -0.22 C5.94 -0.27, 5.42 0.23, 5.39 0.3 M4.14 0.41 C5.13 0.34, 6.59 0.09, 7.42 0.26 C8.26 0.42, 8.92 0.79, 9.16 1.42 C9.39 2.05, 9.25 3.55, 8.83 4.04 C8.41 4.54, 7.53 4.19, 6.64 4.39 C5.75 4.58, 4.52 5.27, 3.47 5.2 C2.42 5.13, 0.95 4.5, 0.34 3.96 C-0.28 3.42, -0.37 2.45, -0.22 1.96 C-0.08 1.46, 0.54 1.31, 1.21 1 C1.89 0.7, 3.4 0.33, 3.85 0.13 C4.29 -0.06, 3.77 -0.2, 3.88 -0.17" stroke="none" stroke-width="0" fill="#b2f2bb"></path><path d="M4.22 0.17 C5.16 0.15, 6.81 0.28, 7.66 0.62 C8.51 0.95, 9.16 1.64, 9.32 2.19 C9.48 2.75, 9.16 3.54, 8.63 3.94 C8.1 4.34, 7.12 4.42, 6.16 4.6 C5.2 4.78, 3.74 5.17, 2.87 5.03 C2 4.89, 1.35 4.2, 0.93 3.74 C0.51 3.28, 0.33 2.73, 0.37 2.26 C0.42 1.8, 0.48 1.34, 1.2 0.94 C1.93 0.54, 4.17 0, 4.73 -0.15 C5.28 -0.3, 4.5 0.01, 4.51 0.04 M4.17 0.24 C5.11 0.12, 6.31 0.15, 7.15 0.43 C8 0.71, 8.96 1.53, 9.25 1.95 C9.53 2.38, 9.21 2.52, 8.85 2.99 C8.49 3.47, 7.93 4.45, 7.07 4.8 C6.21 5.15, 4.75 5.17, 3.69 5.08 C2.63 5, 1.38 4.69, 0.73 4.27 C0.07 3.86, -0.34 3.16, -0.23 2.58 C-0.13 2.01, 0.68 1.25, 1.35 0.83 C2.01 0.41, 3.28 0.21, 3.76 0.07 C4.24 -0.08, 4.21 -0.13, 4.23 -0.05" stroke="#1e1e1e" stroke-width="1" fill="none"></path></g><g stroke-linecap="round" transform="translate(51.29399699542685 266.94024935115294) rotate(353.23161292112655 4.051398863762145 2.5652351671113536)"><path d="M3.27 0.01 C4.07 -0.07, 5.22 0.05, 6.04 0.38 C6.86 0.7, 7.87 1.42, 8.2 1.97 C8.53 2.52, 8.36 3.22, 8.01 3.69 C7.67 4.15, 6.87 4.51, 6.1 4.75 C5.33 4.99, 4.29 5.17, 3.39 5.12 C2.48 5.06, 1.23 4.82, 0.69 4.4 C0.15 3.98, 0.04 3.24, 0.14 2.6 C0.25 1.96, 0.69 0.96, 1.31 0.56 C1.92 0.17, 3.39 0.32, 3.83 0.23 C4.27 0.14, 3.98 0.03, 3.94 0.01 M4 -0.2 C4.85 -0.41, 5.92 -0.39, 6.6 0.05 C7.29 0.49, 7.89 1.9, 8.09 2.44 C8.29 2.99, 8.2 2.87, 7.81 3.33 C7.42 3.79, 6.65 4.92, 5.75 5.21 C4.85 5.5, 3.3 5.32, 2.41 5.07 C1.52 4.81, 0.84 4.08, 0.42 3.66 C-0.01 3.25, -0.21 3.02, -0.13 2.55 C-0.05 2.08, 0.3 1.29, 0.9 0.82 C1.5 0.36, 2.94 -0.1, 3.47 -0.23 C4 -0.35, 4.1 0.01, 4.08 0.08" stroke="none" stroke-width="0" fill="#b2f2bb"></path><path d="M4.11 0.09 C5.01 0.04, 6.11 0.38, 6.75 0.74 C7.4 1.11, 7.86 1.81, 7.99 2.27 C8.11 2.73, 7.94 3.06, 7.49 3.53 C7.04 4, 6.04 4.85, 5.3 5.08 C4.56 5.31, 3.79 5.09, 3.07 4.92 C2.35 4.75, 1.53 4.45, 0.97 4.05 C0.41 3.66, -0.36 3.12, -0.27 2.53 C-0.19 1.94, 0.82 0.95, 1.5 0.53 C2.18 0.1, 3.35 0.11, 3.81 -0.01 C4.28 -0.13, 4.31 -0.25, 4.28 -0.2 M4.43 0.07 C5.26 0.07, 6.5 0.64, 7.11 0.94 C7.71 1.23, 7.95 1.3, 8.05 1.82 C8.16 2.34, 8.2 3.5, 7.73 4.06 C7.26 4.61, 6.17 4.96, 5.25 5.14 C4.33 5.32, 3.04 5.35, 2.21 5.14 C1.37 4.92, 0.53 4.4, 0.22 3.88 C-0.1 3.35, 0.1 2.53, 0.31 1.98 C0.52 1.43, 0.76 0.92, 1.47 0.56 C2.18 0.21, 4.12 -0.09, 4.57 -0.13 C5.01 -0.17, 4.24 0.21, 4.12 0.33" stroke="#1e1e1e" stroke-width="1" fill="none"></path></g><g stroke-linecap="round"><g transform="translate(63.78685606996896 265.50299109489174) rotate(33.554512829967095 5.403910122060999 -1.9650582262040217)"><path d="M-0.15 -0.32 C1.72 -0.96, 9.23 -2.98, 11.09 -3.52 M0.77 0.7 C2.6 -0.11, 9.15 -3.42, 10.8 -4.27" stroke="#1e1e1e" stroke-width="1" fill="none"></path></g></g><mask></mask><g stroke-linecap="round"><g transform="translate(49.02062735540045 263.7977122001339) rotate(322.75444907532636 5.035461704647737 1.350977530515209)"><path d="M0.28 0.41 C2.01 0.99, 8.53 2.73, 10.22 3.1 M-0.24 0.15 C1.44 0.6, 8.11 1.82, 9.87 2.34" stroke="#1e1e1e" stroke-width="1" fill="none"></path></g></g><mask></mask><g stroke-linecap="round" transform="translate(54.63854640839406 276.44376492085325) rotate(0 7.495396726789139 2.5285675704830908)"><path d="M7.59 0.15 C9.1 0.04, 11.18 0.05, 12.46 0.37 C13.73 0.69, 14.99 1.45, 15.24 2.08 C15.49 2.72, 14.75 3.66, 13.97 4.17 C13.18 4.69, 11.94 5.09, 10.53 5.16 C9.11 5.23, 7.03 4.74, 5.49 4.58 C3.96 4.42, 2.2 4.62, 1.32 4.21 C0.44 3.8, 0.07 2.75, 0.22 2.12 C0.37 1.49, 1.06 0.79, 2.23 0.43 C3.4 0.06, 6.26 -0.06, 7.22 -0.09 C8.18 -0.12, 7.97 0.14, 7.97 0.22 M6.01 -0.52 C7.48 -0.71, 9.76 0.35, 11.04 0.7 C12.32 1.06, 13.14 1.25, 13.68 1.6 C14.23 1.96, 14.69 2.23, 14.3 2.8 C13.91 3.38, 12.73 4.67, 11.35 5.08 C9.97 5.48, 7.67 5.42, 6.02 5.23 C4.38 5.04, 2.43 4.33, 1.5 3.91 C0.56 3.49, 0.52 3.2, 0.39 2.7 C0.27 2.2, -0.19 1.4, 0.76 0.91 C1.72 0.43, 5.3 -0.13, 6.14 -0.21 C6.98 -0.29, 5.81 0.37, 5.8 0.44" stroke="none" stroke-width="0" fill="#b2f2bb"></path><path d="M8.48 -0.29 C9.93 -0.27, 11.58 0.66, 12.72 1.1 C13.86 1.55, 15.16 1.83, 15.33 2.36 C15.51 2.89, 14.93 3.78, 13.78 4.29 C12.63 4.81, 10.02 5.42, 8.41 5.45 C6.8 5.49, 5.46 4.85, 4.1 4.5 C2.75 4.16, 0.82 3.93, 0.27 3.4 C-0.28 2.87, 0.29 1.82, 0.78 1.32 C1.27 0.82, 1.8 0.55, 3.22 0.39 C4.64 0.23, 8.21 0.36, 9.31 0.35 C10.4 0.34, 9.83 0.29, 9.79 0.34 M8.86 0.18 C10.39 0.35, 12.05 0.59, 12.99 1.01 C13.94 1.43, 14.54 2.18, 14.55 2.72 C14.57 3.26, 13.95 3.89, 13.1 4.27 C12.25 4.64, 10.99 4.87, 9.45 4.96 C7.91 5.06, 5.26 5.11, 3.86 4.83 C2.46 4.55, 1.68 3.74, 1.07 3.3 C0.45 2.86, -0.13 2.59, 0.17 2.19 C0.48 1.78, 1.42 1.16, 2.89 0.87 C4.36 0.59, 8.16 0.65, 9 0.46 C9.84 0.27, 8.07 -0.14, 7.93 -0.29" stroke="#1e1e1e" stroke-width="1" fill="none"></path></g><g stroke-linecap="round" transform="translate(67.8394752460087 267.7418802390056) rotate(0 1.0439371826708665 1.381681565299644)"><path d="M2.09 1.38 C2.09 1.46, 2.08 1.54, 2.07 1.62 C2.06 1.7, 2.05 1.78, 2.02 1.85 C2 1.93, 1.98 2, 1.95 2.07 C1.92 2.14, 1.88 2.21, 1.84 2.27 C1.8 2.33, 1.76 2.39, 1.71 2.44 C1.67 2.49, 1.62 2.54, 1.57 2.58 C1.51 2.62, 1.46 2.65, 1.4 2.68 C1.34 2.71, 1.28 2.73, 1.23 2.74 C1.17 2.76, 1.1 2.76, 1.04 2.76 C0.98 2.76, 0.92 2.76, 0.86 2.74 C0.8 2.73, 0.74 2.71, 0.69 2.68 C0.63 2.65, 0.57 2.62, 0.52 2.58 C0.47 2.54, 0.42 2.49, 0.37 2.44 C0.33 2.39, 0.28 2.33, 0.24 2.27 C0.21 2.21, 0.17 2.14, 0.14 2.07 C0.11 2, 0.08 1.93, 0.06 1.85 C0.04 1.78, 0.03 1.7, 0.02 1.62 C0.01 1.54, 0 1.46, 0 1.38 C0 1.3, 0.01 1.22, 0.02 1.14 C0.03 1.06, 0.04 0.98, 0.06 0.91 C0.08 0.83, 0.11 0.76, 0.14 0.69 C0.17 0.62, 0.21 0.55, 0.24 0.49 C0.28 0.43, 0.33 0.37, 0.37 0.32 C0.42 0.27, 0.47 0.23, 0.52 0.19 C0.57 0.15, 0.63 0.11, 0.69 0.08 C0.74 0.06, 0.8 0.03, 0.86 0.02 C0.92 0.01, 0.98 0, 1.04 0 C1.1 0, 1.17 0.01, 1.23 0.02 C1.28 0.03, 1.34 0.06, 1.4 0.08 C1.46 0.11, 1.51 0.15, 1.57 0.19 C1.62 0.23, 1.67 0.27, 1.71 0.32 C1.76 0.37, 1.8 0.43, 1.84 0.49 C1.88 0.55, 1.92 0.62, 1.95 0.69 C1.98 0.76, 2 0.83, 2.02 0.91 C2.05 0.98, 2.06 1.06, 2.07 1.14 C2.08 1.22, 2.09 1.34, 2.09 1.38 C2.09 1.42, 2.09 1.34, 2.09 1.38" stroke="none" stroke-width="0" fill="#b2f2bb"></path><path d="M2.09 1.38 C2.09 1.46, 2.08 1.54, 2.07 1.62 C2.06 1.7, 2.05 1.78, 2.02 1.85 C2 1.93, 1.98 2, 1.95 2.07 C1.92 2.14, 1.88 2.21, 1.84 2.27 C1.8 2.33, 1.76 2.39, 1.71 2.44 C1.67 2.49, 1.62 2.54, 1.57 2.58 C1.51 2.62, 1.46 2.65, 1.4 2.68 C1.34 2.71, 1.28 2.73, 1.23 2.74 C1.17 2.76, 1.1 2.76, 1.04 2.76 C0.98 2.76, 0.92 2.76, 0.86 2.74 C0.8 2.73, 0.74 2.71, 0.69 2.68 C0.63 2.65, 0.57 2.62, 0.52 2.58 C0.47 2.54, 0.42 2.49, 0.37 2.44 C0.33 2.39, 0.28 2.33, 0.24 2.27 C0.21 2.21, 0.17 2.14, 0.14 2.07 C0.11 2, 0.08 1.93, 0.06 1.85 C0.04 1.78, 0.03 1.7, 0.02 1.62 C0.01 1.54, 0 1.46, 0 1.38 C0 1.3, 0.01 1.22, 0.02 1.14 C0.03 1.06, 0.04 0.98, 0.06 0.91 C0.08 0.83, 0.11 0.76, 0.14 0.69 C0.17 0.62, 0.21 0.55, 0.24 0.49 C0.28 0.43, 0.33 0.37, 0.37 0.32 C0.42 0.27, 0.47 0.23, 0.52 0.19 C0.57 0.15, 0.63 0.11, 0.69 0.08 C0.74 0.06, 0.8 0.03, 0.86 0.02 C0.92 0.01, 0.98 0, 1.04 0 C1.1 0, 1.17 0.01, 1.23 0.02 C1.28 0.03, 1.34 0.06, 1.4 0.08 C1.46 0.11, 1.51 0.15, 1.57 0.19 C1.62 0.23, 1.67 0.27, 1.71 0.32 C1.76 0.37, 1.8 0.43, 1.84 0.49 C1.88 0.55, 1.92 0.62, 1.95 0.69 C1.98 0.76, 2 0.83, 2.02 0.91 C2.05 0.98, 2.06 1.06, 2.07 1.14 C2.08 1.22, 2.09 1.34, 2.09 1.38 C2.09 1.42, 2.09 1.34, 2.09 1.38" stroke="#1e1e1e" stroke-width="1" fill="none"></path></g><g stroke-linecap="round" transform="translate(53.77702731473718 268.9086335608131) rotate(0 1.0439371826708665 1.381681565299644)"><path d="M2.09 1.38 C2.09 1.46, 2.08 1.54, 2.07 1.62 C2.06 1.7, 2.05 1.78, 2.02 1.85 C2 1.93, 1.98 2, 1.95 2.07 C1.92 2.14, 1.88 2.21, 1.84 2.27 C1.8 2.33, 1.76 2.39, 1.71 2.44 C1.67 2.49, 1.62 2.54, 1.57 2.58 C1.51 2.62, 1.46 2.65, 1.4 2.68 C1.34 2.71, 1.28 2.73, 1.23 2.74 C1.17 2.76, 1.1 2.76, 1.04 2.76 C0.98 2.76, 0.92 2.76, 0.86 2.74 C0.8 2.73, 0.74 2.71, 0.69 2.68 C0.63 2.65, 0.57 2.62, 0.52 2.58 C0.47 2.54, 0.42 2.49, 0.37 2.44 C0.33 2.39, 0.28 2.33, 0.24 2.27 C0.21 2.21, 0.17 2.14, 0.14 2.07 C0.11 2, 0.08 1.93, 0.06 1.85 C0.04 1.78, 0.03 1.7, 0.02 1.62 C0.01 1.54, 0 1.46, 0 1.38 C0 1.3, 0.01 1.22, 0.02 1.14 C0.03 1.06, 0.04 0.98, 0.06 0.91 C0.08 0.83, 0.11 0.76, 0.14 0.69 C0.17 0.62, 0.21 0.55, 0.24 0.49 C0.28 0.43, 0.33 0.37, 0.37 0.32 C0.42 0.27, 0.47 0.23, 0.52 0.19 C0.57 0.15, 0.63 0.11, 0.69 0.08 C0.74 0.06, 0.8 0.03, 0.86 0.02 C0.92 0.01, 0.98 0, 1.04 0 C1.1 0, 1.17 0.01, 1.23 0.02 C1.28 0.03, 1.34 0.06, 1.4 0.08 C1.46 0.11, 1.51 0.15, 1.57 0.19 C1.62 0.23, 1.67 0.27, 1.71 0.32 C1.76 0.37, 1.8 0.43, 1.84 0.49 C1.88 0.55, 1.92 0.62, 1.95 0.69 C1.98 0.76, 2 0.83, 2.02 0.91 C2.05 0.98, 2.06 1.06, 2.07 1.14 C2.08 1.22, 2.09 1.34, 2.09 1.38 C2.09 1.42, 2.09 1.34, 2.09 1.38" stroke="none" stroke-width="0" fill="#b2f2bb"></path><path d="M2.09 1.38 C2.09 1.46, 2.08 1.54, 2.07 1.62 C2.06 1.7, 2.05 1.78, 2.02 1.85 C2 1.93, 1.98 2, 1.95 2.07 C1.92 2.14, 1.88 2.21, 1.84 2.27 C1.8 2.33, 1.76 2.39, 1.71 2.44 C1.67 2.49, 1.62 2.54, 1.57 2.58 C1.51 2.62, 1.46 2.65, 1.4 2.68 C1.34 2.71, 1.28 2.73, 1.23 2.74 C1.17 2.76, 1.1 2.76, 1.04 2.76 C0.98 2.76, 0.92 2.76, 0.86 2.74 C0.8 2.73, 0.74 2.71, 0.69 2.68 C0.63 2.65, 0.57 2.62, 0.52 2.58 C0.47 2.54, 0.42 2.49, 0.37 2.44 C0.33 2.39, 0.28 2.33, 0.24 2.27 C0.21 2.21, 0.17 2.14, 0.14 2.07 C0.11 2, 0.08 1.93, 0.06 1.85 C0.04 1.78, 0.03 1.7, 0.02 1.62 C0.01 1.54, 0 1.46, 0 1.38 C0 1.3, 0.01 1.22, 0.02 1.14 C0.03 1.06, 0.04 0.98, 0.06 0.91 C0.08 0.83, 0.11 0.76, 0.14 0.69 C0.17 0.62, 0.21 0.55, 0.24 0.49 C0.28 0.43, 0.33 0.37, 0.37 0.32 C0.42 0.27, 0.47 0.23, 0.52 0.19 C0.57 0.15, 0.63 0.11, 0.69 0.08 C0.74 0.06, 0.8 0.03, 0.86 0.02 C0.92 0.01, 0.98 0, 1.04 0 C1.1 0, 1.17 0.01, 1.23 0.02 C1.28 0.03, 1.34 0.06, 1.4 0.08 C1.46 0.11, 1.51 0.15, 1.57 0.19 C1.62 0.23, 1.67 0.27, 1.71 0.32 C1.76 0.37, 1.8 0.43, 1.84 0.49 C1.88 0.55, 1.92 0.62, 1.95 0.69 C1.98 0.76, 2 0.83, 2.02 0.91 C2.05 0.98, 2.06 1.06, 2.07 1.14 C2.08 1.22, 2.09 1.34, 2.09 1.38 C2.09 1.42, 2.09 1.34, 2.09 1.38" stroke="#1e1e1e" stroke-width="1" fill="none"></path></g><g stroke-linecap="round"><g transform="translate(50.9476452791848 324.72209791463814) rotate(0 18.701548459611885 -16.747655336965906)" fill-rule="evenodd"><path d="M1.88 -31.49 C1.88 -31.49, 1.88 -31.49, 1.88 -31.49 M1.88 -31.49 C1.88 -31.49, 1.88 -31.49, 1.88 -31.49 M1.61 -25.1 C3.84 -27.76, 5.57 -29.79, 7.52 -31.89 M1.61 -25.1 C2.86 -26.68, 4.29 -28.46, 7.52 -31.89 M0.7 -17.94 C4.95 -22.49, 9.1 -27.98, 13.16 -32.28 M0.7 -17.94 C4.62 -22.81, 9.66 -27.94, 13.16 -32.28 M0.44 -11.55 C6.03 -18.52, 12.02 -25.02, 18.81 -32.68 M0.44 -11.55 C4.72 -17.24, 9.76 -22.34, 18.81 -32.68 M0.17 -5.15 C5.13 -11.82, 11.1 -17.44, 23.79 -32.32 M0.17 -5.15 C9.07 -14.48, 16.77 -24.65, 23.79 -32.32 M0.57 0.49 C7.93 -6.24, 13.05 -14.65, 25.5 -28.18 M0.57 0.49 C8.08 -8.65, 16.49 -17.15, 25.5 -28.18 M6.21 0.1 C13.09 -8.52, 21.87 -16.42, 27.21 -24.05 M6.21 0.1 C10.22 -5.05, 15.56 -10.61, 27.21 -24.05 M11.86 -0.29 C18.31 -7.2, 25.36 -15.2, 29.57 -20.67 M11.86 -0.29 C16.4 -5.41, 20.28 -9.9, 29.57 -20.67 M16.84 0.07 C22.73 -5.38, 27.04 -10.6, 31.28 -16.54 M16.84 0.07 C21.82 -6.02, 26.87 -12.18, 31.28 -16.54 M22.49 -0.33 C25.45 -3.66, 27.64 -6.72, 32.98 -12.4 M22.49 -0.33 C24.74 -2.87, 27.65 -5.78, 32.98 -12.4 M28.13 -0.72 C30.85 -3.5, 33.72 -6.4, 34.69 -8.27 M28.13 -0.72 C30.74 -3.33, 33.13 -6.41, 34.69 -8.27 M33.77 -1.12 C34.27 -1.76, 34.96 -2.59, 36.4 -4.14 M33.77 -1.12 C34.59 -2.08, 35.47 -3.01, 36.4 -4.14" stroke="#b2f2bb" stroke-width="0.5" fill="none"></path><path d="M0 0 C-0.22 -11.44, 2.03 -24.06, 1.67 -31.26 M0 0 C1.06 -12.16, 1.06 -25.1, 1.67 -31.26 M1.67 -31.26 C7.18 -31.76, 14.82 -31.93, 23.45 -33.5 M1.67 -31.26 C9.45 -31.78, 16.58 -33.22, 23.45 -33.5 M23.45 -33.5 C28.67 -22.82, 33.75 -11.47, 37.4 -1.67 M23.45 -33.5 C27.95 -23.06, 32.96 -12.83, 37.4 -1.67 M37.4 -1.67 C27.67 -0.64, 17.25 -1.57, 0 0 M37.4 -1.67 C27.98 -1.8, 18.49 -0.62, 0 0 M0 0 C0 0, 0 0, 0 0 M0 0 C0 0, 0 0, 0 0" stroke="#1e1e1e" stroke-width="1" fill="none"></path></g></g><mask></mask><g stroke-linecap="round" transform="translate(290.10249689342646 164.44134769880833) rotate(0.8347181281138402 14.17199224359068 21.127749825361395)"><path d="M0 0 C0 0, 0 0, 0 0 M0 0 C0 0, 0 0, 0 0 M-0.26 6.4 C1.73 4.64, 3.06 2.1, 4.99 0.36 M-0.26 6.4 C1.62 4.37, 3.47 1.96, 4.99 0.36 M0.13 12.04 C3.25 7.72, 8.5 3.65, 10.63 -0.03 M0.13 12.04 C3.24 8.88, 6.26 5.81, 10.63 -0.03 M-0.13 18.44 C3.48 14.24, 7.59 8.53, 15.62 0.33 M-0.13 18.44 C6.2 11.33, 12.15 3.93, 15.62 0.33 M0.27 24.08 C9.05 15.43, 15.04 6.34, 21.26 -0.07 M0.27 24.08 C7.79 15.23, 15.51 6.75, 21.26 -0.07 M0 30.48 C8.36 21.76, 17.08 11.23, 26.25 0.29 M0 30.48 C9.35 20.21, 18.45 9.93, 26.25 0.29 M-0.26 36.88 C8.36 27.03, 17.42 15.58, 28.61 3.67 M-0.26 36.88 C6.82 28.04, 14.78 19.8, 28.61 3.67 M0.14 42.52 C9.56 33.68, 16.73 24.03, 29 9.31 M0.14 42.52 C10.71 30.06, 21.81 17.69, 29 9.31 M5.78 42.13 C13.86 30.96, 24.3 22.02, 28.74 15.71 M5.78 42.13 C12.96 34.05, 20.34 25.3, 28.74 15.71 M10.77 42.49 C13.72 37.3, 18.08 33.55, 28.48 22.11 M10.77 42.49 C15.44 36.78, 20.63 30.87, 28.48 22.11 M16.41 42.09 C18.27 39.2, 21.43 35.39, 28.88 27.75 M16.41 42.09 C21.1 36.62, 25.58 31.62, 28.88 27.75 M21.4 42.45 C24.09 40.09, 26.14 36.92, 28.61 34.15 M21.4 42.45 C23.23 40.22, 24.95 38.34, 28.61 34.15 M26.39 42.81 C26.86 42.12, 27.62 41.6, 29.01 39.79 M26.39 42.81 C27.32 41.62, 28.2 40.62, 29.01 39.79" stroke="#ffec99" stroke-width="0.5" fill="none"></path><path d="M0 0 C9.86 -0.89, 20.32 -0.67, 28.34 0 M0 0 C8.45 0.09, 16.52 -0.22, 28.34 0 M28.34 0 C29.3 16.61, 28.96 32.99, 28.34 42.26 M28.34 0 C28.56 9.58, 28.18 19.07, 28.34 42.26 M28.34 42.26 C21.14 41.95, 13.5 41.46, 0 42.26 M28.34 42.26 C18.92 42.4, 10.56 41.83, 0 42.26 M0 42.26 C-0.21 29.77, -0.66 16.39, 0 0 M0 42.26 C0.12 32.05, 0.03 23.06, 0 0" stroke="#000000" stroke-width="1" fill="none"></path></g><g stroke-linecap="round" transform="translate(290.6687230741345 122.31390095272653) rotate(3.8298096854314148 13.458193782437192 16.352191135854792)"><path d="M0 0 C0 0, 0 0, 0 0 M0 0 C0 0, 0 0, 0 0 M-0.26 6.4 C0.86 4.56, 2.55 3.17, 4.99 0.36 M-0.26 6.4 C0.84 4.93, 2.15 3.67, 4.99 0.36 M0.13 12.04 C4.62 8.17, 7.34 2.94, 10.63 -0.03 M0.13 12.04 C3.21 9.19, 5.4 5.67, 10.63 -0.03 M-0.13 18.44 C4.29 12.32, 10.61 7.41, 15.62 0.33 M-0.13 18.44 C5.17 11.98, 11.42 5.88, 15.62 0.33 M0.27 24.08 C3.82 19.08, 9.94 13.22, 21.26 -0.07 M0.27 24.08 C8.1 15.35, 16.21 6.08, 21.26 -0.07 M0 30.48 C6.97 22.73, 12.6 16.21, 26.25 0.29 M0 30.48 C9.54 20.07, 18.35 9.8, 26.25 0.29 M3.02 33.1 C11.33 22.81, 19.81 12.38, 27.3 5.18 M3.02 33.1 C9.32 26.08, 15.06 19.15, 27.3 5.18 M8.67 32.71 C12.64 28.34, 18.23 22.99, 27.69 10.82 M8.67 32.71 C16.27 24.33, 24 15.83, 27.69 10.82 M13.65 33.07 C19.37 27.97, 24.29 21.01, 27.43 17.22 M13.65 33.07 C16.76 29.32, 20.31 25.12, 27.43 17.22 M18.64 33.43 C21.15 30.32, 24.12 27.46, 27.17 23.62 M18.64 33.43 C20.84 30.78, 22.9 28.57, 27.17 23.62 M24.28 33.03 C25.11 31.87, 26.37 30.75, 27.56 29.26 M24.28 33.03 C25.55 31.61, 26.84 30.02, 27.56 29.26" stroke="#ffec99" stroke-width="0.5" fill="none"></path><path d="M0 0 C6.77 -0.61, 13.4 0.92, 26.92 0 M0 0 C9.53 -0.2, 18.75 0.04, 26.92 0 M26.92 0 C27.65 9.4, 26.35 17.97, 26.92 32.7 M26.92 0 C26.73 11.76, 26.8 23.89, 26.92 32.7 M26.92 32.7 C16.91 31.73, 6.58 33.58, 0 32.7 M26.92 32.7 C18.35 32.26, 9.25 32.49, 0 32.7 M0 32.7 C-0.71 25.15, -0.65 16.62, 0 0 M0 32.7 C-0.07 21.45, -0.19 9.73, 0 0" stroke="#000000" stroke-width="1" fill="none"></path></g><g stroke-linecap="round" transform="translate(307.5685173277499 131.88412266579442) rotate(353.23161292112655 3.810358554253426 2.33097300887019)"><path d="M3.47 -0.02 C4.21 -0.04, 5.29 0.3, 5.93 0.58 C6.58 0.85, 7.09 1.14, 7.33 1.64 C7.58 2.14, 7.76 3.16, 7.4 3.58 C7.03 4.01, 5.9 4.08, 5.15 4.21 C4.4 4.34, 3.68 4.48, 2.88 4.37 C2.07 4.26, 0.78 3.97, 0.33 3.57 C-0.11 3.17, 0.1 2.43, 0.21 1.97 C0.32 1.51, 0.43 1.13, 0.99 0.83 C1.56 0.53, 3.18 0.3, 3.6 0.17 C4.03 0.05, 3.46 0.04, 3.54 0.08 M3.9 0.12 C4.81 0.16, 6.02 0.58, 6.59 0.85 C7.17 1.12, 7.22 1.33, 7.33 1.71 C7.43 2.1, 7.54 2.73, 7.24 3.15 C6.94 3.57, 6.34 3.93, 5.54 4.24 C4.74 4.56, 3.24 5.12, 2.43 5.05 C1.62 4.99, 1.08 4.34, 0.69 3.87 C0.3 3.39, 0.04 2.75, 0.08 2.21 C0.12 1.67, 0.28 0.93, 0.94 0.62 C1.59 0.31, 3.62 0.35, 4 0.34 C4.38 0.33, 3.25 0.64, 3.22 0.54" stroke="none" stroke-width="0" fill="#ffec99"></path><path d="M4.41 0.26 C5.15 0.3, 5.97 0.72, 6.51 1.04 C7.06 1.35, 7.57 1.65, 7.67 2.13 C7.78 2.61, 7.61 3.44, 7.14 3.89 C6.66 4.33, 5.71 4.7, 4.83 4.8 C3.94 4.91, 2.53 4.76, 1.81 4.51 C1.09 4.27, 0.79 3.83, 0.51 3.32 C0.23 2.81, -0.05 1.98, 0.14 1.47 C0.32 0.96, 0.92 0.45, 1.62 0.25 C2.31 0.06, 3.82 0.35, 4.31 0.3 C4.79 0.24, 4.51 -0.01, 4.52 -0.06 M3.54 0.1 C4.29 -0.02, 5.95 -0.15, 6.64 0.12 C7.32 0.4, 7.61 1.21, 7.63 1.75 C7.65 2.3, 7.13 3, 6.74 3.4 C6.35 3.8, 5.99 4.04, 5.29 4.16 C4.58 4.29, 3.37 4.22, 2.52 4.14 C1.68 4.07, 0.63 4.15, 0.22 3.69 C-0.18 3.22, -0.09 1.86, 0.1 1.36 C0.3 0.87, 0.78 0.96, 1.39 0.73 C2 0.5, 3.29 0.08, 3.75 -0.02 C4.2 -0.11, 4.13 0.16, 4.15 0.14" stroke="#000000" stroke-width="1" fill="none"></path></g><g stroke-linecap="round" transform="translate(294.06083253924396 132.01326096753672) rotate(353.23161292112655 3.810358554253426 2.2916677233655314)"><path d="M3.49 0.1 C4.26 0.03, 5.25 -0.01, 5.96 0.31 C6.67 0.62, 7.55 1.54, 7.73 2 C7.91 2.46, 7.43 2.72, 7.04 3.09 C6.66 3.46, 6.22 4, 5.44 4.23 C4.66 4.45, 3.15 4.58, 2.37 4.45 C1.59 4.32, 1.19 3.82, 0.77 3.44 C0.34 3.06, -0.25 2.63, -0.19 2.18 C-0.13 1.74, 0.52 1.12, 1.13 0.76 C1.74 0.41, 2.95 0.13, 3.44 0.03 C3.94 -0.06, 4.08 0.21, 4.12 0.2 M4.03 0.38 C4.72 0.28, 5.27 0.15, 5.86 0.34 C6.44 0.52, 7.28 1.04, 7.55 1.5 C7.82 1.95, 7.89 2.5, 7.49 3.07 C7.08 3.63, 5.88 4.6, 5.1 4.89 C4.33 5.17, 3.57 4.96, 2.83 4.77 C2.1 4.58, 1.21 4.19, 0.7 3.74 C0.18 3.28, -0.41 2.51, -0.26 2.04 C-0.12 1.58, 0.98 1.23, 1.55 0.97 C2.11 0.72, 2.78 0.73, 3.14 0.5 C3.51 0.27, 3.62 -0.41, 3.72 -0.4" stroke="none" stroke-width="0" fill="#ffec99"></path><path d="M4.17 0.3 C4.94 0.27, 6.03 0.29, 6.66 0.63 C7.28 0.97, 7.86 1.77, 7.92 2.31 C7.99 2.85, 7.63 3.48, 7.04 3.87 C6.46 4.26, 5.21 4.55, 4.42 4.64 C3.63 4.74, 2.99 4.7, 2.3 4.43 C1.6 4.16, 0.64 3.51, 0.26 3.03 C-0.12 2.54, -0.22 1.9, 0.02 1.51 C0.25 1.11, 0.93 0.91, 1.68 0.64 C2.43 0.37, 4.02 0.03, 4.5 -0.11 C4.99 -0.26, 4.59 -0.33, 4.57 -0.22 M4.28 -0.47 C5.13 -0.53, 5.94 -0.02, 6.44 0.36 C6.94 0.75, 7.14 1.38, 7.28 1.85 C7.43 2.31, 7.67 2.77, 7.3 3.15 C6.93 3.53, 5.93 3.88, 5.07 4.13 C4.2 4.38, 2.88 4.87, 2.11 4.66 C1.34 4.45, 0.79 3.29, 0.44 2.85 C0.1 2.41, -0.12 2.41, 0.03 2.01 C0.18 1.61, 0.62 0.77, 1.32 0.45 C2.02 0.13, 3.78 0.23, 4.21 0.1 C4.65 -0.03, 3.97 -0.41, 3.94 -0.32" stroke="#000000" stroke-width="1" fill="none"></path></g><g stroke-linecap="round" transform="translate(301.0068965361078 97.32797736972202) rotate(359.66053689868505 3.538190086092399 4.08252702241438)"><path d="M1.89 0.32 C1.89 0.32, 1.89 0.32, 1.89 0.32 M1.89 0.32 C1.89 0.32, 1.89 0.32, 1.89 0.32 M1.63 6.72 C2.81 5.31, 4.24 3.74, 6.23 1.44 M1.63 6.72 C2.66 5.55, 3.49 4.42, 6.23 1.44" stroke="#ffec99" stroke-width="0.5" fill="none"></path><path d="M4.02 -0.07 C4.81 -0.05, 5.89 0.74, 6.43 1.43 C6.97 2.12, 7.31 3.19, 7.27 4.06 C7.22 4.93, 6.58 5.97, 6.13 6.65 C5.68 7.33, 5.27 8, 4.56 8.16 C3.86 8.31, 2.64 8, 1.9 7.57 C1.16 7.14, 0.43 6.31, 0.13 5.57 C-0.17 4.84, -0.17 4.01, 0.09 3.17 C0.36 2.33, 1.04 1.1, 1.72 0.53 C2.39 -0.05, 3.73 -0.25, 4.14 -0.26 C4.55 -0.27, 4.21 0.38, 4.2 0.45 M3.7 -0.24 C4.32 -0.22, 4.99 0.33, 5.6 0.89 C6.2 1.45, 7.15 2.29, 7.33 3.13 C7.51 3.96, 7.16 5.04, 6.67 5.89 C6.18 6.74, 5.15 7.97, 4.41 8.22 C3.67 8.47, 2.92 7.71, 2.24 7.38 C1.56 7.05, 0.74 6.92, 0.35 6.23 C-0.04 5.54, -0.31 4.1, -0.11 3.22 C0.1 2.34, 0.96 1.56, 1.57 0.97 C2.19 0.37, 3.25 -0.29, 3.6 -0.36 C3.96 -0.44, 3.73 0.37, 3.71 0.51" stroke="#000000" stroke-width="1" fill="none"></path></g><g stroke-linecap="round"><g transform="translate(322.559362065222 166.33546808232842) rotate(6.1993333318538895 5.749670630172332 -19.955461251862076)"><path d="M0.4 -0.18 C2.59 -3.56, 13.93 -13.57, 13.57 -20.11 C13.21 -26.65, 0.71 -36.16, -1.78 -39.4 M-0.07 -0.75 C2.06 -4.32, 13.73 -14.45, 13.37 -21.03 C13.01 -27.61, 0.21 -36.95, -2.21 -40.21" stroke="#000000" stroke-width="1" fill="none"></path></g></g><mask></mask><g stroke-linecap="round"><g transform="translate(287.2522194361684 166.6275517258045) rotate(353.2997217436242 -2.374819282308316 -17.97400563734962)"><path d="M0.46 0.09 C-0.54 -2.83, -5.66 -11.74, -5.58 -17.69 C-5.51 -23.64, -0.2 -32.52, 0.89 -35.63 M0.03 -0.34 C-1.09 -3.38, -6.21 -12.36, -6.1 -18.39 C-6 -24.43, -0.57 -33.59, 0.66 -36.53" stroke="#000000" stroke-width="1" fill="none"></path></g></g><mask></mask><g stroke-linecap="round"><g transform="translate(294.8586472897472 144.78853285908505) rotate(0 8.314746702317322 2.618260663708316)" fill-rule="evenodd"><path d="M0.3 -0.57 L16.1 0.17 L16.7 5.25 L-0.82 0.58" stroke="none" stroke-width="0" fill="#ffec99" fill-rule="evenodd"></path><path d="M0 0 C7.14 0.2, 13.23 0.19, 16.63 -0.42 M0 0 C3.92 -0.2, 7.39 -0.44, 16.63 -0.42 M16.63 -0.42 C16.6 1.07, 16.44 2.54, 16.13 5.66 M16.63 -0.42 C16.38 1.55, 16.43 3.31, 16.13 5.66 M16.13 5.66 C10.89 4.35, 5.52 2.33, 0 0 M16.13 5.66 C12.46 3.98, 8.68 3.29, 0 0 M0 0 C0 0, 0 0, 0 0 M0 0 C0 0, 0 0, 0 0" stroke="#000000" stroke-width="1" fill="none"></path></g></g><mask></mask><g stroke-linecap="round"><g transform="translate(302.2444688665072 122.13562924776008) rotate(0 0.0707638017218244 -8.527038107482797)"><path d="M0 0 C-0.45 -2.53, -1.89 -5.52, -2.69 -10.61 M0 0 C-1.13 -4.02, -2.08 -7.83, -2.69 -10.61 M-2.69 -10.61 C-0.5 -9.81, 1.58 -8.16, 2.83 -7.78 M-2.69 -10.61 C-0.8 -9.83, 0.95 -8.83, 2.83 -7.78 M2.83 -7.78 C2.18 -9.88, 1.91 -12.42, 1.56 -17.05 M2.83 -7.78 C2.35 -10.94, 1.85 -14.31, 1.56 -17.05" stroke="#000000" stroke-width="1" fill="none"></path></g></g><mask></mask><g stroke-linecap="round" transform="translate(310.52501598225723 132.82116466867933) rotate(0 0.5336325678750313 0.906672465124359)"><path d="M1.07 0.91 C1.07 0.96, 1.06 1.01, 1.06 1.06 C1.05 1.12, 1.05 1.17, 1.04 1.22 C1.02 1.27, 1.01 1.31, 1 1.36 C0.98 1.41, 0.96 1.45, 0.94 1.49 C0.92 1.53, 0.9 1.57, 0.88 1.6 C0.85 1.63, 0.83 1.67, 0.8 1.69 C0.77 1.72, 0.75 1.74, 0.72 1.76 C0.69 1.78, 0.66 1.79, 0.63 1.8 C0.6 1.81, 0.56 1.81, 0.53 1.81 C0.5 1.81, 0.47 1.81, 0.44 1.8 C0.41 1.79, 0.38 1.78, 0.35 1.76 C0.32 1.74, 0.29 1.72, 0.27 1.69 C0.24 1.67, 0.21 1.63, 0.19 1.6 C0.17 1.57, 0.14 1.53, 0.12 1.49 C0.1 1.45, 0.09 1.41, 0.07 1.36 C0.06 1.31, 0.04 1.27, 0.03 1.22 C0.02 1.17, 0.01 1.12, 0.01 1.06 C0 1.01, 0 0.96, 0 0.91 C0 0.85, 0 0.8, 0.01 0.75 C0.01 0.7, 0.02 0.65, 0.03 0.6 C0.04 0.55, 0.06 0.5, 0.07 0.45 C0.09 0.41, 0.1 0.36, 0.12 0.32 C0.14 0.28, 0.17 0.25, 0.19 0.21 C0.21 0.18, 0.24 0.15, 0.27 0.12 C0.29 0.1, 0.32 0.07, 0.35 0.05 C0.38 0.04, 0.41 0.02, 0.44 0.01 C0.47 0, 0.5 0, 0.53 0 C0.56 0, 0.6 0, 0.63 0.01 C0.66 0.02, 0.69 0.04, 0.72 0.05 C0.75 0.07, 0.77 0.1, 0.8 0.12 C0.83 0.15, 0.85 0.18, 0.88 0.21 C0.9 0.25, 0.92 0.28, 0.94 0.32 C0.96 0.36, 0.98 0.41, 1 0.45 C1.01 0.5, 1.02 0.55, 1.04 0.6 C1.05 0.65, 1.05 0.7, 1.06 0.75 C1.06 0.8, 1.07 0.88, 1.07 0.91 C1.07 0.93, 1.07 0.88, 1.07 0.91" stroke="none" stroke-width="0" fill="#ffec99"></path><path d="M1.07 0.91 C1.07 0.96, 1.06 1.01, 1.06 1.06 C1.05 1.12, 1.05 1.17, 1.04 1.22 C1.02 1.27, 1.01 1.31, 1 1.36 C0.98 1.41, 0.96 1.45, 0.94 1.49 C0.92 1.53, 0.9 1.57, 0.88 1.6 C0.85 1.63, 0.83 1.67, 0.8 1.69 C0.77 1.72, 0.75 1.74, 0.72 1.76 C0.69 1.78, 0.66 1.79, 0.63 1.8 C0.6 1.81, 0.56 1.81, 0.53 1.81 C0.5 1.81, 0.47 1.81, 0.44 1.8 C0.41 1.79, 0.38 1.78, 0.35 1.76 C0.32 1.74, 0.29 1.72, 0.27 1.69 C0.24 1.67, 0.21 1.63, 0.19 1.6 C0.17 1.57, 0.14 1.53, 0.12 1.49 C0.1 1.45, 0.09 1.41, 0.07 1.36 C0.06 1.31, 0.04 1.27, 0.03 1.22 C0.02 1.17, 0.01 1.12, 0.01 1.06 C0 1.01, 0 0.96, 0 0.91 C0 0.85, 0 0.8, 0.01 0.75 C0.01 0.7, 0.02 0.65, 0.03 0.6 C0.04 0.55, 0.06 0.5, 0.07 0.45 C0.09 0.41, 0.1 0.36, 0.12 0.32 C0.14 0.28, 0.17 0.25, 0.19 0.21 C0.21 0.18, 0.24 0.15, 0.27 0.12 C0.29 0.1, 0.32 0.07, 0.35 0.05 C0.38 0.04, 0.41 0.02, 0.44 0.01 C0.47 0, 0.5 0, 0.53 0 C0.56 0, 0.6 0, 0.63 0.01 C0.66 0.02, 0.69 0.04, 0.72 0.05 C0.75 0.07, 0.77 0.1, 0.8 0.12 C0.83 0.15, 0.85 0.18, 0.88 0.21 C0.9 0.25, 0.92 0.28, 0.94 0.32 C0.96 0.36, 0.98 0.41, 1 0.45 C1.01 0.5, 1.02 0.55, 1.04 0.6 C1.05 0.65, 1.05 0.7, 1.06 0.75 C1.06 0.8, 1.07 0.88, 1.07 0.91 C1.07 0.93, 1.07 0.88, 1.07 0.91" stroke="#000000" stroke-width="1" fill="none"></path></g><g stroke-linecap="round" transform="translate(297.64429925705497 132.1706234199319) rotate(0 0.5336325678750313 0.906672465124359)"><path d="M1.07 0.91 C1.07 0.96, 1.06 1.01, 1.06 1.06 C1.05 1.12, 1.05 1.17, 1.04 1.22 C1.02 1.27, 1.01 1.31, 1 1.36 C0.98 1.41, 0.96 1.45, 0.94 1.49 C0.92 1.53, 0.9 1.57, 0.88 1.6 C0.85 1.63, 0.83 1.67, 0.8 1.69 C0.77 1.72, 0.75 1.74, 0.72 1.76 C0.69 1.78, 0.66 1.79, 0.63 1.8 C0.6 1.81, 0.56 1.81, 0.53 1.81 C0.5 1.81, 0.47 1.81, 0.44 1.8 C0.41 1.79, 0.38 1.78, 0.35 1.76 C0.32 1.74, 0.29 1.72, 0.27 1.69 C0.24 1.67, 0.21 1.63, 0.19 1.6 C0.17 1.57, 0.14 1.53, 0.12 1.49 C0.1 1.45, 0.09 1.41, 0.07 1.36 C0.06 1.31, 0.04 1.27, 0.03 1.22 C0.02 1.17, 0.01 1.12, 0.01 1.06 C0 1.01, 0 0.96, 0 0.91 C0 0.85, 0 0.8, 0.01 0.75 C0.01 0.7, 0.02 0.65, 0.03 0.6 C0.04 0.55, 0.06 0.5, 0.07 0.45 C0.09 0.41, 0.1 0.36, 0.12 0.32 C0.14 0.28, 0.17 0.25, 0.19 0.21 C0.21 0.18, 0.24 0.15, 0.27 0.12 C0.29 0.1, 0.32 0.07, 0.35 0.05 C0.38 0.04, 0.41 0.02, 0.44 0.01 C0.47 0, 0.5 0, 0.53 0 C0.56 0, 0.6 0, 0.63 0.01 C0.66 0.02, 0.69 0.04, 0.72 0.05 C0.75 0.07, 0.77 0.1, 0.8 0.12 C0.83 0.15, 0.85 0.18, 0.88 0.21 C0.9 0.25, 0.92 0.28, 0.94 0.32 C0.96 0.36, 0.98 0.41, 1 0.45 C1.01 0.5, 1.02 0.55, 1.04 0.6 C1.05 0.65, 1.05 0.7, 1.06 0.75 C1.06 0.8, 1.07 0.88, 1.07 0.91 C1.07 0.93, 1.07 0.88, 1.07 0.91" stroke="none" stroke-width="0" fill="#ffec99"></path><path d="M1.07 0.91 C1.07 0.96, 1.06 1.01, 1.06 1.06 C1.05 1.12, 1.05 1.17, 1.04 1.22 C1.02 1.27, 1.01 1.31, 1 1.36 C0.98 1.41, 0.96 1.45, 0.94 1.49 C0.92 1.53, 0.9 1.57, 0.88 1.6 C0.85 1.63, 0.83 1.67, 0.8 1.69 C0.77 1.72, 0.75 1.74, 0.72 1.76 C0.69 1.78, 0.66 1.79, 0.63 1.8 C0.6 1.81, 0.56 1.81, 0.53 1.81 C0.5 1.81, 0.47 1.81, 0.44 1.8 C0.41 1.79, 0.38 1.78, 0.35 1.76 C0.32 1.74, 0.29 1.72, 0.27 1.69 C0.24 1.67, 0.21 1.63, 0.19 1.6 C0.17 1.57, 0.14 1.53, 0.12 1.49 C0.1 1.45, 0.09 1.41, 0.07 1.36 C0.06 1.31, 0.04 1.27, 0.03 1.22 C0.02 1.17, 0.01 1.12, 0.01 1.06 C0 1.01, 0 0.96, 0 0.91 C0 0.85, 0 0.8, 0.01 0.75 C0.01 0.7, 0.02 0.65, 0.03 0.6 C0.04 0.55, 0.06 0.5, 0.07 0.45 C0.09 0.41, 0.1 0.36, 0.12 0.32 C0.14 0.28, 0.17 0.25, 0.19 0.21 C0.21 0.18, 0.24 0.15, 0.27 0.12 C0.29 0.1, 0.32 0.07, 0.35 0.05 C0.38 0.04, 0.41 0.02, 0.44 0.01 C0.47 0, 0.5 0, 0.53 0 C0.56 0, 0.6 0, 0.63 0.01 C0.66 0.02, 0.69 0.04, 0.72 0.05 C0.75 0.07, 0.77 0.1, 0.8 0.12 C0.83 0.15, 0.85 0.18, 0.88 0.21 C0.9 0.25, 0.92 0.28, 0.94 0.32 C0.96 0.36, 0.98 0.41, 1 0.45 C1.01 0.5, 1.02 0.55, 1.04 0.6 C1.05 0.65, 1.05 0.7, 1.06 0.75 C1.06 0.8, 1.07 0.88, 1.07 0.91 C1.07 0.93, 1.07 0.88, 1.07 0.91" stroke="#000000" stroke-width="1" fill="none"></path></g><g stroke-linecap="round" transform="translate(279.0728926581599 293.7624288229203) rotate(5.051527693164284 18.14279951424652 17.55278977394582)"><path d="M0 0 C0 0, 0 0, 0 0 M0 0 C0 0, 0 0, 0 0 M-0.26 6.4 C1.47 4.16, 3.29 2.32, 4.99 0.36 M-0.26 6.4 C1.57 4.43, 2.98 2.85, 4.99 0.36 M0.13 12.04 C3.68 7.61, 9.08 2.9, 10.63 -0.03 M0.13 12.04 C3.03 8.59, 5.19 6.11, 10.63 -0.03 M-0.13 18.44 C4.65 13.04, 8.59 7.35, 15.62 0.33 M-0.13 18.44 C2.98 14.43, 6.05 10.75, 15.62 0.33 M0.27 24.08 C7.08 16.84, 12.91 10.63, 21.26 -0.07 M0.27 24.08 C6.26 17.47, 11.85 10.54, 21.26 -0.07 M0 30.48 C6.02 22.09, 14.61 14.79, 26.25 0.29 M0 30.48 C8.81 20.63, 18.73 9.43, 26.25 0.29 M1.06 35.37 C13.2 21.96, 24.23 7.59, 31.89 -0.1 M1.06 35.37 C7.85 26.77, 14.86 19.16, 31.89 -0.1 M6.04 35.73 C12.53 27.57, 21.09 18.7, 36.88 0.26 M6.04 35.73 C15.51 24.56, 24.66 13.73, 36.88 0.26 M11.03 36.09 C18.08 27.43, 25.49 20.31, 36.62 6.65 M11.03 36.09 C18.61 27.54, 27.14 17.75, 36.62 6.65 M16.67 35.69 C25.4 25.87, 32.5 17.7, 37.01 12.3 M16.67 35.69 C22.6 28.98, 28.53 22.1, 37.01 12.3 M21.66 36.05 C27.13 28.86, 32.07 22.28, 36.75 18.7 M21.66 36.05 C26.34 31.36, 29.97 25.92, 36.75 18.7 M27.3 35.66 C31.43 31.47, 35.05 27.69, 36.49 25.09 M27.3 35.66 C29.54 32.56, 32.19 29.97, 36.49 25.09 M32.29 36.02 C33.45 34.64, 34.73 33.19, 36.88 30.74 M32.29 36.02 C33.91 34.2, 35.44 32.16, 36.88 30.74" stroke="#ffc9c9" stroke-width="0.5" fill="none"></path><path d="M0 0 C10.6 -0.53, 22.69 -0.16, 36.29 0 M0 0 C11.7 0.35, 23.65 -0.12, 36.29 0 M36.29 0 C37.05 8.18, 36.42 18.62, 36.29 35.11 M36.29 0 C36.37 10.04, 36.34 19.21, 36.29 35.11 M36.29 35.11 C23.91 34.33, 12.3 35.17, 0 35.11 M36.29 35.11 C26.29 34.85, 17.15 35.02, 0 35.11 M0 35.11 C-0.42 25.2, 0.65 12.43, 0 0 M0 35.11 C-0.56 25.45, 0.3 16.42, 0 0" stroke="#000000" stroke-width="1" fill="none"></path></g><g stroke-linecap="round" transform="translate(275.3157168350926 259.982542939391) rotate(353.23161292112655 21.270868396013157 12.547879563119196)"><path d="M0 0 C0 0, 0 0, 0 0 M0 0 C0 0, 0 0, 0 0 M-0.26 6.4 C1.32 4.59, 2.6 2.97, 4.99 0.36 M-0.26 6.4 C1.12 4.96, 2.76 2.99, 4.99 0.36 M0.13 12.04 C3.14 9.68, 4.61 6.66, 10.63 -0.03 M0.13 12.04 C3.83 7.74, 8.32 2.42, 10.63 -0.03 M-0.13 18.44 C3.74 12.87, 8.44 7.04, 15.62 0.33 M-0.13 18.44 C3.39 13.82, 7.66 9.61, 15.62 0.33 M0.27 24.08 C6.72 17.68, 12.36 10.02, 21.26 -0.07 M0.27 24.08 C4.64 18.73, 9.09 14.02, 21.26 -0.07 M4.6 25.2 C10.97 19.22, 16.41 11.41, 26.25 0.29 M4.6 25.2 C9.86 19.37, 14.51 14.09, 26.25 0.29 M9.58 25.56 C15.87 17.07, 22.07 10.17, 31.89 -0.1 M9.58 25.56 C16.52 17.44, 23.96 8.51, 31.89 -0.1 M15.23 25.16 C23.9 15.52, 30.87 7.75, 36.88 0.26 M15.23 25.16 C22.86 16.01, 31.1 6.57, 36.88 0.26 M20.21 25.52 C26.37 19.25, 31.09 12.39, 42.52 -0.14 M20.21 25.52 C27.85 16.82, 34.95 8.95, 42.52 -0.14 M25.86 25.13 C28.97 21.6, 32.72 16.57, 42.91 5.51 M25.86 25.13 C30.98 19.19, 36.21 13.65, 42.91 5.51 M30.84 25.49 C34.51 19.66, 39.38 16.11, 43.31 11.15 M30.84 25.49 C35.23 19.89, 40.44 14.43, 43.31 11.15 M36.49 25.09 C38.35 23.54, 39.18 22.06, 43.05 17.55 M36.49 25.09 C38.99 22.27, 41.41 19.65, 43.05 17.55 M41.47 25.45 C41.8 25.07, 42.45 24.42, 43.44 23.19 M41.47 25.45 C41.96 24.79, 42.49 24.2, 43.44 23.19" stroke="#ffc9c9" stroke-width="0.5" fill="none"></path><path d="M0 0 C12.21 -0.06, 25.21 0.78, 42.54 0 M0 0 C16.32 -0.19, 31.75 0.07, 42.54 0 M42.54 0 C42.66 9.03, 42.41 16.62, 42.54 25.1 M42.54 0 C42.67 8.59, 42.68 17.89, 42.54 25.1 M42.54 25.1 C31.69 25.13, 21.95 25.47, 0 25.1 M42.54 25.1 C31.86 25.01, 20.61 25.15, 0 25.1 M0 25.1 C0.74 15.36, -0.33 8.41, 0 0 M0 25.1 C0.57 17.18, -0.02 9.42, 0 0" stroke="#000000" stroke-width="1" fill="none"></path></g><g stroke-linecap="round" transform="translate(282.4464572780625 276.4912145137435) rotate(353.23161292112655 12.031034160640942 2.4062068321281913)"><path d="M-0.39 -1 L24.42 0.85 L23.69 4.49 L-0.46 3.94" stroke="none" stroke-width="0" fill="#ffc9c9"></path><path d="M0 0 C6.12 0.69, 12.57 0.1, 24.06 0 M0 0 C9.37 0.27, 19.35 0.33, 24.06 0 M24.06 0 C24.01 0.98, 24.2 2.15, 24.06 4.81 M24.06 0 C24.09 1.69, 23.99 3.29, 24.06 4.81 M24.06 4.81 C18.12 5.35, 12.4 4.29, 0 4.81 M24.06 4.81 C17.76 4.95, 11.61 4.62, 0 4.81 M0 4.81 C-0.11 3.13, -0.01 0.79, 0 0 M0 4.81 C-0.05 3.7, -0.05 2.79, 0 0" stroke="#000000" stroke-width="1" fill="none"></path></g><g stroke-linecap="round" transform="translate(299.0343573750174 265.5121688520826) rotate(353.23161292112655 3.3686895649794764 1.6843447824897453)"><path d="M3.22 0.08 C3.95 -0.03, 4.74 0.06, 5.31 0.21 C5.89 0.37, 6.46 0.68, 6.66 1.02 C6.87 1.35, 6.86 1.9, 6.55 2.24 C6.24 2.58, 5.49 2.83, 4.79 3.06 C4.09 3.29, 3.1 3.7, 2.37 3.62 C1.64 3.55, 0.74 2.9, 0.4 2.6 C0.06 2.3, 0.26 2.24, 0.32 1.84 C0.39 1.45, 0.35 0.52, 0.77 0.23 C1.2 -0.05, 2.44 0.14, 2.89 0.14 C3.34 0.13, 3.44 0.19, 3.46 0.2 M3.4 0.49 C4.05 0.53, 5.36 0.1, 5.91 0.29 C6.47 0.48, 6.72 1.29, 6.74 1.62 C6.76 1.96, 6.51 2.09, 6.05 2.3 C5.59 2.51, 4.73 2.78, 3.98 2.88 C3.22 2.98, 2.17 3.04, 1.51 2.9 C0.85 2.75, 0.31 2.34, 0.02 2.02 C-0.27 1.69, -0.49 1.24, -0.23 0.95 C0.03 0.67, 0.9 0.42, 1.58 0.32 C2.26 0.22, 3.48 0.37, 3.85 0.36 C4.22 0.34, 3.73 0.27, 3.78 0.23" stroke="none" stroke-width="0" fill="#ffc9c9"></path><path d="M3.42 -0.14 C4.09 -0.18, 5.17 0.32, 5.75 0.53 C6.33 0.74, 6.83 0.77, 6.92 1.14 C7 1.51, 6.69 2.4, 6.28 2.74 C5.86 3.09, 5.06 3.09, 4.41 3.19 C3.76 3.29, 3 3.45, 2.36 3.34 C1.73 3.24, 1.03 2.89, 0.6 2.57 C0.18 2.26, -0.29 1.84, -0.18 1.44 C-0.08 1.04, 0.65 0.45, 1.23 0.17 C1.8 -0.1, 2.92 -0.21, 3.28 -0.22 C3.64 -0.23, 3.37 0, 3.39 0.1 M3.44 0 C4.18 0.01, 4.83 0.28, 5.4 0.46 C5.98 0.64, 6.65 0.71, 6.9 1.09 C7.14 1.48, 7.32 2.45, 6.89 2.77 C6.45 3.1, 4.94 2.94, 4.28 3.03 C3.62 3.13, 3.61 3.47, 2.92 3.32 C2.24 3.18, 0.59 2.53, 0.18 2.17 C-0.22 1.82, 0.37 1.58, 0.49 1.22 C0.61 0.87, 0.49 0.27, 0.91 0.06 C1.33 -0.14, 2.69 0.09, 3.03 0 C3.37 -0.09, 2.89 -0.56, 2.95 -0.46" stroke="#000000" stroke-width="1" fill="none"></path></g><g stroke-linecap="round" transform="translate(282.4537676028252 267.5786697274409) rotate(353.23161292112655 3.3686895649794764 1.6843447824897453)"><path d="M3.74 -0.09 C4.42 -0.13, 5.33 0.03, 5.85 0.28 C6.37 0.53, 6.83 1.04, 6.88 1.42 C6.92 1.79, 6.57 2.16, 6.1 2.53 C5.63 2.9, 4.79 3.54, 4.05 3.64 C3.31 3.74, 2.25 3.32, 1.67 3.15 C1.09 2.99, 0.88 3.04, 0.58 2.67 C0.29 2.31, -0.21 1.33, -0.1 0.96 C0.01 0.58, 0.55 0.54, 1.24 0.41 C1.93 0.28, 3.64 0.23, 4.04 0.18 C4.45 0.13, 3.7 0.07, 3.7 0.1 M3 -0.27 C3.75 -0.41, 4.62 0.08, 5.23 0.26 C5.84 0.43, 6.45 0.49, 6.64 0.76 C6.84 1.04, 6.74 1.53, 6.41 1.89 C6.07 2.25, 5.31 2.73, 4.64 2.93 C3.97 3.12, 3.11 3.11, 2.38 3.04 C1.65 2.97, 0.65 2.73, 0.25 2.5 C-0.15 2.27, -0.13 1.93, -0.03 1.66 C0.08 1.39, 0.41 1.11, 0.9 0.87 C1.38 0.62, 2.49 0.34, 2.9 0.18 C3.31 0.03, 3.31 0.01, 3.34 -0.06" stroke="none" stroke-width="0" fill="#ffc9c9"></path><path d="M3.93 0.13 C4.65 0.13, 5.57 -0.03, 6.03 0.25 C6.5 0.52, 6.75 1.39, 6.74 1.78 C6.74 2.17, 6.41 2.33, 6.01 2.6 C5.61 2.87, 5.01 3.3, 4.35 3.41 C3.68 3.51, 2.76 3.42, 2.04 3.26 C1.32 3.1, 0.35 2.8, 0.04 2.43 C-0.28 2.05, -0.08 1.4, 0.13 1 C0.33 0.61, 0.68 0.21, 1.26 0.06 C1.84 -0.09, 3.18 0.05, 3.6 0.08 C4.03 0.1, 3.81 0.24, 3.82 0.23 M3.22 0.14 C3.89 0.07, 4.98 -0.11, 5.63 0.14 C6.29 0.4, 7.09 1.29, 7.13 1.64 C7.18 1.99, 6.25 1.98, 5.93 2.25 C5.6 2.52, 5.85 3.15, 5.19 3.25 C4.54 3.35, 2.71 3, 2.02 2.85 C1.32 2.69, 1.38 2.62, 1.03 2.33 C0.68 2.03, -0.08 1.4, -0.1 1.08 C-0.11 0.77, 0.43 0.72, 0.94 0.46 C1.46 0.19, 2.57 -0.5, 2.97 -0.5 C3.37 -0.5, 3.34 0.38, 3.35 0.46" stroke="#000000" stroke-width="1" fill="none"></path></g><g stroke-linecap="round"><g transform="translate(292.11401995236815 260.12755677319404) rotate(353.23161292112655 -1.4448817917277808 -7.260744530569944)"><path d="M0 0 C-0.94 -4.78, -1.44 -8.67, -2.89 -14.52 M0 0 C-0.78 -5.41, -2.15 -10.45, -2.89 -14.52" stroke="#000000" stroke-width="1" fill="none"></path></g></g><mask></mask><g stroke-linecap="round" transform="translate(283.7551772250472 237.41196105711253) rotate(353.23161292112655 3.128068881766609 3.609310248192301)"><path d="M1.1 0.95 C1.1 0.95, 1.1 0.95, 1.1 0.95 M1.1 0.95 C1.1 0.95, 1.1 0.95, 1.1 0.95 M1.49 6.6 C3.13 4.61, 5.32 2.53, 6.08 1.31 M1.49 6.6 C2.73 5.13, 3.76 3.95, 6.08 1.31" stroke="#ffc9c9" stroke-width="0.5" fill="none"></path><path d="M3.33 0.2 C3.92 0.24, 4.69 0.39, 5.21 0.91 C5.72 1.42, 6.31 2.49, 6.42 3.28 C6.54 4.07, 6.35 5.02, 5.91 5.67 C5.47 6.31, 4.45 6.96, 3.78 7.14 C3.1 7.31, 2.49 7.07, 1.87 6.71 C1.26 6.36, 0.42 5.65, 0.08 5 C-0.25 4.35, -0.33 3.52, -0.15 2.83 C0.03 2.14, 0.59 1.38, 1.16 0.88 C1.72 0.38, 2.88 -0.07, 3.24 -0.17 C3.6 -0.27, 3.3 0.2, 3.31 0.3 M3.76 0.35 C4.28 0.34, 4.3 0.29, 4.79 0.76 C5.28 1.23, 6.62 2.44, 6.71 3.16 C6.81 3.89, 5.74 4.5, 5.37 5.1 C5.01 5.7, 5.13 6.53, 4.54 6.77 C3.94 7.01, 2.52 6.78, 1.81 6.53 C1.09 6.28, 0.56 5.97, 0.24 5.27 C-0.08 4.57, -0.31 3.01, -0.12 2.32 C0.07 1.64, 0.87 1.58, 1.41 1.17 C1.94 0.75, 2.81 0.1, 3.08 -0.16 C3.36 -0.41, 2.95 -0.48, 3.04 -0.36" stroke="#000000" stroke-width="1" fill="none"></path></g><g stroke-linecap="round"><g transform="translate(295.2541031880567 265.35671032426035) rotate(0 5.505401231909303 -2.0019640843306803)"><path d="M0.2 0.37 C2 -0.35, 8.7 -3.24, 10.55 -3.98 M-0.36 0.08 C1.62 -0.56, 9.63 -2.66, 11.55 -3.27" stroke="#000000" stroke-width="4" fill="none"></path></g></g><mask></mask><g stroke-linecap="round"><g transform="translate(280.2433228306455 263.62157674678974) rotate(0 5.130032966097289 1.376350307977276)"><path d="M-0.46 0.02 C1.27 0.4, 8.82 2.13, 10.59 2.64 M0.31 -0.45 C1.98 -0.02, 8.76 2.84, 10.32 3.28" stroke="#000000" stroke-width="4" fill="none"></path></g></g><mask></mask></svg>