<svg version="1.1" xmlns="http://www.w3.org/2000/svg" viewBox="0 0 377.82563735528765 300.0733523792984" width="377.82563735528765" height="300.0733523792984">
  <!-- svg-source:excalidraw -->
  
  <defs>
    <style class="style-fonts">
      @font-face {
        font-family: "Virgil";
        src: url("https://excalidraw.com/Virgil.woff2");
      }
      @font-face {
        font-family: "Cascadia";
        src: url("https://excalidraw.com/Cascadia.woff2");
      }
      @font-face {
        font-family: "Assistant";
        src: url("https://excalidraw.com/Assistant-Regular.woff2");
      }
    </style>
    
  </defs>
  <rect x="0" y="0" width="377.82563735528765" height="300.0733523792984" fill="#ffffff"></rect><g stroke-linecap="round" transform="translate(147.57967799563795 10) rotate(0 41.506623041877916 41.46687653712888)"><path d="M0 0 C0 0, 0 0, 0 0 M0 0 C0 0, 0 0, 0 0 M0.13 12.04 C3.99 7.61, 7.84 3.17, 10.63 -0.03 M0.13 12.04 C4.11 7.46, 8.09 2.89, 10.63 -0.03 M0.27 24.08 C7.85 15.36, 15.43 6.64, 21.26 -0.07 M0.27 24.08 C6.78 16.59, 13.29 9.1, 21.26 -0.07 M-0.26 36.88 C12.17 22.58, 24.6 8.28, 31.89 -0.1 M-0.26 36.88 C7.46 28, 15.19 19.11, 31.89 -0.1 M-0.12 48.92 C12.47 34.43, 25.07 19.93, 42.52 -0.14 M-0.12 48.92 C12.34 34.58, 24.81 20.24, 42.52 -0.14 M0.01 60.96 C20.68 37.18, 41.35 13.4, 53.15 -0.17 M0.01 60.96 C18.08 40.17, 36.16 19.37, 53.15 -0.17 M0.14 73 C14.08 56.97, 28.01 40.94, 63.78 -0.21 M0.14 73 C13.32 57.84, 26.49 42.69, 63.78 -0.21 M1.59 83.53 C29.76 51.12, 57.93 18.72, 74.41 -0.24 M1.59 83.53 C20.99 61.21, 40.39 38.89, 74.41 -0.24 M12.22 83.5 C36.61 55.44, 61 27.38, 83.07 1.99 M12.22 83.5 C29.35 63.79, 46.49 44.07, 83.07 1.99 M22.85 83.46 C46.55 56.19, 70.25 28.93, 83.21 14.03 M22.85 83.46 C35.32 69.12, 47.79 54.77, 83.21 14.03 M33.48 83.43 C47.63 67.15, 61.78 50.87, 83.34 26.07 M33.48 83.43 C52.64 61.39, 71.8 39.35, 83.34 26.07 M44.11 83.39 C52.73 73.47, 61.36 63.55, 83.47 38.11 M44.11 83.39 C57.81 67.63, 71.52 51.86, 83.47 38.11 M54.74 83.36 C61.79 75.24, 68.85 67.13, 82.95 50.91 M54.74 83.36 C61 76.16, 67.25 68.96, 82.95 50.91 M65.37 83.32 C70.3 77.65, 75.23 71.98, 83.08 62.95 M65.37 83.32 C70.3 77.65, 75.24 71.97, 83.08 62.95 M76 83.29 C77.84 81.17, 79.69 79.04, 83.22 74.99 M76 83.29 C78.47 80.45, 80.93 77.61, 83.22 74.99 M-0.31 82.67 C-0.31 82.67, -0.31 82.67, -0.31 82.67 M-0.31 82.67 C-0.31 82.67, -0.31 82.67, -0.31 82.67 M12.49 83.19 C8.47 79.7, 4.45 76.21, -0.34 72.04 M12.49 83.19 C8.22 79.48, 3.96 75.78, -0.34 72.04 M24.53 83.05 C16.17 75.79, 7.8 68.52, 0.38 62.06 M24.53 83.05 C18.34 77.68, 12.16 72.31, 0.38 62.06 M36.57 82.92 C28.07 75.53, 19.57 68.15, 0.34 51.43 M36.57 82.92 C22.8 70.95, 9.03 58.98, 0.34 51.43 M48.61 82.79 C30.27 66.85, 11.93 50.91, 0.31 40.8 M48.61 82.79 C35.18 71.11, 21.75 59.44, 0.31 40.8 M60.65 82.66 C46.59 70.43, 32.52 58.2, 0.27 30.17 M60.65 82.66 C44.16 68.32, 27.67 53.98, 0.27 30.17 M73.45 83.18 C51.77 64.34, 30.1 45.5, 0.24 19.54 M73.45 83.18 C55.95 67.97, 38.46 52.77, 0.24 19.54 M83.22 81.08 C56.61 57.94, 30 34.81, 0.2 8.91 M83.22 81.08 C50.12 52.3, 17.01 23.52, 0.2 8.91 M83.19 70.45 C58.09 48.63, 32.98 26.81, 1.68 -0.41 M83.19 70.45 C56.6 47.34, 30.01 24.22, 1.68 -0.41 M83.15 59.82 C61.64 41.11, 40.12 22.41, 13.72 -0.54 M83.15 59.82 C59.23 39.02, 35.31 18.23, 13.72 -0.54 M83.12 49.19 C70.22 37.97, 57.32 26.76, 26.52 -0.02 M83.12 49.19 C64.59 33.08, 46.07 16.98, 26.52 -0.02 M83.08 38.56 C73.58 30.29, 64.07 22.03, 38.56 -0.15 M83.08 38.56 C69.82 27.03, 56.55 15.49, 38.56 -0.15 M83.05 27.93 C74.34 20.36, 65.63 12.79, 50.6 -0.28 M83.05 27.93 C75.59 21.44, 68.14 14.96, 50.6 -0.28 M83.02 17.3 C78.05 12.98, 73.08 8.66, 62.64 -0.42 M83.02 17.3 C77.99 12.93, 72.97 8.57, 62.64 -0.42 M83.74 7.32 C81.55 5.42, 79.36 3.52, 74.68 -0.55 M83.74 7.32 C81.73 5.58, 79.73 3.84, 74.68 -0.55" stroke="#ced4da" stroke-width="1" fill="none"></path><path d="M0 0 C30.62 0, 61.24 0, 83.01 0 M0 0 C23.64 0, 47.27 0, 83.01 0 M83.01 0 C83.01 18.88, 83.01 37.76, 83.01 82.93 M83.01 0 C83.01 18.54, 83.01 37.08, 83.01 82.93 M83.01 82.93 C65.55 82.93, 48.09 82.93, 0 82.93 M83.01 82.93 C50.31 82.93, 17.61 82.93, 0 82.93 M0 82.93 C0 56.52, 0 30.11, 0 0 M0 82.93 C0 52.3, 0 21.67, 0 0" stroke="#000000" stroke-width="2" fill="none"></path></g><g stroke-linecap="round" transform="translate(155.67908745433851 18.20617289355971) rotate(0 33.40721358317721 33.407213583177224)"><path d="M66.81 33.41 C66.81 35.15, 66.68 36.91, 66.4 38.63 C66.13 40.35, 65.72 42.07, 65.18 43.73 C64.64 45.39, 63.96 47.02, 63.17 48.57 C62.38 50.13, 61.46 51.63, 60.43 53.04 C59.41 54.45, 58.26 55.8, 57.03 57.03 C55.8 58.26, 54.45 59.41, 53.04 60.43 C51.63 61.46, 50.13 62.38, 48.57 63.17 C47.02 63.96, 45.39 64.64, 43.73 65.18 C42.07 65.72, 40.35 66.13, 38.63 66.4 C36.91 66.68, 35.15 66.81, 33.41 66.81 C31.67 66.81, 29.9 66.68, 28.18 66.4 C26.46 66.13, 24.74 65.72, 23.08 65.18 C21.43 64.64, 19.79 63.96, 18.24 63.17 C16.69 62.38, 15.18 61.46, 13.77 60.43 C12.36 59.41, 11.02 58.26, 9.78 57.03 C8.55 55.8, 7.4 54.45, 6.38 53.04 C5.36 51.63, 4.43 50.13, 3.64 48.57 C2.85 47.02, 2.17 45.39, 1.64 43.73 C1.1 42.07, 0.68 40.35, 0.41 38.63 C0.14 36.91, 0 35.15, 0 33.41 C0 31.67, 0.14 29.9, 0.41 28.18 C0.68 26.46, 1.1 24.74, 1.64 23.08 C2.17 21.43, 2.85 19.79, 3.64 18.24 C4.43 16.69, 5.36 15.18, 6.38 13.77 C7.4 12.36, 8.55 11.02, 9.78 9.78 C11.02 8.55, 12.36 7.4, 13.77 6.38 C15.18 5.36, 16.69 4.43, 18.24 3.64 C19.79 2.85, 21.43 2.17, 23.08 1.64 C24.74 1.1, 26.46 0.68, 28.18 0.41 C29.9 0.14, 31.67 0, 33.41 0 C35.15 0, 36.91 0.14, 38.63 0.41 C40.35 0.68, 42.07 1.1, 43.73 1.64 C45.39 2.17, 47.02 2.85, 48.57 3.64 C50.13 4.43, 51.63 5.36, 53.04 6.38 C54.45 7.4, 55.8 8.55, 57.03 9.78 C58.26 11.02, 59.41 12.36, 60.43 13.77 C61.46 15.18, 62.38 16.69, 63.17 18.24 C63.96 19.79, 64.64 21.43, 65.18 23.08 C65.72 24.74, 66.13 26.46, 66.4 28.18 C66.68 29.9, 66.75 32.54, 66.81 33.41 C66.88 34.28, 66.88 32.54, 66.81 33.41" stroke="none" stroke-width="0" fill="#868e96"></path><path d="M66.81 33.41 C66.81 35.15, 66.68 36.91, 66.4 38.63 C66.13 40.35, 65.72 42.07, 65.18 43.73 C64.64 45.39, 63.96 47.02, 63.17 48.57 C62.38 50.13, 61.46 51.63, 60.43 53.04 C59.41 54.45, 58.26 55.8, 57.03 57.03 C55.8 58.26, 54.45 59.41, 53.04 60.43 C51.63 61.46, 50.13 62.38, 48.57 63.17 C47.02 63.96, 45.39 64.64, 43.73 65.18 C42.07 65.72, 40.35 66.13, 38.63 66.4 C36.91 66.68, 35.15 66.81, 33.41 66.81 C31.67 66.81, 29.9 66.68, 28.18 66.4 C26.46 66.13, 24.74 65.72, 23.08 65.18 C21.43 64.64, 19.79 63.96, 18.24 63.17 C16.69 62.38, 15.18 61.46, 13.77 60.43 C12.36 59.41, 11.02 58.26, 9.78 57.03 C8.55 55.8, 7.4 54.45, 6.38 53.04 C5.36 51.63, 4.43 50.13, 3.64 48.57 C2.85 47.02, 2.17 45.39, 1.64 43.73 C1.1 42.07, 0.68 40.35, 0.41 38.63 C0.14 36.91, 0 35.15, 0 33.41 C0 31.67, 0.14 29.9, 0.41 28.18 C0.68 26.46, 1.1 24.74, 1.64 23.08 C2.17 21.43, 2.85 19.79, 3.64 18.24 C4.43 16.69, 5.36 15.18, 6.38 13.77 C7.4 12.36, 8.55 11.02, 9.78 9.78 C11.02 8.55, 12.36 7.4, 13.77 6.38 C15.18 5.36, 16.69 4.43, 18.24 3.64 C19.79 2.85, 21.43 2.17, 23.08 1.64 C24.74 1.1, 26.46 0.68, 28.18 0.41 C29.9 0.14, 31.67 0, 33.41 0 C35.15 0, 36.91 0.14, 38.63 0.41 C40.35 0.68, 42.07 1.1, 43.73 1.64 C45.39 2.17, 47.02 2.85, 48.57 3.64 C50.13 4.43, 51.63 5.36, 53.04 6.38 C54.45 7.4, 55.8 8.55, 57.03 9.78 C58.26 11.02, 59.41 12.36, 60.43 13.77 C61.46 15.18, 62.38 16.69, 63.17 18.24 C63.96 19.79, 64.64 21.43, 65.18 23.08 C65.72 24.74, 66.13 26.46, 66.4 28.18 C66.68 29.9, 66.75 32.54, 66.81 33.41 C66.88 34.28, 66.88 32.54, 66.81 33.41" stroke="#000000" stroke-width="1" fill="none"></path></g><g stroke-linecap="round"><g transform="translate(175.95910036887065 31.609688574007805) rotate(0 10.433501793724378 20.243579093835535)" fill-rule="evenodd"><path d="M0 0 C0.54 0.19, 2.34 0.56, 3.25 1.14 C4.15 1.72, 4.58 3.26, 5.44 3.49 C6.3 3.72, 6.54 2.66, 8.42 2.51 C10.31 2.37, 14.92 2.56, 16.74 2.62 C18.57 2.69, 18.57 3.1, 19.34 2.88 C20.11 2.66, 20.55 1.87, 21.35 1.28 C22.15 0.69, 23.55 -0.78, 24.14 -0.66 C24.73 -0.53, 24.79 1.13, 24.9 2.01 C25.02 2.88, 24.42 3.75, 24.83 4.59 C25.25 5.43, 26.77 5.47, 27.39 7.04 C28 8.62, 28.49 11.66, 28.53 14.05 C28.57 16.44, 28.22 19.69, 27.63 21.39 C27.05 23.09, 26.06 23.51, 25.03 24.24 C24.01 24.97, 22.72 25.37, 21.49 25.77 C20.26 26.16, 18.13 26.31, 17.67 26.61 C17.2 26.91, 18.32 27.05, 18.68 27.56 C19.04 28.07, 19.59 28.22, 19.82 29.67 C20.05 31.13, 20.02 34.52, 20.05 36.29 C20.09 38.06, 20.22 39.51, 20.01 40.29 C19.79 41.07, 20.54 40.84, 18.76 40.98 C16.98 41.13, 11.09 41.31, 9.32 41.14 C7.55 40.98, 8.4 40.97, 8.14 39.99 C7.89 39.01, 8.23 35.96, 7.81 35.28 C7.4 34.59, 6.6 35.74, 5.64 35.88 C4.67 36.02, 3.2 36.4, 2.04 36.11 C0.87 35.83, -0.42 35.07, -1.33 34.18 C-2.24 33.3, -2.74 31.72, -3.42 30.81 C-4.11 29.9, -4.75 29.32, -5.46 28.73 C-6.17 28.15, -7.79 27.47, -7.66 27.27 C-7.53 27.08, -5.52 27.24, -4.67 27.56 C-3.82 27.88, -3.31 28.54, -2.55 29.2 C-1.8 29.85, -1.04 30.86, -0.15 31.47 C0.73 32.09, 1.74 32.72, 2.77 32.89 C3.79 33.06, 5.2 32.77, 6 32.49 C6.81 32.21, 7.31 31.77, 7.6 31.23 C7.9 30.69, 7.59 29.87, 7.76 29.25 C7.92 28.64, 8.29 27.95, 8.62 27.53 C8.94 27.12, 10.25 27.07, 9.73 26.76 C9.22 26.45, 6.89 26.07, 5.51 25.67 C4.13 25.27, 2.49 25.06, 1.47 24.34 C0.46 23.62, 0.01 23.04, -0.59 21.34 C-1.19 19.64, -2.08 16.45, -2.13 14.12 C-2.18 11.78, -1.4 8.77, -0.91 7.32 C-0.41 5.88, 0.73 6.19, 0.86 5.46 C0.98 4.73, -0.01 3.84, -0.15 2.93 C-0.3 2.02, -0.03 0.49, 0 0" stroke="none" stroke-width="0" fill="#fff" fill-rule="evenodd"></path><path d="M0 0 C0.54 0.19, 2.34 0.56, 3.25 1.14 C4.15 1.72, 4.58 3.26, 5.44 3.49 C6.3 3.72, 6.54 2.66, 8.42 2.51 C10.31 2.37, 14.92 2.56, 16.74 2.62 C18.57 2.69, 18.57 3.1, 19.34 2.88 C20.11 2.66, 20.55 1.87, 21.35 1.28 C22.15 0.69, 23.55 -0.78, 24.14 -0.66 C24.73 -0.53, 24.79 1.13, 24.9 2.01 C25.02 2.88, 24.42 3.75, 24.83 4.59 C25.25 5.43, 26.77 5.47, 27.39 7.04 C28 8.62, 28.49 11.66, 28.53 14.05 C28.57 16.44, 28.22 19.69, 27.63 21.39 C27.05 23.09, 26.06 23.51, 25.03 24.24 C24.01 24.97, 22.72 25.37, 21.49 25.77 C20.26 26.16, 18.13 26.31, 17.67 26.61 C17.2 26.91, 18.32 27.05, 18.68 27.56 C19.04 28.07, 19.59 28.22, 19.82 29.67 C20.05 31.13, 20.02 34.52, 20.05 36.29 C20.09 38.06, 20.22 39.51, 20.01 40.29 C19.79 41.07, 20.54 40.84, 18.76 40.98 C16.98 41.13, 11.09 41.31, 9.32 41.14 C7.55 40.98, 8.4 40.97, 8.14 39.99 C7.89 39.01, 8.23 35.96, 7.81 35.28 C7.4 34.59, 6.6 35.74, 5.64 35.88 C4.67 36.02, 3.2 36.4, 2.04 36.11 C0.87 35.83, -0.42 35.07, -1.33 34.18 C-2.24 33.3, -2.74 31.72, -3.42 30.81 C-4.11 29.9, -4.75 29.32, -5.46 28.73 C-6.17 28.15, -7.79 27.47, -7.66 27.27 C-7.53 27.08, -5.52 27.24, -4.67 27.56 C-3.82 27.88, -3.31 28.54, -2.55 29.2 C-1.8 29.85, -1.04 30.86, -0.15 31.47 C0.73 32.09, 1.74 32.72, 2.77 32.89 C3.79 33.06, 5.2 32.77, 6 32.49 C6.81 32.21, 7.31 31.77, 7.6 31.23 C7.9 30.69, 7.59 29.87, 7.76 29.25 C7.92 28.64, 8.29 27.95, 8.62 27.53 C8.94 27.12, 10.25 27.07, 9.73 26.76 C9.22 26.45, 6.89 26.07, 5.51 25.67 C4.13 25.27, 2.49 25.06, 1.47 24.34 C0.46 23.62, 0.01 23.04, -0.59 21.34 C-1.19 19.64, -2.08 16.45, -2.13 14.12 C-2.18 11.78, -1.4 8.77, -0.91 7.32 C-0.41 5.88, 0.73 6.19, 0.86 5.46 C0.98 4.73, -0.01 3.84, -0.15 2.93 C-0.3 2.02, -0.03 0.49, 0 0 M0 0 C0.54 0.19, 2.34 0.56, 3.25 1.14 C4.15 1.72, 4.58 3.26, 5.44 3.49 C6.3 3.72, 6.54 2.66, 8.42 2.51 C10.31 2.37, 14.92 2.56, 16.74 2.62 C18.57 2.69, 18.57 3.1, 19.34 2.88 C20.11 2.66, 20.55 1.87, 21.35 1.28 C22.15 0.69, 23.55 -0.78, 24.14 -0.66 C24.73 -0.53, 24.79 1.13, 24.9 2.01 C25.02 2.88, 24.42 3.75, 24.83 4.59 C25.25 5.43, 26.77 5.47, 27.39 7.04 C28 8.62, 28.49 11.66, 28.53 14.05 C28.57 16.44, 28.22 19.69, 27.63 21.39 C27.05 23.09, 26.06 23.51, 25.03 24.24 C24.01 24.97, 22.72 25.37, 21.49 25.77 C20.26 26.16, 18.13 26.31, 17.67 26.61 C17.2 26.91, 18.32 27.05, 18.68 27.56 C19.04 28.07, 19.59 28.22, 19.82 29.67 C20.05 31.13, 20.02 34.52, 20.05 36.29 C20.09 38.06, 20.22 39.51, 20.01 40.29 C19.79 41.07, 20.54 40.84, 18.76 40.98 C16.98 41.13, 11.09 41.31, 9.32 41.14 C7.55 40.98, 8.4 40.97, 8.14 39.99 C7.89 39.01, 8.23 35.96, 7.81 35.28 C7.4 34.59, 6.6 35.74, 5.64 35.88 C4.67 36.02, 3.2 36.4, 2.04 36.11 C0.87 35.83, -0.42 35.07, -1.33 34.18 C-2.24 33.3, -2.74 31.72, -3.42 30.81 C-4.11 29.9, -4.75 29.32, -5.46 28.73 C-6.17 28.15, -7.79 27.47, -7.66 27.27 C-7.53 27.08, -5.52 27.24, -4.67 27.56 C-3.82 27.88, -3.31 28.54, -2.55 29.2 C-1.8 29.85, -1.04 30.86, -0.15 31.47 C0.73 32.09, 1.74 32.72, 2.77 32.89 C3.79 33.06, 5.2 32.77, 6 32.49 C6.81 32.21, 7.31 31.77, 7.6 31.23 C7.9 30.69, 7.59 29.87, 7.76 29.25 C7.92 28.64, 8.29 27.95, 8.62 27.53 C8.94 27.12, 10.25 27.07, 9.73 26.76 C9.22 26.45, 6.89 26.07, 5.51 25.67 C4.13 25.27, 2.49 25.06, 1.47 24.34 C0.46 23.62, 0.01 23.04, -0.59 21.34 C-1.19 19.64, -2.08 16.45, -2.13 14.12 C-2.18 11.78, -1.4 8.77, -0.91 7.32 C-0.41 5.88, 0.73 6.19, 0.86 5.46 C0.98 4.73, -0.01 3.84, -0.15 2.93 C-0.3 2.02, -0.03 0.49, 0 0" stroke="#000000" stroke-width="1" fill="none"></path></g></g><mask></mask><g transform="translate(147.2327132758939 100.14522174549813) rotate(0 41.2070848515865 16.097533754470305)"><text x="0" y="22.562303310265566" font-family="Virgil, Segoe UI Emoji" font-size="25.75605400715247px" fill="#000000" text-anchor="start" style="white-space: pre;" direction="ltr" dominant-baseline="alphabetic">GitHub</text></g><g stroke-linecap="round" transform="translate(19.60182896432724 159.49962444575738) rotate(0 172.25 65.28686396677051)"><path d="M7.86 8.16 C7.86 8.16, 7.86 8.16, 7.86 8.16 M7.86 8.16 C7.86 8.16, 7.86 8.16, 7.86 8.16 M2.35 20.59 C8.48 14.95, 10.83 8.34, 18.1 2.48 M2.35 20.59 C5.92 16.1, 11.43 10.34, 18.1 2.48 M1.43 27.75 C7.37 17.92, 14.95 9.32, 24.4 1.33 M1.43 27.75 C6.4 22.72, 11.6 16.19, 24.4 1.33 M1.17 34.14 C11.4 22.99, 19.32 13.88, 30.7 0.18 M1.17 34.14 C11.53 22.23, 22.81 9.63, 30.7 0.18 M0.91 40.54 C11.97 29.1, 19.88 16.49, 36.34 -0.21 M0.91 40.54 C10.35 30.21, 17.78 20.29, 36.34 -0.21 M1.31 46.19 C13.27 33.47, 23.38 19.62, 41.33 0.15 M1.31 46.19 C10.16 36.18, 18.24 27.96, 41.33 0.15 M1.04 52.58 C9.85 40.52, 22.02 30.48, 46.97 -0.25 M1.04 52.58 C16.85 36.07, 30.81 19.03, 46.97 -0.25 M1.44 58.23 C15.07 43.3, 24.09 30.35, 51.96 0.11 M1.44 58.23 C11.66 46.01, 22.82 32.17, 51.96 0.11 M1.18 64.62 C17.64 43.3, 37.28 21.41, 57.6 -0.28 M1.18 64.62 C14.69 48.29, 29.94 31.37, 57.6 -0.28 M0.92 71.02 C20.96 48.41, 41.66 24.13, 62.59 0.08 M0.92 71.02 C24.01 45.98, 46.96 19.41, 62.59 0.08 M1.31 76.67 C26.18 47.14, 53.05 15.52, 67.57 0.44 M1.31 76.67 C16.16 59.96, 33.19 41.52, 67.57 0.44 M1.05 83.06 C19.74 61.78, 34.26 43.98, 73.22 0.04 M1.05 83.06 C20.13 60.51, 38.12 39.42, 73.22 0.04 M1.44 88.71 C22.14 65.03, 45.58 42.43, 78.2 0.41 M1.44 88.71 C19.18 67.96, 37.02 47.73, 78.2 0.41 M1.18 95.1 C28.83 63.09, 58.91 29.85, 83.85 0.01 M1.18 95.1 C23.27 69.4, 45.27 44.66, 83.85 0.01 M0.92 101.5 C31.79 66.28, 66.69 29.43, 88.83 0.37 M0.92 101.5 C22.2 78.28, 43.62 54.29, 88.83 0.37 M1.32 107.14 C28.33 80.1, 49.96 51.71, 94.48 -0.02 M1.32 107.14 C35.98 66.01, 71.6 25.49, 94.48 -0.02 M2.37 112.03 C27.36 82.54, 52.43 53.2, 99.46 0.34 M2.37 112.03 C26.48 84.34, 50.82 56.25, 99.46 0.34 M4.07 116.17 C24.23 92.08, 45.03 66.82, 105.11 -0.06 M4.07 116.17 C43.28 72.28, 82.47 26.46, 105.11 -0.06 M6.44 119.55 C45.83 73.14, 90.15 24.92, 110.09 0.3 M6.44 119.55 C31.17 88.69, 58.26 57.92, 110.09 0.3 M8.8 122.92 C52.04 76.44, 91.56 25.11, 115.74 -0.09 M8.8 122.92 C38.86 89.07, 69.85 54.69, 115.74 -0.09 M11.82 125.55 C56.31 75.1, 95.29 28.97, 120.72 0.27 M11.82 125.55 C38.15 96.47, 64.54 65.91, 120.72 0.27 M15.49 127.42 C40.93 100.62, 64.71 69.32, 126.37 -0.13 M15.49 127.42 C41.96 98.04, 70.36 65.57, 126.37 -0.13 M19.17 129.29 C43.79 101.06, 71.72 71.25, 131.35 0.23 M19.17 129.29 C61.72 81.09, 104.6 31.89, 131.35 0.23 M24.15 129.65 C61.76 88.83, 97.34 43.76, 137 -0.16 M24.15 129.65 C54.15 95.6, 83.2 61.94, 137 -0.16 M29.14 130.01 C66.89 85.29, 104.21 40.96, 141.98 0.2 M29.14 130.01 C61.3 95.14, 91.61 59.63, 141.98 0.2 M33.47 131.12 C65.67 91.39, 102.21 51.48, 147.63 -0.2 M33.47 131.12 C69.3 88.16, 107.48 45.06, 147.63 -0.2 M39.12 130.73 C75.06 90, 115.77 45.13, 152.61 0.16 M39.12 130.73 C73.78 92.66, 108.57 52.43, 152.61 0.16 M44.1 131.09 C86.15 84.37, 128.54 33.26, 158.26 -0.23 M44.1 131.09 C70.18 101.15, 95.47 72.56, 158.26 -0.23 M49.75 130.69 C75.34 100.8, 98.48 72.16, 163.24 0.13 M49.75 130.69 C79.59 96.69, 109.77 61.13, 163.24 0.13 M54.73 131.05 C95.58 85.51, 131.73 42.98, 168.89 -0.27 M54.73 131.05 C93.38 86.83, 132.35 41.41, 168.89 -0.27 M60.38 130.66 C83.32 103.1, 108.27 75.46, 173.87 0.09 M60.38 130.66 C100.12 87.59, 138.06 43.39, 173.87 0.09 M65.36 131.02 C91.17 103.73, 114.26 76.09, 178.86 0.45 M65.36 131.02 C96.23 95.31, 126.17 60.09, 178.86 0.45 M71.01 130.62 C110.94 89.09, 146.5 45.59, 184.5 0.06 M71.01 130.62 C106.6 88.85, 142.53 48.45, 184.5 0.06 M75.99 130.98 C102.59 100.63, 130.37 69.94, 189.49 0.42 M75.99 130.98 C120.57 79.97, 165.29 28.76, 189.49 0.42 M81.64 130.59 C126.21 79.36, 171.91 31.63, 195.13 0.03 M81.64 130.59 C124.89 80.01, 168.34 31.38, 195.13 0.03 M86.62 130.95 C127.12 82.94, 170.52 33.89, 200.12 0.39 M86.62 130.95 C119.94 92.38, 154.21 55.13, 200.12 0.39 M92.27 130.56 C135.87 82.67, 180.65 32.69, 205.76 -0.01 M92.27 130.56 C128.21 89.1, 164.59 47.93, 205.76 -0.01 M97.25 130.92 C128.53 95.63, 158.49 59.51, 210.75 0.35 M97.25 130.92 C139.66 84.24, 180.23 36.31, 210.75 0.35 M102.9 130.52 C142.47 87.21, 180.68 43.35, 216.39 -0.04 M102.9 130.52 C138.42 89.39, 174.41 48.91, 216.39 -0.04 M107.88 130.88 C148.32 88.96, 186.62 43.2, 221.38 0.32 M107.88 130.88 C152.2 79.04, 197.69 27.53, 221.38 0.32 M112.87 131.24 C141.63 98.3, 173.22 63.08, 227.02 -0.08 M112.87 131.24 C155.67 80.73, 198.78 33.51, 227.02 -0.08 M118.51 130.85 C161.13 81.24, 204.25 31.75, 232.01 0.28 M118.51 130.85 C162.09 82.7, 203.71 32.33, 232.01 0.28 M123.5 131.21 C167.65 80.82, 208.42 33.33, 237.65 -0.11 M123.5 131.21 C153.9 96.55, 182.97 61.56, 237.65 -0.11 M129.14 130.81 C153.59 103.33, 176.74 76.49, 242.64 0.25 M129.14 130.81 C161.27 94.88, 192.81 58.01, 242.64 0.25 M134.13 131.17 C166.53 94.83, 196.27 60.81, 248.28 -0.15 M134.13 131.17 C180.14 79.96, 224.44 29.03, 248.28 -0.15 M139.77 130.78 C167.04 99.21, 192.24 67.57, 253.27 0.21 M139.77 130.78 C176.21 90.56, 210.74 49.07, 253.27 0.21 M144.76 131.14 C187.91 81.7, 233.48 28.7, 258.91 -0.18 M144.76 131.14 C181.99 89.69, 217.72 46.83, 258.91 -0.18 M150.4 130.74 C181.51 91.74, 213.5 56.3, 263.9 0.18 M150.4 130.74 C177.51 98.05, 205.99 65.57, 263.9 0.18 M155.39 131.1 C192.84 88.42, 228.87 46.9, 269.54 -0.22 M155.39 131.1 C183.45 96.59, 214.2 63.18, 269.54 -0.22 M161.03 130.71 C202.32 83.4, 243.26 35.55, 274.53 0.14 M161.03 130.71 C191.05 94.88, 223.7 58.55, 274.53 0.14 M166.02 131.07 C196.11 91.77, 229.5 56.26, 280.17 -0.25 M166.02 131.07 C207.88 82.32, 252.65 31.12, 280.17 -0.25 M171.66 130.67 C200.1 94.77, 230.89 58.37, 285.16 0.11 M171.66 130.67 C215.96 80.17, 261.61 28.76, 285.16 0.11 M176.65 131.03 C211.06 91.93, 246.14 51.33, 290.8 -0.28 M176.65 131.03 C208.78 95.08, 241.47 59.02, 290.8 -0.28 M182.29 130.64 C209.51 98.22, 235.13 69.38, 295.79 0.08 M182.29 130.64 C222.89 82.21, 266.21 34.25, 295.79 0.08 M187.28 131 C228.18 81.36, 270.44 35.2, 300.78 0.44 M187.28 131 C224.88 85.97, 265.41 41.35, 300.78 0.44 M192.92 130.61 C222.65 96.22, 253.53 61.44, 306.42 0.04 M192.92 130.61 C217.57 104.39, 241.87 76.02, 306.42 0.04 M197.91 130.97 C233.11 92.74, 267.17 48.59, 311.41 0.4 M197.91 130.97 C239.55 82.42, 280.03 36.95, 311.41 0.4 M203.55 130.57 C247.21 85.8, 286.94 38.2, 316.4 0.76 M203.55 130.57 C237.17 90.08, 271.48 51.1, 316.4 0.76 M208.54 130.93 C246.85 88.64, 285.05 46.78, 321.38 1.12 M208.54 130.93 C244.34 91.06, 279.06 50.51, 321.38 1.12 M214.18 130.54 C253.85 82.99, 296.76 40.16, 325.71 2.24 M214.18 130.54 C239.55 101.51, 264.29 73.38, 325.71 2.24 M219.17 130.9 C247.88 97.83, 273.1 67.21, 329.39 4.11 M219.17 130.9 C264.38 79.42, 308.23 29.88, 329.39 4.11 M224.16 131.26 C252.91 97.07, 278.98 66.72, 333.06 5.97 M224.16 131.26 C261.95 85.46, 302.55 40.13, 333.06 5.97 M229.8 130.86 C258.75 96.72, 289.98 62.58, 336.74 7.84 M229.8 130.86 C271.18 82.95, 311.66 35.43, 336.74 7.84 M234.79 131.22 C261.94 98.01, 290.47 69, 339.1 11.22 M234.79 131.22 C267.42 95.48, 299.53 57.58, 339.1 11.22 M240.43 130.83 C261.41 107.71, 284.64 79.43, 340.81 15.36 M240.43 130.83 C268.99 96.85, 298.39 63.71, 340.81 15.36 M245.42 131.19 C264.84 107.62, 283.03 83.94, 342.51 19.49 M245.42 131.19 C269.07 103.7, 293.48 75.54, 342.51 19.49 M251.06 130.79 C278.7 99.35, 306.04 64.87, 344.22 23.62 M251.06 130.79 C277.45 101.32, 302.74 73.18, 344.22 23.62 M256.05 131.15 C281.47 103.84, 305.51 73.34, 344.62 29.27 M256.05 131.15 C289.24 94.16, 324.13 56.03, 344.62 29.27 M261.69 130.76 C288.16 98.84, 315.82 68.98, 344.35 35.67 M261.69 130.76 C289.02 99.03, 317.31 66.9, 344.35 35.67 M266.68 131.12 C292.36 102.55, 315.62 74.72, 344.75 41.31 M266.68 131.12 C287.78 106.61, 307.54 82.3, 344.75 41.31 M272.32 130.72 C295.36 104.22, 314.9 77.95, 344.49 47.71 M272.32 130.72 C291.02 108.84, 308.64 87.08, 344.49 47.71 M277.31 131.08 C296.46 110.4, 315.07 83.56, 344.88 53.35 M277.31 131.08 C298.48 105.73, 321.39 80.02, 344.88 53.35 M282.95 130.69 C297.75 112.95, 314.84 94.85, 344.62 59.75 M282.95 130.69 C297.09 114.69, 312.22 97.4, 344.62 59.75 M287.94 131.05 C301.08 112, 317.01 98.36, 345.02 65.39 M287.94 131.05 C304.72 110.87, 323.99 90.19, 345.02 65.39 M293.58 130.66 C301.6 118.13, 315.47 106.93, 344.75 71.79 M293.58 130.66 C306.85 117.12, 319.4 101.03, 344.75 71.79 M298.57 131.02 C309.7 119.52, 318.08 105.94, 344.49 78.19 M298.57 131.02 C310.22 117.58, 322.02 105.24, 344.49 78.19 M304.21 130.62 C318.38 114.6, 333.42 98.52, 344.89 83.83 M304.21 130.62 C315.52 117.23, 327.67 103.04, 344.89 83.83 M309.2 130.98 C323.34 114.81, 335.51 98.73, 344.63 90.23 M309.2 130.98 C319.73 119.51, 331.45 106.25, 344.63 90.23 M314.84 130.59 C323.77 122.32, 330.54 110.08, 345.02 95.87 M314.84 130.59 C326 118.11, 336.73 105.91, 345.02 95.87 M320.48 130.19 C328.35 121.69, 339.22 111.43, 344.76 102.27 M320.48 130.19 C327.77 123.43, 333.29 116.88, 344.76 102.27 M326.78 129.04 C328.87 126.36, 335.39 119.81, 343.19 110.17 M326.78 129.04 C330.7 124.74, 333.69 120.71, 343.19 110.17" stroke="#b2f2bb" stroke-width="0.5" fill="none"></path><path d="M32 0 C116.51 3.07, 199.65 1.2, 312.5 0 M32 0 C88.53 0.24, 143.78 1.55, 312.5 0 M312.5 0 C335.8 0.69, 343.14 9.85, 344.5 32 M312.5 0 C334.03 -1.67, 345.48 11.82, 344.5 32 M344.5 32 C346.13 60.07, 345.16 86.64, 344.5 98.57 M344.5 32 C345.32 54.91, 344.61 79.51, 344.5 98.57 M344.5 98.57 C343.85 119.92, 331.84 129.66, 312.5 130.57 M344.5 98.57 C344.08 118.12, 333.26 129.76, 312.5 130.57 M312.5 130.57 C229.46 127.24, 148.95 128.5, 32 130.57 M312.5 130.57 C214.35 129.8, 116.17 128.82, 32 130.57 M32 130.57 C9.51 130.64, 1.54 118.11, 0 98.57 M32 130.57 C10.99 131.73, -0.73 120.73, 0 98.57 M0 98.57 C1.19 83.48, -1.09 73.2, 0 32 M0 98.57 C-0.56 78.91, 0.09 59.26, 0 32 M0 32 C-0.18 9.69, 12.23 1.67, 32 0 M0 32 C-0.61 8.83, 9.28 0.51, 32 0" stroke="#1e1e1e" stroke-width="1" fill="none"></path></g><g transform="translate(120.42014256296005 215.91851386321719) rotate(0 71.43168640136719 8.867974549310716)"><text x="71.43168640136719" y="12.429353128313904" font-family="Virgil, Segoe UI Emoji" font-size="14.188759278897152px" fill="#1e1e1e" text-anchor="middle" style="white-space: pre;" direction="ltr" dominant-baseline="alphabetic">Multimedia Organizer</text></g><g stroke-linecap="round" transform="translate(10 129.24631186104267) rotate(0 28.08194093285269 38.270045926270285)"><path d="M1.89 1.81 L56.42 -1.57 L55.24 78.37 L1.65 77.77" stroke="none" stroke-width="0" fill="#feeb9e"></path><path d="M0 0 C16.74 1.1, 32.58 -0.77, 56.16 0 M0 0 C23.21 -0.09, 44.36 0.5, 56.16 0 M56.16 0 C54.63 29.37, 55.71 56.56, 56.16 76.54 M56.16 0 C56.51 24.5, 55.14 50.69, 56.16 76.54 M56.16 76.54 C40.18 78.53, 25.05 75.32, 0 76.54 M56.16 76.54 C44.06 75.73, 30.96 76.48, 0 76.54 M0 76.54 C-1.45 51.49, 0.12 26.61, 0 0 M0 76.54 C-0.46 47.69, -0.81 17.7, 0 0" stroke="#000000" stroke-width="4" fill="none"></path></g><g stroke-linecap="round" transform="translate(35.14787807448903 138.50434640520814) rotate(0 18.64578832264619 9.588834492963883)"><path d="M0.13 -0.78 L36.83 0.92 L38.12 19.79 L-0.88 18.59" stroke="none" stroke-width="0" fill="#fff"></path><path d="M0 0 C14.23 -0.36, 27.73 0.78, 37.29 0 M0 0 C11.58 0.3, 24.02 0.28, 37.29 0 M37.29 0 C36.77 4.97, 37.48 9.39, 37.29 19.18 M37.29 0 C36.94 5.59, 37.24 11.33, 37.29 19.18 M37.29 19.18 C26.12 18.75, 14.11 18.69, 0 19.18 M37.29 19.18 C27.89 19.18, 18.75 18.76, 0 19.18 M0 19.18 C-0.08 14, 0.89 9.28, 0 0 M0 19.18 C-0.09 13.95, 0.43 9.28, 0 0" stroke="#000000" stroke-width="4" fill="none"></path></g><g transform="translate(41.086888489613074 141.3311040740843) rotate(0 13.316749572753906 7.990695410803227)"><text x="0" y="11.199758687781822" font-family="Virgil, Segoe UI Emoji" font-size="12.785112657285186px" fill="#000000" text-anchor="start" style="white-space: pre;" direction="ltr" dominant-baseline="alphabetic">JPG</text></g><g stroke-linecap="round" transform="translate(21.07104848913346 170.0753616438996) rotate(0 17.28670910778471 13.386883790171538)"><path d="M6.69 0 C13.86 -1.42, 20.73 -3.06, 27.88 0 C32.97 1.4, 33.75 3.82, 34.57 6.69 C32.34 8.47, 33.22 13.07, 34.57 20.08 C35.27 23.99, 32.25 24.42, 27.88 26.77 C17.06 28.39, 9.39 29.44, 6.69 26.77 C3.78 25.67, 0.98 21.25, 0 20.08 C-2.29 15.89, 0.96 13.56, 0 6.69 C-1.16 0.83, 2.35 -3.34, 6.69 0" stroke="none" stroke-width="0" fill="#a0daf7"></path><path d="M6.69 0 C12.93 1.34, 18.48 -1.25, 27.88 0 M6.69 0 C13.84 -1.1, 22.59 -0.57, 27.88 0 M27.88 0 C32.66 0.58, 34.07 1.91, 34.57 6.69 M27.88 0 C33.58 -1.6, 32.66 2.91, 34.57 6.69 M34.57 6.69 C34.43 11.74, 34.74 13.31, 34.57 20.08 M34.57 6.69 C34.78 9.32, 34.4 12.82, 34.57 20.08 M34.57 20.08 C35.15 23.27, 31.94 24.84, 27.88 26.77 M34.57 20.08 C34.7 24.12, 32.8 28.69, 27.88 26.77 M27.88 26.77 C20.69 26.52, 11.23 28.7, 6.69 26.77 M27.88 26.77 C19.15 27.52, 12.17 27.22, 6.69 26.77 M6.69 26.77 C0.47 25.61, -1.87 26.41, 0 20.08 M6.69 26.77 C4.08 25.11, -0.05 22.37, 0 20.08 M0 20.08 C-0.12 17.77, 0.86 13.2, 0 6.69 M0 20.08 C0.02 16.45, -0.55 11.43, 0 6.69 M0 6.69 C1.65 0.27, 2.68 -0.75, 6.69 0 M0 6.69 C-0.09 0.53, 2.64 0.07, 6.69 0" stroke="#000" stroke-width="4" fill="none"></path></g><g stroke-linecap="round"><g transform="translate(55.93173983120576 186.70351402692506) rotate(0 -17.328470182762317 -5.36756551952449)" fill-rule="evenodd"><path d="M0 0 L-34.66 0.4 L-25.29 -11.13 L-16.27 -1.56 L-18.3 -3.5 L-9.83 -10.3 L0 0" stroke="none" stroke-width="0" fill="#8da7b6" fill-rule="evenodd"></path><path d="M0 0 C-13.57 0.15, -27.13 0.31, -34.66 0.4 M0 0 C-12.37 0.14, -24.74 0.28, -34.66 0.4 M-34.66 0.4 C-32.08 -2.77, -29.51 -5.94, -25.29 -11.13 M-34.66 0.4 C-30.98 -4.13, -27.3 -8.66, -25.29 -11.13 M-25.29 -11.13 C-23.2 -8.91, -21.1 -6.69, -16.27 -1.56 M-25.29 -11.13 C-23.16 -8.87, -21.02 -6.6, -16.27 -1.56 M-16.27 -1.56 C-17.05 -2.31, -17.84 -3.06, -18.3 -3.5 M-16.27 -1.56 C-17.06 -2.32, -17.86 -3.08, -18.3 -3.5 M-18.3 -3.5 C-16.51 -4.94, -14.71 -6.38, -9.83 -10.3 M-18.3 -3.5 C-16.56 -4.9, -14.82 -6.29, -9.83 -10.3 M-9.83 -10.3 C-6.58 -6.89, -3.32 -3.48, 0 0 M-9.83 -10.3 C-7.05 -7.38, -4.26 -4.46, 0 0 M0 0 C0 0, 0 0, 0 0 M0 0 C0 0, 0 0, 0 0" stroke="#000" stroke-width="4" fill="none"></path></g></g><mask></mask><g stroke-linecap="round"><g transform="translate(22.085371444335863 185.29866835836788) rotate(0 15.408362122941 5.27887344747846)" fill-rule="evenodd"><path d="M0 0 C5.14 0.02, 25.93 -1.52, 30.82 0.15 C35.71 1.82, 33.98 8.3, 29.33 10.03 C24.68 11.77, 7.81 12.23, 2.92 10.56 C-1.97 8.89, 0.49 1.76, 0 0" stroke="none" stroke-width="0" fill="#8da7b6" fill-rule="evenodd"></path><path d="M0 0 C5.14 0.02, 25.93 -1.52, 30.82 0.15 C35.71 1.82, 33.98 8.3, 29.33 10.03 C24.68 11.77, 7.81 12.23, 2.92 10.56 C-1.97 8.89, 0.49 1.76, 0 0 M0 0 C5.14 0.02, 25.93 -1.52, 30.82 0.15 C35.71 1.82, 33.98 8.3, 29.33 10.03 C24.68 11.77, 7.81 12.23, 2.92 10.56 C-1.97 8.89, 0.49 1.76, 0 0" stroke="transparent" stroke-width="4" fill="none"></path></g></g><mask></mask><g stroke-linecap="round" transform="translate(319.2111865941248 141.93439486713459) rotate(0 22.565633888919578 30.752427239602)"><path d="M0.22 1.8 L45.45 0.16 L46.57 63.24 L0.86 63.25" stroke="none" stroke-width="0" fill="#c5bcdd"></path><path d="M0 0 C17.17 -0.15, 32.86 -0.91, 45.13 0 M0 0 C10.39 -0.02, 22.26 0.41, 45.13 0 M45.13 0 C44.23 17.65, 46.29 31.87, 45.13 61.5 M45.13 0 C45.36 18.04, 44.36 37.28, 45.13 61.5 M45.13 61.5 C28.87 61.14, 16.28 60.91, 0 61.5 M45.13 61.5 C30.52 62.38, 17.22 61.03, 0 61.5 M0 61.5 C1.19 47.79, -0.13 35.06, 0 0 M0 61.5 C1.02 45.25, -0.03 30.38, 0 0" stroke="#000000" stroke-width="4" fill="none"></path></g><g stroke-linecap="round"><g transform="translate(349.64693401536886 141.92472229955945) rotate(0 7.45220270080911 7.35866174125195)" fill-rule="evenodd"><path d="M0.16 0.08 L0.86 15.59 L15.34 15.39 L-0.56 0.2" stroke="none" stroke-width="0" fill="#9d90c5" fill-rule="evenodd"></path><path d="M0 0 C-0.64 5.19, -0.36 10.57, 0.14 14.72 M0 0 C0.3 6.14, -0.06 11.62, 0.14 14.72 M0.14 14.72 C5.64 14.47, 10.28 14.69, 14.9 14.52 M0.14 14.72 C3.56 14.55, 7.79 14.58, 14.9 14.52 M14.9 14.52 C10.4 9, 4.62 3.62, 0 0 M14.9 14.52 C9.32 8.53, 3.09 3.07, 0 0 M0 0 C0 0, 0 0, 0 0 M0 0 C0 0, 0 0, 0 0" stroke="#000" stroke-width="4" fill="none"></path></g></g><mask></mask><g stroke-linecap="round"><g transform="translate(350.51096882846497 139.79447295770314) rotate(179.75453245381487 8.09203934501872 8.781891532472144)" fill-rule="evenodd"><path d="M0 0 L-0.13 18.5 L17.27 17.1 L-1.09 -0.94" stroke="none" stroke-width="0" fill="#fff" fill-rule="evenodd"></path><path d="M0 0 C-0.04 5.7, -0.08 11.39, -0.13 18.5 M0 0 C-0.04 6.32, -0.09 12.63, -0.13 18.5 M-0.13 18.5 C6.44 17.97, 13 17.44, 17.27 17.1 M-0.13 18.5 C3.63 18.2, 7.39 17.9, 17.27 17.1 M17.27 17.1 C12.31 12.22, 7.34 7.34, -1.09 -0.94 M17.27 17.1 C10.86 10.8, 4.45 4.5, -1.09 -0.94 M-1.09 -0.94 C-0.75 -0.65, -0.41 -0.36, 0 0 M-1.09 -0.94 C-0.83 -0.71, -0.56 -0.49, 0 0" stroke="transparent" stroke-width="4" fill="none"></path></g></g><mask></mask><g stroke-linecap="round"><g transform="translate(337.15127633483564 166.46649636993106) rotate(0 5.130373241654425 7.516192822347932)" fill-rule="evenodd"><path d="M0.43 0.87 L-0.85 15.23 L9.92 8.87 L-0.61 -0.23" stroke="none" stroke-width="0" fill="#fff" fill-rule="evenodd"></path><path d="M0 0 C0.6 3.78, 0.11 8.66, -0.28 15.03 M0 0 C0.02 5.63, 0.04 11.79, -0.28 15.03 M-0.28 15.03 C2.5 13.49, 5.33 11.28, 10.54 9.4 M-0.28 15.03 C2.59 13.45, 5.08 12.41, 10.54 9.4 M10.54 9.4 C8.41 6.56, 5.43 4.67, 0 0 M10.54 9.4 C8.21 7.51, 6.1 5.26, 0 0 M0 0 C0 0, 0 0, 0 0 M0 0 C0 0, 0 0, 0 0" stroke="#000" stroke-width="4" fill="none"></path></g></g><mask></mask><g stroke-linecap="round" transform="translate(323.865221055047 147.55210902645138) rotate(0 2.722251018487043 2.1526036894611025)"><path d="M-0.38 0.13 L5.03 -0.36 L5.04 4.15 L0.08 4.79" stroke="none" stroke-width="0" fill="#9d90c5"></path><path d="M0 0 C1.53 0.14, 3.06 -0.06, 5.44 0 M0 0 C1.63 0.06, 3.11 0.01, 5.44 0 M5.44 0 C5.32 1.26, 5.37 2.82, 5.44 4.31 M5.44 0 C5.43 1.23, 5.42 2.37, 5.44 4.31 M5.44 4.31 C4.28 4.34, 2.79 4.16, 0 4.31 M5.44 4.31 C4.14 4.29, 2.88 4.27, 0 4.31 M0 4.31 C-0.09 3.31, 0.03 2.49, 0 0 M0 4.31 C0.05 2.69, 0.03 1.01, 0 0" stroke="#000" stroke-width="4" fill="none"></path></g><g stroke-linecap="round" transform="translate(323.84889674573037 158.7539817611044) rotate(0 2.722251018487043 2.1526036894611025)"><path d="M-0.42 -0.36 L5.04 -0.16 L5.52 4.79 L-0.2 4.6" stroke="none" stroke-width="0" fill="#9d90c5"></path><path d="M0 0 C1.59 -0.08, 2.84 0.06, 5.44 0 M0 0 C1.39 0, 2.84 -0.05, 5.44 0 M5.44 0 C5.36 1.38, 5.4 2.74, 5.44 4.31 M5.44 0 C5.41 1.05, 5.39 2.15, 5.44 4.31 M5.44 4.31 C3.95 4.18, 2.65 4.25, 0 4.31 M5.44 4.31 C3.65 4.26, 1.65 4.34, 0 4.31 M0 4.31 C0.04 2.82, 0.14 1.33, 0 0 M0 4.31 C0.02 3.04, -0.05 1.67, 0 0" stroke="#000" stroke-width="4" fill="none"></path></g><g stroke-linecap="round" transform="translate(323.9354093145687 169.64833147155423) rotate(0 2.722251018487043 2.1526036894611025)"><path d="M-0.41 -0.16 L5.52 0.48 L5.24 4.6 L-0.15 3.99" stroke="none" stroke-width="0" fill="#9d90c5"></path><path d="M0 0 C2.01 0.08, 4 0.15, 5.44 0 M0 0 C1.99 -0.04, 3.95 -0.08, 5.44 0 M5.44 0 C5.4 0.97, 5.35 1.76, 5.44 4.31 M5.44 0 C5.39 1.64, 5.4 3.2, 5.44 4.31 M5.44 4.31 C3.57 4.23, 1.99 4.31, 0 4.31 M5.44 4.31 C3.86 4.33, 2.49 4.24, 0 4.31 M0 4.31 C0.13 3.28, 0.01 2.32, 0 0 M0 4.31 C-0.05 2.65, -0.05 0.93, 0 0" stroke="#000" stroke-width="4" fill="none"></path></g><g stroke-linecap="round" transform="translate(323.6866151355681 180.5079110302131) rotate(0 2.722251018487043 2.1526036894611167)"><path d="M0.08 0.48 L5.24 0.3 L5.29 3.99 L-0.34 3.71" stroke="none" stroke-width="0" fill="#9d90c5"></path><path d="M0 0 C1.35 0.13, 2.96 -0.04, 5.44 0 M0 0 C1.68 -0.07, 3.26 -0.04, 5.44 0 M5.44 0 C5.36 1.4, 5.54 2.82, 5.44 4.31 M5.44 0 C5.4 1.38, 5.45 2.62, 5.44 4.31 M5.44 4.31 C4.29 4.32, 2.93 4.43, 0 4.31 M5.44 4.31 C4.1 4.26, 2.62 4.33, 0 4.31 M0 4.31 C0 3.07, 0.11 1.69, 0 0 M0 4.31 C-0.04 2.6, -0.04 0.95, 0 0" stroke="#000" stroke-width="4" fill="none"></path></g><g stroke-linecap="round" transform="translate(324.1698439538758 192.24664138807793) rotate(0 2.722251018487043 2.1526036894611167)"><path d="M-0.2 0.3 L5.29 -0.31 L5.1 3.71 L-0.35 4.82" stroke="none" stroke-width="0" fill="#9d90c5"></path><path d="M0 0 C1.97 -0.05, 3.73 0.03, 5.44 0 M0 0 C1.3 -0.03, 2.8 -0.01, 5.44 0 M5.44 0 C5.53 1.45, 5.45 2.92, 5.44 4.31 M5.44 0 C5.45 1.6, 5.38 3.28, 5.44 4.31 M5.44 4.31 C3.94 4.44, 2.45 4.15, 0 4.31 M5.44 4.31 C3.54 4.31, 1.75 4.38, 0 4.31 M0 4.31 C0.12 3.01, 0.12 1.5, 0 0 M0 4.31 C-0.03 2.91, 0.02 1.6, 0 0" stroke="#000" stroke-width="4" fill="none"></path></g><g stroke-linecap="round" transform="translate(353.448318335087 192.3388026695833) rotate(0 2.722251018487043 2.1526036894611167)"><path d="M-0.15 -0.31 L5.1 -0.6 L5.09 4.82 L-0.08 4.73" stroke="none" stroke-width="0" fill="#9d90c5"></path><path d="M0 0 C2.07 0.04, 4.03 0.02, 5.44 0 M0 0 C1.21 -0.02, 2.4 -0.04, 5.44 0 M5.44 0 C5.47 1.06, 5.58 2.25, 5.44 4.31 M5.44 0 C5.4 1.46, 5.42 3.04, 5.44 4.31 M5.44 4.31 C3.67 4.16, 2.13 4.41, 0 4.31 M5.44 4.31 C4.14 4.39, 2.82 4.32, 0 4.31 M0 4.31 C0.11 2.62, 0.02 1.01, 0 0 M0 4.31 C0.02 3.3, -0.01 2.22, 0 0" stroke="#000" stroke-width="4" fill="none"></path></g><g stroke-linecap="round" transform="translate(353.80816380141266 180.9272691594104) rotate(0 2.722251018487043 2.1526036894611167)"><path d="M-0.34 -0.6 L5.09 0.51 L5.37 4.73 L0.23 3.84" stroke="none" stroke-width="0" fill="#9d90c5"></path><path d="M0 0 C1.46 0.01, 2.93 -0.17, 5.44 0 M0 0 C1.42 -0.05, 2.72 0.07, 5.44 0 M5.44 0 C5.57 1.04, 5.52 2.26, 5.44 4.31 M5.44 0 C5.41 0.95, 5.44 1.83, 5.44 4.31 M5.44 4.31 C3.5 4.38, 1.3 4.19, 0 4.31 M5.44 4.31 C3.71 4.33, 2.01 4.4, 0 4.31 M0 4.31 C0.02 2.74, -0.09 1.26, 0 0 M0 4.31 C-0.02 3.15, -0.02 1.89, 0 0" stroke="#000" stroke-width="4" fill="none"></path></g><g stroke-linecap="round" transform="translate(353.9579983869934 169.25316718106933) rotate(0 2.722251018487043 2.1526036894611025)"><path d="M-0.35 0.51 L5.37 0.42 L5.68 3.84 L0.01 4.23" stroke="none" stroke-width="0" fill="#9d90c5"></path><path d="M0 0 C1.6 -0.17, 3.42 0.06, 5.44 0 M0 0 C1.46 0.07, 2.95 0.02, 5.44 0 M5.44 0 C5.53 1.02, 5.33 1.87, 5.44 4.31 M5.44 0 C5.45 1.02, 5.49 2.04, 5.44 4.31 M5.44 4.31 C4.18 4.21, 3.17 4.33, 0 4.31 M5.44 4.31 C3.39 4.39, 1.24 4.39, 0 4.31 M0 4.31 C-0.08 3.17, -0.04 2.22, 0 0 M0 4.31 C-0.01 2.67, -0.03 1.04, 0 0" stroke="#000" stroke-width="4" fill="none"></path></g><g stroke-linecap="round" transform="translate(353.96166665368384 157.3032502159561) rotate(0 2.722251018487043 2.1526036894611025)"><path d="M-0.08 0.42 L5.68 -0.46 L5.45 4.23 L-0.32 4.31" stroke="none" stroke-width="0" fill="#9d90c5"></path><path d="M0 0 C1.6 0.08, 3.32 0.11, 5.44 0 M0 0 C1.28 0, 2.57 0.07, 5.44 0 M5.44 0 C5.33 0.96, 5.37 2.08, 5.44 4.31 M5.44 0 C5.5 1.44, 5.38 2.97, 5.44 4.31 M5.44 4.31 C3.59 4.31, 1.82 4.32, 0 4.31 M5.44 4.31 C3.81 4.4, 2.04 4.34, 0 4.31 M0 4.31 C-0.03 3.3, 0.11 2.22, 0 0 M0 4.31 C-0.03 2.76, -0.03 1.4, 0 0" stroke="#000" stroke-width="4" fill="none"></path></g></svg>